solid OpenSCAD_Model
  facet normal 0.866025 0.5 0
    outer loop
      vertex 25.5793 11.3886 11
      vertex 22.6525 16.458 0
      vertex 22.6525 16.458 11
    endloop
  endfacet
  facet normal 0.866025 0.5 0
    outer loop
      vertex 22.6525 16.458 0
      vertex 25.5793 11.3886 11
      vertex 25.5793 11.3886 0
    endloop
  endfacet
  facet normal 0.743145 0.66913 0
    outer loop
      vertex 22.6525 16.458 11
      vertex 18.7357 20.8081 0
      vertex 18.7357 20.8081 11
    endloop
  endfacet
  facet normal 0.743145 0.66913 0
    outer loop
      vertex 18.7357 20.8081 0
      vertex 22.6525 16.458 11
      vertex 22.6525 16.458 0
    endloop
  endfacet
  facet normal 0.406737 0.913545 -0
    outer loop
      vertex 14 24.2487 0
      vertex 8.65248 26.6296 11
      vertex 14 24.2487 11
    endloop
  endfacet
  facet normal 0.406737 0.913545 0
    outer loop
      vertex 8.65248 26.6296 11
      vertex 14 24.2487 0
      vertex 8.65248 26.6296 0
    endloop
  endfacet
  facet normal -0.207912 0.978148 0
    outer loop
      vertex -2.9268 27.8466 0
      vertex -8.65248 26.6296 11
      vertex -2.9268 27.8466 11
    endloop
  endfacet
  facet normal -0.207912 0.978148 0
    outer loop
      vertex -8.65248 26.6296 11
      vertex -2.9268 27.8466 0
      vertex -8.65248 26.6296 0
    endloop
  endfacet
  facet normal -0.866025 0.5 0
    outer loop
      vertex -25.5793 11.3886 0
      vertex -22.6525 16.458 11
      vertex -22.6525 16.458 0
    endloop
  endfacet
  facet normal -0.866025 0.5 0
    outer loop
      vertex -22.6525 16.458 11
      vertex -25.5793 11.3886 0
      vertex -25.5793 11.3886 11
    endloop
  endfacet
  facet normal 0.994522 -0.104529 0
    outer loop
      vertex 28 0 11
      vertex 27.8964 -0.986063 8.85822
      vertex 28 0 8.85822
    endloop
  endfacet
  facet normal 0.994522 -0.104529 -3.12943e-008
    outer loop
      vertex 27.3881 -5.82153 11
      vertex 27.8964 -0.986063 8.85822
      vertex 28 0 11
    endloop
  endfacet
  facet normal 0.994522 -0.104529 -6.53552e-008
    outer loop
      vertex 27.722 -2.64512 7.79201
      vertex 27.3881 -5.82153 11
      vertex 27.6359 -3.46437 5.9981
    endloop
  endfacet
  facet normal 0.994522 -0.104528 4.7714e-007
    outer loop
      vertex 27.8964 -0.986063 8.85822
      vertex 27.3881 -5.82153 11
      vertex 27.722 -2.64512 7.79201
    endloop
  endfacet
  facet normal 0.994522 -0.104529 0
    outer loop
      vertex 27.8011 -1.89224 2.55561
      vertex 28 0 0
      vertex 28 0 2
    endloop
  endfacet
  facet normal 0.994522 -0.104528 -2.54412e-007
    outer loop
      vertex 27.3881 -5.82153 0
      vertex 27.8011 -1.89224 2.55561
      vertex 27.6654 -3.18371 4.04605
    endloop
  endfacet
  facet normal 0.994522 -0.104529 0
    outer loop
      vertex 27.3881 -5.82153 0
      vertex 27.6359 -3.46437 5.9981
      vertex 27.3881 -5.82153 11
    endloop
  endfacet
  facet normal 0.994522 -0.104529 3.86592e-008
    outer loop
      vertex 27.8011 -1.89224 2.55561
      vertex 27.3881 -5.82153 0
      vertex 28 0 0
    endloop
  endfacet
  facet normal 0.994522 -0.104529 1.54489e-008
    outer loop
      vertex 27.6359 -3.46437 5.9981
      vertex 27.3881 -5.82153 0
      vertex 27.6654 -3.18371 4.04605
    endloop
  endfacet
  facet normal 0.951057 0.309017 0
    outer loop
      vertex 27.3881 5.82153 11
      vertex 25.5793 11.3886 0
      vertex 25.5793 11.3886 11
    endloop
  endfacet
  facet normal 0.951057 0.309017 0
    outer loop
      vertex 25.5793 11.3886 0
      vertex 27.3881 5.82153 11
      vertex 27.3881 5.82153 0
    endloop
  endfacet
  facet normal 0 1 -0
    outer loop
      vertex 2.9268 27.8466 0
      vertex -2.9268 27.8466 11
      vertex 2.9268 27.8466 11
    endloop
  endfacet
  facet normal 0 1 0
    outer loop
      vertex -2.9268 27.8466 11
      vertex 2.9268 27.8466 0
      vertex -2.9268 27.8466 0
    endloop
  endfacet
  facet normal 0.587785 0.809017 -0
    outer loop
      vertex 18.7357 20.8081 0
      vertex 14 24.2487 11
      vertex 18.7357 20.8081 11
    endloop
  endfacet
  facet normal 0.587785 0.809017 0
    outer loop
      vertex 14 24.2487 11
      vertex 18.7357 20.8081 0
      vertex 14 24.2487 0
    endloop
  endfacet
  facet normal -0.994522 0.104529 0
    outer loop
      vertex -27.3881 5.82153 0
      vertex -27.6359 3.46437 5.9981
      vertex -27.3881 5.82153 11
    endloop
  endfacet
  facet normal -0.994522 0.104529 1.54489e-008
    outer loop
      vertex -27.3881 5.82153 0
      vertex -27.6654 3.18371 4.04605
      vertex -27.6359 3.46437 5.9981
    endloop
  endfacet
  facet normal -0.994522 0.104528 -2.54412e-007
    outer loop
      vertex -27.3881 5.82153 0
      vertex -27.8011 1.89224 2.55561
      vertex -27.6654 3.18371 4.04605
    endloop
  endfacet
  facet normal -0.994522 0.104529 3.86592e-008
    outer loop
      vertex -28 0 0
      vertex -27.8011 1.89224 2.55561
      vertex -27.3881 5.82153 0
    endloop
  endfacet
  facet normal -0.994522 0.104529 0
    outer loop
      vertex -27.8011 1.89224 2.55561
      vertex -28 0 0
      vertex -28 0 2
    endloop
  endfacet
  facet normal -0.994522 0.104529 -6.53552e-008
    outer loop
      vertex -27.722 2.64512 7.79201
      vertex -27.3881 5.82153 11
      vertex -27.6359 3.46437 5.9981
    endloop
  endfacet
  facet normal -0.994522 0.104528 4.7714e-007
    outer loop
      vertex -27.8964 0.986063 8.85822
      vertex -27.3881 5.82153 11
      vertex -27.722 2.64512 7.79201
    endloop
  endfacet
  facet normal -0.994522 0.104529 0
    outer loop
      vertex -28 0 11
      vertex -27.8964 0.986063 8.85822
      vertex -28 0 8.85822
    endloop
  endfacet
  facet normal -0.994522 0.104529 -3.12943e-008
    outer loop
      vertex -27.8964 0.986063 8.85822
      vertex -28 0 11
      vertex -27.3881 5.82153 11
    endloop
  endfacet
  facet normal -0.743145 0.66913 0
    outer loop
      vertex -22.6525 16.458 0
      vertex -18.7357 20.8081 11
      vertex -18.7357 20.8081 0
    endloop
  endfacet
  facet normal -0.743145 0.66913 0
    outer loop
      vertex -18.7357 20.8081 11
      vertex -22.6525 16.458 0
      vertex -22.6525 16.458 11
    endloop
  endfacet
  facet normal -0.406737 0.913545 0
    outer loop
      vertex -8.65248 26.6296 0
      vertex -14 24.2487 11
      vertex -8.65248 26.6296 11
    endloop
  endfacet
  facet normal -0.406737 0.913545 0
    outer loop
      vertex -14 24.2487 11
      vertex -8.65248 26.6296 0
      vertex -14 24.2487 0
    endloop
  endfacet
  facet normal -0.587785 0.809017 0
    outer loop
      vertex -14 24.2487 0
      vertex -18.7357 20.8081 11
      vertex -14 24.2487 11
    endloop
  endfacet
  facet normal -0.587785 0.809017 0
    outer loop
      vertex -18.7357 20.8081 11
      vertex -14 24.2487 0
      vertex -18.7357 20.8081 0
    endloop
  endfacet
  facet normal 0.994522 0.104529 0
    outer loop
      vertex 27.3881 5.82153 11
      vertex 27.6359 3.46437 5.9981
      vertex 27.3881 5.82153 0
    endloop
  endfacet
  facet normal 0.994522 0.104529 -6.53552e-008
    outer loop
      vertex 27.3881 5.82153 11
      vertex 27.722 2.64512 7.79201
      vertex 27.6359 3.46437 5.9981
    endloop
  endfacet
  facet normal 0.994522 0.104528 4.7714e-007
    outer loop
      vertex 27.3881 5.82153 11
      vertex 27.8964 0.986063 8.85822
      vertex 27.722 2.64512 7.79201
    endloop
  endfacet
  facet normal 0.994522 0.104529 -3.12943e-008
    outer loop
      vertex 28 0 11
      vertex 27.8964 0.986063 8.85822
      vertex 27.3881 5.82153 11
    endloop
  endfacet
  facet normal 0.994522 0.104529 0
    outer loop
      vertex 27.8964 0.986063 8.85822
      vertex 28 0 11
      vertex 28 0 8.85822
    endloop
  endfacet
  facet normal 0.994522 0.104529 1.54489e-008
    outer loop
      vertex 27.6654 3.18371 4.04605
      vertex 27.3881 5.82153 0
      vertex 27.6359 3.46437 5.9981
    endloop
  endfacet
  facet normal 0.994522 0.104528 -2.54412e-007
    outer loop
      vertex 27.8011 1.89224 2.55561
      vertex 27.3881 5.82153 0
      vertex 27.6654 3.18371 4.04605
    endloop
  endfacet
  facet normal 0.994522 0.104529 -0
    outer loop
      vertex 28 0 0
      vertex 27.8011 1.89224 2.55561
      vertex 28 0 2
    endloop
  endfacet
  facet normal 0.994522 0.104529 3.86592e-008
    outer loop
      vertex 27.8011 1.89224 2.55561
      vertex 28 0 0
      vertex 27.3881 5.82153 0
    endloop
  endfacet
  facet normal 0.951057 -0.309017 0
    outer loop
      vertex 25.5793 -11.3886 11
      vertex 27.3881 -5.82153 0
      vertex 27.3881 -5.82153 11
    endloop
  endfacet
  facet normal 0.951057 -0.309017 0
    outer loop
      vertex 27.3881 -5.82153 0
      vertex 25.5793 -11.3886 11
      vertex 25.5793 -11.3886 0
    endloop
  endfacet
  facet normal -0.587785 -0.809017 0
    outer loop
      vertex -18.7357 -20.8081 0
      vertex -14 -24.2487 11
      vertex -18.7357 -20.8081 11
    endloop
  endfacet
  facet normal -0.587785 -0.809017 -0
    outer loop
      vertex -14 -24.2487 11
      vertex -18.7357 -20.8081 0
      vertex -14 -24.2487 0
    endloop
  endfacet
  facet normal -0.866025 -0.5 0
    outer loop
      vertex -22.6525 -16.458 0
      vertex -25.5793 -11.3886 11
      vertex -25.5793 -11.3886 0
    endloop
  endfacet
  facet normal -0.866025 -0.5 0
    outer loop
      vertex -25.5793 -11.3886 11
      vertex -22.6525 -16.458 0
      vertex -22.6525 -16.458 11
    endloop
  endfacet
  facet normal 0.587785 -0.809017 0
    outer loop
      vertex 14 -24.2487 0
      vertex 18.7357 -20.8081 11
      vertex 14 -24.2487 11
    endloop
  endfacet
  facet normal 0.587785 -0.809017 0
    outer loop
      vertex 18.7357 -20.8081 11
      vertex 14 -24.2487 0
      vertex 18.7357 -20.8081 0
    endloop
  endfacet
  facet normal 0.207912 0.978148 -0
    outer loop
      vertex 8.65248 26.6296 0
      vertex 2.9268 27.8466 11
      vertex 8.65248 26.6296 11
    endloop
  endfacet
  facet normal 0.207912 0.978148 0
    outer loop
      vertex 2.9268 27.8466 11
      vertex 8.65248 26.6296 0
      vertex 2.9268 27.8466 0
    endloop
  endfacet
  facet normal 0 0 1
    outer loop
      vertex 15.25 0 11
      vertex 28 0 11
      vertex 27.3881 5.82153 11
    endloop
  endfacet
  facet normal 0 0 1
    outer loop
      vertex 14.9168 3.17065 11
      vertex 27.3881 5.82153 11
      vertex 25.5793 11.3886 11
    endloop
  endfacet
  facet normal 0 0 1
    outer loop
      vertex 28 0 11
      vertex 15.25 0 11
      vertex 27.3881 -5.82153 11
    endloop
  endfacet
  facet normal 0 0 1
    outer loop
      vertex 13.9316 6.20273 11
      vertex 25.5793 11.3886 11
      vertex 22.6525 16.458 11
    endloop
  endfacet
  facet normal -0 0 1
    outer loop
      vertex 14.9168 -3.17065 11
      vertex 27.3881 -5.82153 11
      vertex 15.25 0 11
    endloop
  endfacet
  facet normal 0 0 1
    outer loop
      vertex 12.3375 8.96373 11
      vertex 22.6525 16.458 11
      vertex 18.7357 20.8081 11
    endloop
  endfacet
  facet normal 0 0 1
    outer loop
      vertex 27.3881 -5.82153 11
      vertex 14.9168 -3.17065 11
      vertex 25.5793 -11.3886 11
    endloop
  endfacet
  facet normal -0 0 1
    outer loop
      vertex 13.9316 -6.20273 11
      vertex 25.5793 -11.3886 11
      vertex 14.9168 -3.17065 11
    endloop
  endfacet
  facet normal 0 0 1
    outer loop
      vertex 27.3881 5.82153 11
      vertex 14.9168 3.17065 11
      vertex 15.25 0 11
    endloop
  endfacet
  facet normal 0 0 1
    outer loop
      vertex 10.2042 11.333 11
      vertex 18.7357 20.8081 11
      vertex 14 24.2487 11
    endloop
  endfacet
  facet normal 0 0 1
    outer loop
      vertex 25.5793 11.3886 11
      vertex 13.9316 6.20273 11
      vertex 14.9168 3.17065 11
    endloop
  endfacet
  facet normal 0 0 1
    outer loop
      vertex 22.6525 16.458 11
      vertex 12.3375 8.96373 11
      vertex 13.9316 6.20273 11
    endloop
  endfacet
  facet normal 0 0 1
    outer loop
      vertex 18.7357 20.8081 11
      vertex 10.2042 11.333 11
      vertex 12.3375 8.96373 11
    endloop
  endfacet
  facet normal 0 0 1
    outer loop
      vertex 7.625 13.2069 11
      vertex 14 24.2487 11
      vertex 8.65248 26.6296 11
    endloop
  endfacet
  facet normal 0 0 1
    outer loop
      vertex 14 24.2487 11
      vertex 7.625 13.2069 11
      vertex 10.2042 11.333 11
    endloop
  endfacet
  facet normal 0 0 1
    outer loop
      vertex 8.65248 26.6296 11
      vertex 4.71251 14.5036 11
      vertex 7.625 13.2069 11
    endloop
  endfacet
  facet normal 0 0 1
    outer loop
      vertex 2.9268 27.8466 11
      vertex 4.71251 14.5036 11
      vertex 8.65248 26.6296 11
    endloop
  endfacet
  facet normal 0 0 1
    outer loop
      vertex 2.9268 27.8466 11
      vertex 1.59406 15.1665 11
      vertex 4.71251 14.5036 11
    endloop
  endfacet
  facet normal 0 0 1
    outer loop
      vertex 2.9268 27.8466 11
      vertex -1.59406 15.1665 11
      vertex 1.59406 15.1665 11
    endloop
  endfacet
  facet normal -0 0 1
    outer loop
      vertex -2.9268 27.8466 11
      vertex -1.59406 15.1665 11
      vertex 2.9268 27.8466 11
    endloop
  endfacet
  facet normal 0 0 1
    outer loop
      vertex -2.9268 27.8466 11
      vertex -4.71251 14.5036 11
      vertex -1.59406 15.1665 11
    endloop
  endfacet
  facet normal -0 0 1
    outer loop
      vertex -8.65248 26.6296 11
      vertex -4.71251 14.5036 11
      vertex -2.9268 27.8466 11
    endloop
  endfacet
  facet normal 0 0 1
    outer loop
      vertex -4.71251 14.5036 11
      vertex -8.65248 26.6296 11
      vertex -7.625 13.2069 11
    endloop
  endfacet
  facet normal -0 0 1
    outer loop
      vertex -14 24.2487 11
      vertex -7.625 13.2069 11
      vertex -8.65248 26.6296 11
    endloop
  endfacet
  facet normal 0 0 1
    outer loop
      vertex -7.625 13.2069 11
      vertex -14 24.2487 11
      vertex -10.2042 11.333 11
    endloop
  endfacet
  facet normal -0 0 1
    outer loop
      vertex -18.7357 20.8081 11
      vertex -10.2042 11.333 11
      vertex -14 24.2487 11
    endloop
  endfacet
  facet normal 0 0 1
    outer loop
      vertex -10.2042 11.333 11
      vertex -18.7357 20.8081 11
      vertex -12.3375 8.96373 11
    endloop
  endfacet
  facet normal -0 0 1
    outer loop
      vertex -22.6525 16.458 11
      vertex -12.3375 8.96373 11
      vertex -18.7357 20.8081 11
    endloop
  endfacet
  facet normal 0 0 1
    outer loop
      vertex -12.3375 8.96373 11
      vertex -22.6525 16.458 11
      vertex -13.9316 6.20273 11
    endloop
  endfacet
  facet normal -0 0 1
    outer loop
      vertex -25.5793 11.3886 11
      vertex -13.9316 6.20273 11
      vertex -22.6525 16.458 11
    endloop
  endfacet
  facet normal 0 0 1
    outer loop
      vertex 25.5793 -11.3886 11
      vertex 13.9316 -6.20273 11
      vertex 22.6525 -16.458 11
    endloop
  endfacet
  facet normal -0 0 1
    outer loop
      vertex 12.3375 -8.96373 11
      vertex 22.6525 -16.458 11
      vertex 13.9316 -6.20273 11
    endloop
  endfacet
  facet normal 0 0 1
    outer loop
      vertex 22.6525 -16.458 11
      vertex 12.3375 -8.96373 11
      vertex 18.7357 -20.8081 11
    endloop
  endfacet
  facet normal -0 0 1
    outer loop
      vertex 10.2042 -11.333 11
      vertex 18.7357 -20.8081 11
      vertex 12.3375 -8.96373 11
    endloop
  endfacet
  facet normal 0 0 1
    outer loop
      vertex 18.7357 -20.8081 11
      vertex 10.2042 -11.333 11
      vertex 14 -24.2487 11
    endloop
  endfacet
  facet normal -0 0 1
    outer loop
      vertex 7.625 -13.2069 11
      vertex 14 -24.2487 11
      vertex 10.2042 -11.333 11
    endloop
  endfacet
  facet normal 0 0 1
    outer loop
      vertex 14 -24.2487 11
      vertex 7.625 -13.2069 11
      vertex 8.65248 -26.6296 11
    endloop
  endfacet
  facet normal -0 0 1
    outer loop
      vertex 4.71251 -14.5036 11
      vertex 8.65248 -26.6296 11
      vertex 7.625 -13.2069 11
    endloop
  endfacet
  facet normal 0 0 1
    outer loop
      vertex 4.71251 -14.5036 11
      vertex 2.9268 -27.8466 11
      vertex 8.65248 -26.6296 11
    endloop
  endfacet
  facet normal -0 0 1
    outer loop
      vertex 1.59406 -15.1665 11
      vertex 2.9268 -27.8466 11
      vertex 4.71251 -14.5036 11
    endloop
  endfacet
  facet normal -0 0 1
    outer loop
      vertex -1.59406 -15.1665 11
      vertex 2.9268 -27.8466 11
      vertex 1.59406 -15.1665 11
    endloop
  endfacet
  facet normal 0 0 1
    outer loop
      vertex -1.59406 -15.1665 11
      vertex -2.9268 -27.8466 11
      vertex 2.9268 -27.8466 11
    endloop
  endfacet
  facet normal 0 0 1
    outer loop
      vertex -4.71251 -14.5036 11
      vertex -2.9268 -27.8466 11
      vertex -1.59406 -15.1665 11
    endloop
  endfacet
  facet normal 0 0 1
    outer loop
      vertex -8.65248 -26.6296 11
      vertex -4.71251 -14.5036 11
      vertex -7.625 -13.2069 11
    endloop
  endfacet
  facet normal 0 0 1
    outer loop
      vertex -4.71251 -14.5036 11
      vertex -8.65248 -26.6296 11
      vertex -2.9268 -27.8466 11
    endloop
  endfacet
  facet normal 0 0 1
    outer loop
      vertex -14 -24.2487 11
      vertex -7.625 -13.2069 11
      vertex -10.2042 -11.333 11
    endloop
  endfacet
  facet normal 0 0 1
    outer loop
      vertex -18.7357 -20.8081 11
      vertex -10.2042 -11.333 11
      vertex -12.3375 -8.96373 11
    endloop
  endfacet
  facet normal 0 0 1
    outer loop
      vertex -22.6525 -16.458 11
      vertex -12.3375 -8.96373 11
      vertex -13.9316 -6.20273 11
    endloop
  endfacet
  facet normal 0 0 1
    outer loop
      vertex -7.625 -13.2069 11
      vertex -14 -24.2487 11
      vertex -8.65248 -26.6296 11
    endloop
  endfacet
  facet normal 0 0 1
    outer loop
      vertex -25.5793 -11.3886 11
      vertex -13.9316 -6.20273 11
      vertex -14.9168 -3.17065 11
    endloop
  endfacet
  facet normal 0 0 1
    outer loop
      vertex -27.3881 -5.82153 11
      vertex -14.9168 -3.17065 11
      vertex -15.25 0 11
    endloop
  endfacet
  facet normal 0 0 1
    outer loop
      vertex -13.9316 6.20273 11
      vertex -25.5793 11.3886 11
      vertex -14.9168 3.17065 11
    endloop
  endfacet
  facet normal 0 0 1
    outer loop
      vertex -10.2042 -11.333 11
      vertex -18.7357 -20.8081 11
      vertex -14 -24.2487 11
    endloop
  endfacet
  facet normal -0 0 1
    outer loop
      vertex -27.3881 5.82153 11
      vertex -14.9168 3.17065 11
      vertex -25.5793 11.3886 11
    endloop
  endfacet
  facet normal 0 0 1
    outer loop
      vertex -12.3375 -8.96373 11
      vertex -22.6525 -16.458 11
      vertex -18.7357 -20.8081 11
    endloop
  endfacet
  facet normal 0 0 1
    outer loop
      vertex -14.9168 3.17065 11
      vertex -27.3881 5.82153 11
      vertex -15.25 0 11
    endloop
  endfacet
  facet normal 0 0 1
    outer loop
      vertex -13.9316 -6.20273 11
      vertex -25.5793 -11.3886 11
      vertex -22.6525 -16.458 11
    endloop
  endfacet
  facet normal 0 0 1
    outer loop
      vertex -28 0 11
      vertex -15.25 0 11
      vertex -27.3881 5.82153 11
    endloop
  endfacet
  facet normal 0 0 1
    outer loop
      vertex -14.9168 -3.17065 11
      vertex -27.3881 -5.82153 11
      vertex -25.5793 -11.3886 11
    endloop
  endfacet
  facet normal 0 0 1
    outer loop
      vertex -15.25 0 11
      vertex -28 0 11
      vertex -27.3881 -5.82153 11
    endloop
  endfacet
  facet normal -0.951057 0.309017 0
    outer loop
      vertex -27.3881 5.82153 0
      vertex -25.5793 11.3886 11
      vertex -25.5793 11.3886 0
    endloop
  endfacet
  facet normal -0.951057 0.309017 0
    outer loop
      vertex -25.5793 11.3886 11
      vertex -27.3881 5.82153 0
      vertex -27.3881 5.82153 11
    endloop
  endfacet
  facet normal 0.866025 -0.5 0
    outer loop
      vertex 22.6525 -16.458 11
      vertex 25.5793 -11.3886 0
      vertex 25.5793 -11.3886 11
    endloop
  endfacet
  facet normal 0.866025 -0.5 0
    outer loop
      vertex 25.5793 -11.3886 0
      vertex 22.6525 -16.458 11
      vertex 22.6525 -16.458 0
    endloop
  endfacet
  facet normal -0.994522 -0.104529 0
    outer loop
      vertex -28 0 0
      vertex -27.8011 -1.89224 2.55561
      vertex -28 0 2
    endloop
  endfacet
  facet normal -0.994522 -0.104529 3.86592e-008
    outer loop
      vertex -27.3881 -5.82153 0
      vertex -27.8011 -1.89224 2.55561
      vertex -28 0 0
    endloop
  endfacet
  facet normal -0.994522 -0.104529 1.54489e-008
    outer loop
      vertex -27.6654 -3.18371 4.04605
      vertex -27.3881 -5.82153 0
      vertex -27.6359 -3.46437 5.9981
    endloop
  endfacet
  facet normal -0.994522 -0.104528 -2.54412e-007
    outer loop
      vertex -27.8011 -1.89224 2.55561
      vertex -27.3881 -5.82153 0
      vertex -27.6654 -3.18371 4.04605
    endloop
  endfacet
  facet normal -0.994522 -0.104529 0
    outer loop
      vertex -27.8964 -0.986063 8.85822
      vertex -28 0 11
      vertex -28 0 8.85822
    endloop
  endfacet
  facet normal -0.994522 -0.104528 4.7714e-007
    outer loop
      vertex -27.3881 -5.82153 11
      vertex -27.8964 -0.986063 8.85822
      vertex -27.722 -2.64512 7.79201
    endloop
  endfacet
  facet normal -0.994522 -0.104529 -3.12943e-008
    outer loop
      vertex -27.8964 -0.986063 8.85822
      vertex -27.3881 -5.82153 11
      vertex -28 0 11
    endloop
  endfacet
  facet normal -0.994522 -0.104529 -6.53552e-008
    outer loop
      vertex -27.6359 -3.46437 5.9981
      vertex -27.3881 -5.82153 11
      vertex -27.722 -2.64512 7.79201
    endloop
  endfacet
  facet normal -0.994522 -0.104529 -0
    outer loop
      vertex -27.3881 -5.82153 11
      vertex -27.6359 -3.46437 5.9981
      vertex -27.3881 -5.82153 0
    endloop
  endfacet
  facet normal -0.743145 -0.66913 0
    outer loop
      vertex -18.7357 -20.8081 0
      vertex -22.6525 -16.458 11
      vertex -22.6525 -16.458 0
    endloop
  endfacet
  facet normal -0.743145 -0.66913 0
    outer loop
      vertex -22.6525 -16.458 11
      vertex -18.7357 -20.8081 0
      vertex -18.7357 -20.8081 11
    endloop
  endfacet
  facet normal 0.207912 -0.978148 0
    outer loop
      vertex 2.9268 -27.8466 0
      vertex 8.65248 -26.6296 11
      vertex 2.9268 -27.8466 11
    endloop
  endfacet
  facet normal 0.207912 -0.978148 0
    outer loop
      vertex 8.65248 -26.6296 11
      vertex 2.9268 -27.8466 0
      vertex 8.65248 -26.6296 0
    endloop
  endfacet
  facet normal 0.406737 -0.913545 0
    outer loop
      vertex 8.65248 -26.6296 0
      vertex 14 -24.2487 11
      vertex 8.65248 -26.6296 11
    endloop
  endfacet
  facet normal 0.406737 -0.913545 0
    outer loop
      vertex 14 -24.2487 11
      vertex 8.65248 -26.6296 0
      vertex 14 -24.2487 0
    endloop
  endfacet
  facet normal 0 -1 0
    outer loop
      vertex -2.9268 -27.8466 0
      vertex 2.9268 -27.8466 11
      vertex -2.9268 -27.8466 11
    endloop
  endfacet
  facet normal 0 -1 -0
    outer loop
      vertex 2.9268 -27.8466 11
      vertex -2.9268 -27.8466 0
      vertex 2.9268 -27.8466 0
    endloop
  endfacet
  facet normal -0.207912 -0.978148 0
    outer loop
      vertex -8.65248 -26.6296 0
      vertex -2.9268 -27.8466 11
      vertex -8.65248 -26.6296 11
    endloop
  endfacet
  facet normal -0.207912 -0.978148 -0
    outer loop
      vertex -2.9268 -27.8466 11
      vertex -8.65248 -26.6296 0
      vertex -2.9268 -27.8466 0
    endloop
  endfacet
  facet normal 0 0 -1
    outer loop
      vertex 27.3881 -5.82153 0
      vertex 27.3881 5.82153 0
      vertex 28 0 0
    endloop
  endfacet
  facet normal 0 0 -1
    outer loop
      vertex 25.5793 -11.3886 0
      vertex 27.3881 5.82153 0
      vertex 27.3881 -5.82153 0
    endloop
  endfacet
  facet normal 0 0 -1
    outer loop
      vertex 25.5793 -11.3886 0
      vertex 25.5793 11.3886 0
      vertex 27.3881 5.82153 0
    endloop
  endfacet
  facet normal 0 0 -1
    outer loop
      vertex 22.6525 -16.458 0
      vertex 25.5793 11.3886 0
      vertex 25.5793 -11.3886 0
    endloop
  endfacet
  facet normal 0 0 -1
    outer loop
      vertex 22.6525 -16.458 0
      vertex 22.6525 16.458 0
      vertex 25.5793 11.3886 0
    endloop
  endfacet
  facet normal 0 0 -1
    outer loop
      vertex 18.7357 -20.8081 0
      vertex 22.6525 16.458 0
      vertex 22.6525 -16.458 0
    endloop
  endfacet
  facet normal 0 0 -1
    outer loop
      vertex 18.7357 -20.8081 0
      vertex 18.7357 20.8081 0
      vertex 22.6525 16.458 0
    endloop
  endfacet
  facet normal 0 0 -1
    outer loop
      vertex 14 -24.2487 0
      vertex 18.7357 20.8081 0
      vertex 18.7357 -20.8081 0
    endloop
  endfacet
  facet normal 0 0 -1
    outer loop
      vertex 14 -24.2487 0
      vertex 14 24.2487 0
      vertex 18.7357 20.8081 0
    endloop
  endfacet
  facet normal 0 0 -1
    outer loop
      vertex 8.65248 -26.6296 0
      vertex 14 24.2487 0
      vertex 14 -24.2487 0
    endloop
  endfacet
  facet normal 0 0 -1
    outer loop
      vertex 8.65248 -26.6296 0
      vertex 8.65248 26.6296 0
      vertex 14 24.2487 0
    endloop
  endfacet
  facet normal 0 0 -1
    outer loop
      vertex 2.9268 -27.8466 0
      vertex 8.65248 26.6296 0
      vertex 8.65248 -26.6296 0
    endloop
  endfacet
  facet normal 0 0 -1
    outer loop
      vertex 2.9268 -27.8466 0
      vertex 2.9268 27.8466 0
      vertex 8.65248 26.6296 0
    endloop
  endfacet
  facet normal 0 0 -1
    outer loop
      vertex -2.9268 -27.8466 0
      vertex 2.9268 27.8466 0
      vertex 2.9268 -27.8466 0
    endloop
  endfacet
  facet normal 0 0 -1
    outer loop
      vertex -2.9268 -27.8466 0
      vertex -2.9268 27.8466 0
      vertex 2.9268 27.8466 0
    endloop
  endfacet
  facet normal 0 0 -1
    outer loop
      vertex -8.65248 -26.6296 0
      vertex -2.9268 27.8466 0
      vertex -2.9268 -27.8466 0
    endloop
  endfacet
  facet normal 0 0 -1
    outer loop
      vertex -8.65248 -26.6296 0
      vertex -8.65248 26.6296 0
      vertex -2.9268 27.8466 0
    endloop
  endfacet
  facet normal 0 0 -1
    outer loop
      vertex -8.65248 -26.6296 0
      vertex -14 24.2487 0
      vertex -8.65248 26.6296 0
    endloop
  endfacet
  facet normal 0 0 -1
    outer loop
      vertex -14 -24.2487 0
      vertex -14 24.2487 0
      vertex -8.65248 -26.6296 0
    endloop
  endfacet
  facet normal 0 0 -1
    outer loop
      vertex -18.7357 -20.8081 0
      vertex -14 24.2487 0
      vertex -14 -24.2487 0
    endloop
  endfacet
  facet normal 0 0 -1
    outer loop
      vertex -18.7357 -20.8081 0
      vertex -18.7357 20.8081 0
      vertex -14 24.2487 0
    endloop
  endfacet
  facet normal 0 0 -1
    outer loop
      vertex -22.6525 -16.458 0
      vertex -18.7357 20.8081 0
      vertex -18.7357 -20.8081 0
    endloop
  endfacet
  facet normal 0 0 -1
    outer loop
      vertex -22.6525 -16.458 0
      vertex -22.6525 16.458 0
      vertex -18.7357 20.8081 0
    endloop
  endfacet
  facet normal 0 0 -1
    outer loop
      vertex -25.5793 -11.3886 0
      vertex -22.6525 16.458 0
      vertex -22.6525 -16.458 0
    endloop
  endfacet
  facet normal 0 0 -1
    outer loop
      vertex -25.5793 -11.3886 0
      vertex -25.5793 11.3886 0
      vertex -22.6525 16.458 0
    endloop
  endfacet
  facet normal 0 0 -1
    outer loop
      vertex -27.3881 -5.82153 0
      vertex -25.5793 11.3886 0
      vertex -25.5793 -11.3886 0
    endloop
  endfacet
  facet normal 0 0 -1
    outer loop
      vertex -27.3881 -5.82153 0
      vertex -27.3881 5.82153 0
      vertex -25.5793 11.3886 0
    endloop
  endfacet
  facet normal 0 -0 -1
    outer loop
      vertex -27.3881 5.82153 0
      vertex -27.3881 -5.82153 0
      vertex -28 0 0
    endloop
  endfacet
  facet normal -0.951057 -0.309017 0
    outer loop
      vertex -25.5793 -11.3886 0
      vertex -27.3881 -5.82153 11
      vertex -27.3881 -5.82153 0
    endloop
  endfacet
  facet normal -0.951057 -0.309017 0
    outer loop
      vertex -27.3881 -5.82153 11
      vertex -25.5793 -11.3886 0
      vertex -25.5793 -11.3886 11
    endloop
  endfacet
  facet normal 0.743145 -0.66913 0
    outer loop
      vertex 18.7357 -20.8081 11
      vertex 22.6525 -16.458 0
      vertex 22.6525 -16.458 11
    endloop
  endfacet
  facet normal 0.743145 -0.66913 0
    outer loop
      vertex 22.6525 -16.458 0
      vertex 18.7357 -20.8081 11
      vertex 18.7357 -20.8081 0
    endloop
  endfacet
  facet normal -0.406737 -0.913545 0
    outer loop
      vertex -14 -24.2487 0
      vertex -8.65248 -26.6296 11
      vertex -14 -24.2487 11
    endloop
  endfacet
  facet normal -0.406737 -0.913545 -0
    outer loop
      vertex -8.65248 -26.6296 11
      vertex -14 -24.2487 0
      vertex -8.65248 -26.6296 0
    endloop
  endfacet
  facet normal 0 -0.281733 0.959493
    outer loop
      vertex -27.8011 1.89224 2.55561
      vertex 28 0 2
      vertex 27.8011 1.89224 2.55561
    endloop
  endfacet
  facet normal 0 -0.281733 0.959493
    outer loop
      vertex 28 0 2
      vertex -27.8011 1.89224 2.55561
      vertex -28 0 2
    endloop
  endfacet
  facet normal 0 0 -1
    outer loop
      vertex 27.8964 -0.986063 8.85822
      vertex 27.8964 0.986063 8.85822
      vertex 28 0 8.85822
    endloop
  endfacet
  facet normal 0 0 -1
    outer loop
      vertex -27.8964 -0.986063 8.85822
      vertex 27.8964 0.986063 8.85822
      vertex 27.8964 -0.986063 8.85822
    endloop
  endfacet
  facet normal 0 0 -1
    outer loop
      vertex -27.8964 -0.986063 8.85822
      vertex -27.8964 0.986063 8.85822
      vertex 27.8964 0.986063 8.85822
    endloop
  endfacet
  facet normal 0 -0 -1
    outer loop
      vertex -27.8964 0.986063 8.85822
      vertex -27.8964 -0.986063 8.85822
      vertex -28 0 8.85822
    endloop
  endfacet
  facet normal 0 0.540641 -0.841254
    outer loop
      vertex -27.722 -2.64512 7.79201
      vertex 27.8964 -0.986063 8.85822
      vertex 27.722 -2.64512 7.79201
    endloop
  endfacet
  facet normal 0 0.540641 -0.841254
    outer loop
      vertex 27.8964 -0.986063 8.85822
      vertex -27.722 -2.64512 7.79201
      vertex -27.8964 -0.986063 8.85822
    endloop
  endfacet
  facet normal 0 -0.909632 -0.415415
    outer loop
      vertex -27.6359 3.46437 5.9981
      vertex 27.722 2.64512 7.79201
      vertex -27.722 2.64512 7.79201
    endloop
  endfacet
  facet normal 0 -0.909632 -0.415415
    outer loop
      vertex 27.722 2.64512 7.79201
      vertex -27.6359 3.46437 5.9981
      vertex 27.6359 3.46437 5.9981
    endloop
  endfacet
  facet normal 0 -0.540641 -0.841254
    outer loop
      vertex 27.8964 0.986063 8.85822
      vertex -27.722 2.64512 7.79201
      vertex 27.722 2.64512 7.79201
    endloop
  endfacet
  facet normal 0 -0.540641 -0.841254
    outer loop
      vertex -27.722 2.64512 7.79201
      vertex 27.8964 0.986063 8.85822
      vertex -27.8964 0.986063 8.85822
    endloop
  endfacet
  facet normal 0 -0.75575 0.654861
    outer loop
      vertex -27.8011 1.89224 2.55561
      vertex 27.6654 3.18371 4.04605
      vertex -27.6654 3.18371 4.04605
    endloop
  endfacet
  facet normal 0 -0.75575 0.654861
    outer loop
      vertex 27.6654 3.18371 4.04605
      vertex -27.8011 1.89224 2.55561
      vertex 27.8011 1.89224 2.55561
    endloop
  endfacet
  facet normal 0 0.75575 0.654861
    outer loop
      vertex 27.8011 -1.89224 2.55561
      vertex -27.6654 -3.18371 4.04605
      vertex 27.6654 -3.18371 4.04605
    endloop
  endfacet
  facet normal 0 0.75575 0.654861
    outer loop
      vertex -27.6654 -3.18371 4.04605
      vertex 27.8011 -1.89224 2.55561
      vertex -27.8011 -1.89224 2.55561
    endloop
  endfacet
  facet normal 0 -0.989821 0.142315
    outer loop
      vertex -27.6654 3.18371 4.04605
      vertex 27.6359 3.46437 5.9981
      vertex -27.6359 3.46437 5.9981
    endloop
  endfacet
  facet normal 0 -0.989821 0.142315
    outer loop
      vertex 27.6359 3.46437 5.9981
      vertex -27.6654 3.18371 4.04605
      vertex 27.6654 3.18371 4.04605
    endloop
  endfacet
  facet normal 0 0.281733 0.959493
    outer loop
      vertex 28 0 2
      vertex -27.8011 -1.89224 2.55561
      vertex 27.8011 -1.89224 2.55561
    endloop
  endfacet
  facet normal 0 0.281733 0.959493
    outer loop
      vertex -27.8011 -1.89224 2.55561
      vertex 28 0 2
      vertex -28 0 2
    endloop
  endfacet
  facet normal 0 0.989821 0.142315
    outer loop
      vertex 27.6654 -3.18371 4.04605
      vertex -27.6359 -3.46437 5.9981
      vertex 27.6359 -3.46437 5.9981
    endloop
  endfacet
  facet normal 0 0.989821 0.142315
    outer loop
      vertex -27.6359 -3.46437 5.9981
      vertex 27.6654 -3.18371 4.04605
      vertex -27.6654 -3.18371 4.04605
    endloop
  endfacet
  facet normal 0 0.909632 -0.415415
    outer loop
      vertex 27.6359 -3.46437 5.9981
      vertex -27.722 -2.64512 7.79201
      vertex 27.722 -2.64512 7.79201
    endloop
  endfacet
  facet normal 0 0.909632 -0.415415
    outer loop
      vertex -27.722 -2.64512 7.79201
      vertex 27.6359 -3.46437 5.9981
      vertex -27.6359 -3.46437 5.9981
    endloop
  endfacet
  facet normal 0.994522 0.104529 0
    outer loop
      vertex 14 0 17
      vertex 13.6941 2.91076 15
      vertex 13.6941 2.91076 17
    endloop
  endfacet
  facet normal 0.994522 0.104529 0
    outer loop
      vertex 13.6941 2.91076 15
      vertex 14 0 17
      vertex 14 0 15
    endloop
  endfacet
  facet normal -0.994522 0.104528 0
    outer loop
      vertex -13.6941 2.91076 15
      vertex -13.875 1.18882 15.6137
      vertex -13.6941 2.91076 17
    endloop
  endfacet
  facet normal -0.994522 0.104529 7.19527e-008
    outer loop
      vertex -13.875 1.18882 15.6137
      vertex -13.6941 2.91076 15
      vertex -13.9638 0.344095 15
    endloop
  endfacet
  facet normal -0.994522 0.104529 -2.74778e-007
    outer loop
      vertex -13.6941 2.91076 17
      vertex -13.875 1.18882 15.6137
      vertex -13.9224 0.738393 17
    endloop
  endfacet
  facet normal 0 1 -0
    outer loop
      vertex 1.4634 13.9233 15
      vertex -1.4634 13.9233 17
      vertex 1.4634 13.9233 17
    endloop
  endfacet
  facet normal 0 1 0
    outer loop
      vertex -1.4634 13.9233 17
      vertex 1.4634 13.9233 15
      vertex -1.4634 13.9233 15
    endloop
  endfacet
  facet normal 0 -1 0
    outer loop
      vertex -1.4634 -13.9233 15
      vertex 1.4634 -13.9233 17
      vertex -1.4634 -13.9233 17
    endloop
  endfacet
  facet normal 0 -1 -0
    outer loop
      vertex 1.4634 -13.9233 17
      vertex -1.4634 -13.9233 15
      vertex 1.4634 -13.9233 15
    endloop
  endfacet
  facet normal 0.587785 0.809017 -0
    outer loop
      vertex 9.36783 10.404 15
      vertex 7 12.1244 17
      vertex 9.36783 10.404 17
    endloop
  endfacet
  facet normal 0.587785 0.809017 0
    outer loop
      vertex 7 12.1244 17
      vertex 9.36783 10.404 15
      vertex 7 12.1244 15
    endloop
  endfacet
  facet normal -0.743145 0.669131 0
    outer loop
      vertex -11.3262 8.22899 15
      vertex -9.36783 10.404 17
      vertex -9.36783 10.404 15
    endloop
  endfacet
  facet normal -0.743145 0.669131 0
    outer loop
      vertex -9.36783 10.404 17
      vertex -11.3262 8.22899 15
      vertex -11.3262 8.22899 17
    endloop
  endfacet
  facet normal 0 0 1
    outer loop
      vertex 14.9168 3.17065 21
      vertex 14.9168 -3.17065 21
      vertex 15.25 0 21
    endloop
  endfacet
  facet normal 0 0 1
    outer loop
      vertex 13.9316 6.20273 21
      vertex 14.9168 -3.17065 21
      vertex 14.9168 3.17065 21
    endloop
  endfacet
  facet normal 0 0 1
    outer loop
      vertex 13.9316 6.20273 21
      vertex 13.9316 -6.20273 21
      vertex 14.9168 -3.17065 21
    endloop
  endfacet
  facet normal 0 0 1
    outer loop
      vertex 12.3375 8.96373 21
      vertex 13.9316 -6.20273 21
      vertex 13.9316 6.20273 21
    endloop
  endfacet
  facet normal 0 0 1
    outer loop
      vertex 12.3375 8.96373 21
      vertex 12.3375 -8.96373 21
      vertex 13.9316 -6.20273 21
    endloop
  endfacet
  facet normal 0 0 1
    outer loop
      vertex 10.2042 11.333 21
      vertex 12.3375 -8.96373 21
      vertex 12.3375 8.96373 21
    endloop
  endfacet
  facet normal 0 0 1
    outer loop
      vertex 10.2042 11.333 21
      vertex 10.2042 -11.333 21
      vertex 12.3375 -8.96373 21
    endloop
  endfacet
  facet normal 0 0 1
    outer loop
      vertex 7.625 13.2069 21
      vertex 10.2042 -11.333 21
      vertex 10.2042 11.333 21
    endloop
  endfacet
  facet normal 0 0 1
    outer loop
      vertex 7.625 13.2069 21
      vertex 7.625 -13.2069 21
      vertex 10.2042 -11.333 21
    endloop
  endfacet
  facet normal 0 0 1
    outer loop
      vertex 4.71251 14.5036 21
      vertex 7.625 -13.2069 21
      vertex 7.625 13.2069 21
    endloop
  endfacet
  facet normal 0 0 1
    outer loop
      vertex 4.71251 14.5036 21
      vertex 4.71251 -14.5036 21
      vertex 7.625 -13.2069 21
    endloop
  endfacet
  facet normal 0 0 1
    outer loop
      vertex 1.59406 15.1665 21
      vertex 4.71251 -14.5036 21
      vertex 4.71251 14.5036 21
    endloop
  endfacet
  facet normal 0 0 1
    outer loop
      vertex 1.59406 15.1665 21
      vertex 1.59406 -15.1665 21
      vertex 4.71251 -14.5036 21
    endloop
  endfacet
  facet normal -0 0 1
    outer loop
      vertex -1.59406 15.1665 21
      vertex 1.59406 -15.1665 21
      vertex 1.59406 15.1665 21
    endloop
  endfacet
  facet normal 0 0 1
    outer loop
      vertex -1.59406 15.1665 21
      vertex -1.59406 -15.1665 21
      vertex 1.59406 -15.1665 21
    endloop
  endfacet
  facet normal -0 0 1
    outer loop
      vertex -4.71251 14.5036 21
      vertex -1.59406 -15.1665 21
      vertex -1.59406 15.1665 21
    endloop
  endfacet
  facet normal 0 0 1
    outer loop
      vertex -4.71251 14.5036 21
      vertex -4.71251 -14.5036 21
      vertex -1.59406 -15.1665 21
    endloop
  endfacet
  facet normal -0 0 1
    outer loop
      vertex -7.625 13.2069 21
      vertex -4.71251 -14.5036 21
      vertex -4.71251 14.5036 21
    endloop
  endfacet
  facet normal 0 0 1
    outer loop
      vertex -7.625 13.2069 21
      vertex -7.625 -13.2069 21
      vertex -4.71251 -14.5036 21
    endloop
  endfacet
  facet normal -0 0 1
    outer loop
      vertex -10.2042 11.333 21
      vertex -7.625 -13.2069 21
      vertex -7.625 13.2069 21
    endloop
  endfacet
  facet normal 0 0 1
    outer loop
      vertex -10.2042 11.333 21
      vertex -10.2042 -11.333 21
      vertex -7.625 -13.2069 21
    endloop
  endfacet
  facet normal -0 0 1
    outer loop
      vertex -12.3375 8.96373 21
      vertex -10.2042 -11.333 21
      vertex -10.2042 11.333 21
    endloop
  endfacet
  facet normal 0 0 1
    outer loop
      vertex -12.3375 8.96373 21
      vertex -12.3375 -8.96373 21
      vertex -10.2042 -11.333 21
    endloop
  endfacet
  facet normal -0 0 1
    outer loop
      vertex -13.9316 6.20273 21
      vertex -12.3375 -8.96373 21
      vertex -12.3375 8.96373 21
    endloop
  endfacet
  facet normal 0 0 1
    outer loop
      vertex -13.9316 6.20273 21
      vertex -13.9316 -6.20273 21
      vertex -12.3375 -8.96373 21
    endloop
  endfacet
  facet normal -0 0 1
    outer loop
      vertex -14.9168 3.17065 21
      vertex -13.9316 -6.20273 21
      vertex -13.9316 6.20273 21
    endloop
  endfacet
  facet normal 0 0 1
    outer loop
      vertex -14.9168 3.17065 21
      vertex -14.9168 -3.17065 21
      vertex -13.9316 -6.20273 21
    endloop
  endfacet
  facet normal 0 -0 1
    outer loop
      vertex -14.9168 -3.17065 21
      vertex -14.9168 3.17065 21
      vertex -15.25 0 21
    endloop
  endfacet
  facet normal -0.406737 0.913545 0
    outer loop
      vertex -4.32624 13.3148 15
      vertex -7 12.1244 17
      vertex -4.32624 13.3148 17
    endloop
  endfacet
  facet normal -0.406737 0.913545 0
    outer loop
      vertex -7 12.1244 17
      vertex -4.32624 13.3148 15
      vertex -7 12.1244 15
    endloop
  endfacet
  facet normal 0.866026 0.5 0
    outer loop
      vertex 12.7896 5.69431 17
      vertex 11.3262 8.22899 15
      vertex 11.3262 8.22899 17
    endloop
  endfacet
  facet normal 0.866026 0.5 0
    outer loop
      vertex 11.3262 8.22899 15
      vertex 12.7896 5.69431 17
      vertex 12.7896 5.69431 15
    endloop
  endfacet
  facet normal 0.951056 0.309017 0
    outer loop
      vertex 13.6941 2.91076 17
      vertex 12.7896 5.69431 15
      vertex 12.7896 5.69431 17
    endloop
  endfacet
  facet normal 0.951056 0.309017 0
    outer loop
      vertex 12.7896 5.69431 15
      vertex 13.6941 2.91076 17
      vertex 13.6941 2.91076 15
    endloop
  endfacet
  facet normal 0.743145 0.669131 0
    outer loop
      vertex 11.3262 8.22899 17
      vertex 9.36783 10.404 15
      vertex 9.36783 10.404 17
    endloop
  endfacet
  facet normal 0.743145 0.669131 0
    outer loop
      vertex 9.36783 10.404 15
      vertex 11.3262 8.22899 17
      vertex 11.3262 8.22899 15
    endloop
  endfacet
  facet normal 0.207912 0.978148 -0
    outer loop
      vertex 4.32624 13.3148 15
      vertex 1.4634 13.9233 17
      vertex 4.32624 13.3148 17
    endloop
  endfacet
  facet normal 0.207912 0.978148 0
    outer loop
      vertex 1.4634 13.9233 17
      vertex 4.32624 13.3148 15
      vertex 1.4634 13.9233 15
    endloop
  endfacet
  facet normal 0.406737 0.913545 -0
    outer loop
      vertex 7 12.1244 15
      vertex 4.32624 13.3148 17
      vertex 7 12.1244 17
    endloop
  endfacet
  facet normal 0.406737 0.913545 0
    outer loop
      vertex 4.32624 13.3148 17
      vertex 7 12.1244 15
      vertex 4.32624 13.3148 15
    endloop
  endfacet
  facet normal -0.866026 0.5 0
    outer loop
      vertex -12.7896 5.69431 15
      vertex -11.3262 8.22899 17
      vertex -11.3262 8.22899 15
    endloop
  endfacet
  facet normal -0.866026 0.5 0
    outer loop
      vertex -11.3262 8.22899 17
      vertex -12.7896 5.69431 15
      vertex -12.7896 5.69431 17
    endloop
  endfacet
  facet normal -0.951056 0.309017 0
    outer loop
      vertex -13.6941 2.91076 15
      vertex -12.7896 5.69431 17
      vertex -12.7896 5.69431 15
    endloop
  endfacet
  facet normal -0.951056 0.309017 0
    outer loop
      vertex -12.7896 5.69431 17
      vertex -13.6941 2.91076 15
      vertex -13.6941 2.91076 17
    endloop
  endfacet
  facet normal -0.587785 0.809017 0
    outer loop
      vertex -7 12.1244 15
      vertex -9.36783 10.404 17
      vertex -7 12.1244 17
    endloop
  endfacet
  facet normal -0.587785 0.809017 0
    outer loop
      vertex -9.36783 10.404 17
      vertex -7 12.1244 15
      vertex -9.36783 10.404 15
    endloop
  endfacet
  facet normal -0.207912 0.978148 0
    outer loop
      vertex -1.4634 13.9233 15
      vertex -4.32624 13.3148 17
      vertex -1.4634 13.9233 17
    endloop
  endfacet
  facet normal -0.207912 0.978148 0
    outer loop
      vertex -4.32624 13.3148 17
      vertex -1.4634 13.9233 15
      vertex -4.32624 13.3148 15
    endloop
  endfacet
  facet normal 0.994522 -0.104529 0
    outer loop
      vertex 13.6941 -2.91076 17
      vertex 14 0 15
      vertex 14 0 17
    endloop
  endfacet
  facet normal 0.994522 -0.104529 0
    outer loop
      vertex 14 0 15
      vertex 13.6941 -2.91076 17
      vertex 13.6941 -2.91076 15
    endloop
  endfacet
  facet normal 0.866026 -0.5 0
    outer loop
      vertex 11.3262 -8.22899 17
      vertex 12.7896 -5.69431 15
      vertex 12.7896 -5.69431 17
    endloop
  endfacet
  facet normal 0.866026 -0.5 0
    outer loop
      vertex 12.7896 -5.69431 15
      vertex 11.3262 -8.22899 17
      vertex 11.3262 -8.22899 15
    endloop
  endfacet
  facet normal 0.587785 -0.809017 0
    outer loop
      vertex 7 -12.1244 15
      vertex 9.36783 -10.404 17
      vertex 7 -12.1244 17
    endloop
  endfacet
  facet normal 0.587785 -0.809017 0
    outer loop
      vertex 9.36783 -10.404 17
      vertex 7 -12.1244 15
      vertex 9.36783 -10.404 15
    endloop
  endfacet
  facet normal 0.951056 -0.309017 0
    outer loop
      vertex 12.7896 -5.69431 17
      vertex 13.6941 -2.91076 15
      vertex 13.6941 -2.91076 17
    endloop
  endfacet
  facet normal 0.951056 -0.309017 0
    outer loop
      vertex 13.6941 -2.91076 15
      vertex 12.7896 -5.69431 17
      vertex 12.7896 -5.69431 15
    endloop
  endfacet
  facet normal -0.207912 -0.978148 0
    outer loop
      vertex -4.32624 -13.3148 15
      vertex -1.4634 -13.9233 17
      vertex -4.32624 -13.3148 17
    endloop
  endfacet
  facet normal -0.207912 -0.978148 -0
    outer loop
      vertex -1.4634 -13.9233 17
      vertex -4.32624 -13.3148 15
      vertex -1.4634 -13.9233 15
    endloop
  endfacet
  facet normal -0.743145 -0.669131 0
    outer loop
      vertex -9.36783 -10.404 15
      vertex -11.3262 -8.22899 17
      vertex -11.3262 -8.22899 15
    endloop
  endfacet
  facet normal -0.743145 -0.669131 0
    outer loop
      vertex -11.3262 -8.22899 17
      vertex -9.36783 -10.404 15
      vertex -9.36783 -10.404 17
    endloop
  endfacet
  facet normal -0.866026 -0.5 0
    outer loop
      vertex -11.3262 -8.22899 15
      vertex -12.7896 -5.69431 17
      vertex -12.7896 -5.69431 15
    endloop
  endfacet
  facet normal -0.866026 -0.5 0
    outer loop
      vertex -12.7896 -5.69431 17
      vertex -11.3262 -8.22899 15
      vertex -11.3262 -8.22899 17
    endloop
  endfacet
  facet normal -0.951056 -0.309017 0
    outer loop
      vertex -12.7896 -5.69431 15
      vertex -13.6941 -2.91076 17
      vertex -13.6941 -2.91076 15
    endloop
  endfacet
  facet normal -0.951056 -0.309017 0
    outer loop
      vertex -13.6941 -2.91076 17
      vertex -12.7896 -5.69431 15
      vertex -12.7896 -5.69431 17
    endloop
  endfacet
  facet normal -0.994522 -0.104528 -0
    outer loop
      vertex -13.6941 -2.91076 17
      vertex -13.875 -1.18882 15.6137
      vertex -13.6941 -2.91076 15
    endloop
  endfacet
  facet normal -0.994522 -0.104529 -2.74778e-007
    outer loop
      vertex -13.875 -1.18882 15.6137
      vertex -13.6941 -2.91076 17
      vertex -13.9224 -0.738393 17
    endloop
  endfacet
  facet normal -0.994522 -0.104529 7.19527e-008
    outer loop
      vertex -13.9638 -0.344095 15
      vertex -13.6941 -2.91076 15
      vertex -13.875 -1.18882 15.6137
    endloop
  endfacet
  facet normal 0.406737 -0.913545 0
    outer loop
      vertex 4.32624 -13.3148 15
      vertex 7 -12.1244 17
      vertex 4.32624 -13.3148 17
    endloop
  endfacet
  facet normal 0.406737 -0.913545 0
    outer loop
      vertex 7 -12.1244 17
      vertex 4.32624 -13.3148 15
      vertex 7 -12.1244 15
    endloop
  endfacet
  facet normal 0.207912 -0.978148 0
    outer loop
      vertex 1.4634 -13.9233 15
      vertex 4.32624 -13.3148 17
      vertex 1.4634 -13.9233 17
    endloop
  endfacet
  facet normal 0.207912 -0.978148 0
    outer loop
      vertex 4.32624 -13.3148 17
      vertex 1.4634 -13.9233 15
      vertex 4.32624 -13.3148 15
    endloop
  endfacet
  facet normal 0.743145 -0.669131 0
    outer loop
      vertex 9.36783 -10.404 17
      vertex 11.3262 -8.22899 15
      vertex 11.3262 -8.22899 17
    endloop
  endfacet
  facet normal 0.743145 -0.669131 0
    outer loop
      vertex 11.3262 -8.22899 15
      vertex 9.36783 -10.404 17
      vertex 9.36783 -10.404 15
    endloop
  endfacet
  facet normal -0.406737 -0.913545 0
    outer loop
      vertex -7 -12.1244 15
      vertex -4.32624 -13.3148 17
      vertex -7 -12.1244 17
    endloop
  endfacet
  facet normal -0.406737 -0.913545 -0
    outer loop
      vertex -4.32624 -13.3148 17
      vertex -7 -12.1244 15
      vertex -4.32624 -13.3148 15
    endloop
  endfacet
  facet normal -0.587785 -0.809017 0
    outer loop
      vertex -9.36783 -10.404 15
      vertex -7 -12.1244 17
      vertex -9.36783 -10.404 17
    endloop
  endfacet
  facet normal -0.587785 -0.809017 -0
    outer loop
      vertex -7 -12.1244 17
      vertex -9.36783 -10.404 15
      vertex -7 -12.1244 15
    endloop
  endfacet
  facet normal 0.994522 0.104528 0
    outer loop
      vertex 15.25 0 21
      vertex 14.9168 3.17065 17
      vertex 14.9168 3.17065 21
    endloop
  endfacet
  facet normal 0.994522 0.104528 0
    outer loop
      vertex 14.9168 3.17065 17
      vertex 15.25 0 21
      vertex 15.25 0 17
    endloop
  endfacet
  facet normal -0.994522 0.104528 0
    outer loop
      vertex -15.25 0 17
      vertex -14.9168 3.17065 21
      vertex -14.9168 3.17065 17
    endloop
  endfacet
  facet normal -0.994522 0.104528 0
    outer loop
      vertex -14.9168 3.17065 21
      vertex -15.25 0 17
      vertex -15.25 0 21
    endloop
  endfacet
  facet normal 0 1 -0
    outer loop
      vertex 1.59406 15.1665 17
      vertex -1.59406 15.1665 21
      vertex 1.59406 15.1665 21
    endloop
  endfacet
  facet normal 0 1 0
    outer loop
      vertex -1.59406 15.1665 21
      vertex 1.59406 15.1665 17
      vertex -1.59406 15.1665 17
    endloop
  endfacet
  facet normal 0 -1 0
    outer loop
      vertex -1.59406 -15.1665 17
      vertex 1.59406 -15.1665 21
      vertex -1.59406 -15.1665 21
    endloop
  endfacet
  facet normal 0 -1 -0
    outer loop
      vertex 1.59406 -15.1665 21
      vertex -1.59406 -15.1665 17
      vertex 1.59406 -15.1665 17
    endloop
  endfacet
  facet normal 0.587785 0.809017 -0
    outer loop
      vertex 10.2042 11.333 17
      vertex 7.625 13.2069 21
      vertex 10.2042 11.333 21
    endloop
  endfacet
  facet normal 0.587785 0.809017 0
    outer loop
      vertex 7.625 13.2069 21
      vertex 10.2042 11.333 17
      vertex 7.625 13.2069 17
    endloop
  endfacet
  facet normal 0.406737 0.913545 -0
    outer loop
      vertex 7.625 13.2069 17
      vertex 4.71251 14.5036 21
      vertex 7.625 13.2069 21
    endloop
  endfacet
  facet normal 0.406737 0.913545 0
    outer loop
      vertex 4.71251 14.5036 21
      vertex 7.625 13.2069 17
      vertex 4.71251 14.5036 17
    endloop
  endfacet
  facet normal -0.743145 0.669131 0
    outer loop
      vertex -12.3375 8.96373 17
      vertex -10.2042 11.333 21
      vertex -10.2042 11.333 17
    endloop
  endfacet
  facet normal -0.743145 0.669131 0
    outer loop
      vertex -10.2042 11.333 21
      vertex -12.3375 8.96373 17
      vertex -12.3375 8.96373 21
    endloop
  endfacet
  facet normal -0.406737 0.913545 0
    outer loop
      vertex -4.71251 14.5036 17
      vertex -7.625 13.2069 21
      vertex -4.71251 14.5036 21
    endloop
  endfacet
  facet normal -0.406737 0.913545 0
    outer loop
      vertex -7.625 13.2069 21
      vertex -4.71251 14.5036 17
      vertex -7.625 13.2069 17
    endloop
  endfacet
  facet normal 0.951057 -0.309017 0
    outer loop
      vertex 13.9316 -6.20273 21
      vertex 14.9168 -3.17065 17
      vertex 14.9168 -3.17065 21
    endloop
  endfacet
  facet normal 0.951057 -0.309017 0
    outer loop
      vertex 14.9168 -3.17065 17
      vertex 13.9316 -6.20273 21
      vertex 13.9316 -6.20273 17
    endloop
  endfacet
  facet normal 0.866025 0.5 0
    outer loop
      vertex 13.9316 6.20273 21
      vertex 12.3375 8.96373 17
      vertex 12.3375 8.96373 21
    endloop
  endfacet
  facet normal 0.866025 0.5 0
    outer loop
      vertex 12.3375 8.96373 17
      vertex 13.9316 6.20273 21
      vertex 13.9316 6.20273 17
    endloop
  endfacet
  facet normal 0.951057 0.309017 0
    outer loop
      vertex 14.9168 3.17065 21
      vertex 13.9316 6.20273 17
      vertex 13.9316 6.20273 21
    endloop
  endfacet
  facet normal 0.951057 0.309017 0
    outer loop
      vertex 13.9316 6.20273 17
      vertex 14.9168 3.17065 21
      vertex 14.9168 3.17065 17
    endloop
  endfacet
  facet normal 0.743145 0.669131 0
    outer loop
      vertex 12.3375 8.96373 21
      vertex 10.2042 11.333 17
      vertex 10.2042 11.333 21
    endloop
  endfacet
  facet normal 0.743145 0.669131 0
    outer loop
      vertex 10.2042 11.333 17
      vertex 12.3375 8.96373 21
      vertex 12.3375 8.96373 17
    endloop
  endfacet
  facet normal 0.207912 0.978148 -0
    outer loop
      vertex 4.71251 14.5036 17
      vertex 1.59406 15.1665 21
      vertex 4.71251 14.5036 21
    endloop
  endfacet
  facet normal 0.207912 0.978148 0
    outer loop
      vertex 1.59406 15.1665 21
      vertex 4.71251 14.5036 17
      vertex 1.59406 15.1665 17
    endloop
  endfacet
  facet normal -0.866025 0.5 0
    outer loop
      vertex -13.9316 6.20273 17
      vertex -12.3375 8.96373 21
      vertex -12.3375 8.96373 17
    endloop
  endfacet
  facet normal -0.866025 0.5 0
    outer loop
      vertex -12.3375 8.96373 21
      vertex -13.9316 6.20273 17
      vertex -13.9316 6.20273 21
    endloop
  endfacet
  facet normal -0.951057 0.309017 0
    outer loop
      vertex -14.9168 3.17065 17
      vertex -13.9316 6.20273 21
      vertex -13.9316 6.20273 17
    endloop
  endfacet
  facet normal -0.951057 0.309017 0
    outer loop
      vertex -13.9316 6.20273 21
      vertex -14.9168 3.17065 17
      vertex -14.9168 3.17065 21
    endloop
  endfacet
  facet normal -0.587785 0.809017 0
    outer loop
      vertex -7.625 13.2069 17
      vertex -10.2042 11.333 21
      vertex -7.625 13.2069 21
    endloop
  endfacet
  facet normal -0.587785 0.809017 0
    outer loop
      vertex -10.2042 11.333 21
      vertex -7.625 13.2069 17
      vertex -10.2042 11.333 17
    endloop
  endfacet
  facet normal -0.207912 0.978148 0
    outer loop
      vertex -1.59406 15.1665 17
      vertex -4.71251 14.5036 21
      vertex -1.59406 15.1665 21
    endloop
  endfacet
  facet normal -0.207912 0.978148 0
    outer loop
      vertex -4.71251 14.5036 21
      vertex -1.59406 15.1665 17
      vertex -4.71251 14.5036 17
    endloop
  endfacet
  facet normal 0.994522 -0.104528 0
    outer loop
      vertex 14.9168 -3.17065 21
      vertex 15.25 0 17
      vertex 15.25 0 21
    endloop
  endfacet
  facet normal 0.994522 -0.104528 0
    outer loop
      vertex 15.25 0 17
      vertex 14.9168 -3.17065 21
      vertex 14.9168 -3.17065 17
    endloop
  endfacet
  facet normal 0.207912 -0.978148 0
    outer loop
      vertex 1.59406 -15.1665 17
      vertex 4.71251 -14.5036 21
      vertex 1.59406 -15.1665 21
    endloop
  endfacet
  facet normal 0.207912 -0.978148 0
    outer loop
      vertex 4.71251 -14.5036 21
      vertex 1.59406 -15.1665 17
      vertex 4.71251 -14.5036 17
    endloop
  endfacet
  facet normal 0.866025 -0.5 0
    outer loop
      vertex 12.3375 -8.96373 21
      vertex 13.9316 -6.20273 17
      vertex 13.9316 -6.20273 21
    endloop
  endfacet
  facet normal 0.866025 -0.5 0
    outer loop
      vertex 13.9316 -6.20273 17
      vertex 12.3375 -8.96373 21
      vertex 12.3375 -8.96373 17
    endloop
  endfacet
  facet normal 0 0 -1
    outer loop
      vertex 14 0 17
      vertex 15.25 0 17
      vertex 14.9168 -3.17065 17
    endloop
  endfacet
  facet normal 0 0 -1
    outer loop
      vertex 15.25 0 17
      vertex 14 0 17
      vertex 14.9168 3.17065 17
    endloop
  endfacet
  facet normal 0 0 -1
    outer loop
      vertex 13.6941 -2.91076 17
      vertex 14.9168 -3.17065 17
      vertex 13.9316 -6.20273 17
    endloop
  endfacet
  facet normal 0 0 -1
    outer loop
      vertex 14.9168 -3.17065 17
      vertex 13.6941 -2.91076 17
      vertex 14 0 17
    endloop
  endfacet
  facet normal 0 0 -1
    outer loop
      vertex 13.9316 -6.20273 17
      vertex 12.7896 -5.69431 17
      vertex 13.6941 -2.91076 17
    endloop
  endfacet
  facet normal 0 0 -1
    outer loop
      vertex 12.3375 -8.96373 17
      vertex 12.7896 -5.69431 17
      vertex 13.9316 -6.20273 17
    endloop
  endfacet
  facet normal 0 0 -1
    outer loop
      vertex 12.3375 -8.96373 17
      vertex 11.3262 -8.22899 17
      vertex 12.7896 -5.69431 17
    endloop
  endfacet
  facet normal 0 0 -1
    outer loop
      vertex 10.2042 -11.333 17
      vertex 11.3262 -8.22899 17
      vertex 12.3375 -8.96373 17
    endloop
  endfacet
  facet normal 0 0 -1
    outer loop
      vertex 10.2042 -11.333 17
      vertex 9.36783 -10.404 17
      vertex 11.3262 -8.22899 17
    endloop
  endfacet
  facet normal 0 0 -1
    outer loop
      vertex 7.625 -13.2069 17
      vertex 9.36783 -10.404 17
      vertex 10.2042 -11.333 17
    endloop
  endfacet
  facet normal 0 0 -1
    outer loop
      vertex 7.625 -13.2069 17
      vertex 7 -12.1244 17
      vertex 9.36783 -10.404 17
    endloop
  endfacet
  facet normal 0 0 -1
    outer loop
      vertex 4.71251 -14.5036 17
      vertex 7 -12.1244 17
      vertex 7.625 -13.2069 17
    endloop
  endfacet
  facet normal 0 0 -1
    outer loop
      vertex 4.71251 -14.5036 17
      vertex 4.32624 -13.3148 17
      vertex 7 -12.1244 17
    endloop
  endfacet
  facet normal 0 0 -1
    outer loop
      vertex 1.59406 -15.1665 17
      vertex 4.32624 -13.3148 17
      vertex 4.71251 -14.5036 17
    endloop
  endfacet
  facet normal 0 0 -1
    outer loop
      vertex 1.59406 -15.1665 17
      vertex 1.4634 -13.9233 17
      vertex 4.32624 -13.3148 17
    endloop
  endfacet
  facet normal 0 0 -1
    outer loop
      vertex 1.59406 -15.1665 17
      vertex -1.4634 -13.9233 17
      vertex 1.4634 -13.9233 17
    endloop
  endfacet
  facet normal 0 0 -1
    outer loop
      vertex -1.59406 -15.1665 17
      vertex -1.4634 -13.9233 17
      vertex 1.59406 -15.1665 17
    endloop
  endfacet
  facet normal 0 0 -1
    outer loop
      vertex -1.59406 -15.1665 17
      vertex -4.32624 -13.3148 17
      vertex -1.4634 -13.9233 17
    endloop
  endfacet
  facet normal 0 0 -1
    outer loop
      vertex -4.71251 -14.5036 17
      vertex -4.32624 -13.3148 17
      vertex -1.59406 -15.1665 17
    endloop
  endfacet
  facet normal 0 0 -1
    outer loop
      vertex -4.71251 -14.5036 17
      vertex -7 -12.1244 17
      vertex -4.32624 -13.3148 17
    endloop
  endfacet
  facet normal 0 0 -1
    outer loop
      vertex -7.625 -13.2069 17
      vertex -7 -12.1244 17
      vertex -4.71251 -14.5036 17
    endloop
  endfacet
  facet normal 0 0 -1
    outer loop
      vertex -7.625 -13.2069 17
      vertex -9.36783 -10.404 17
      vertex -7 -12.1244 17
    endloop
  endfacet
  facet normal 0 0 -1
    outer loop
      vertex -10.2042 -11.333 17
      vertex -9.36783 -10.404 17
      vertex -7.625 -13.2069 17
    endloop
  endfacet
  facet normal 0 0 -1
    outer loop
      vertex -10.2042 -11.333 17
      vertex -11.3262 -8.22899 17
      vertex -9.36783 -10.404 17
    endloop
  endfacet
  facet normal 0 0 -1
    outer loop
      vertex -12.3375 -8.96373 17
      vertex -11.3262 -8.22899 17
      vertex -10.2042 -11.333 17
    endloop
  endfacet
  facet normal 0 0 -1
    outer loop
      vertex -12.3375 -8.96373 17
      vertex -12.7896 -5.69431 17
      vertex -11.3262 -8.22899 17
    endloop
  endfacet
  facet normal 0 0 -1
    outer loop
      vertex -13.9316 -6.20273 17
      vertex -12.7896 -5.69431 17
      vertex -12.3375 -8.96373 17
    endloop
  endfacet
  facet normal -0 0 -1
    outer loop
      vertex -12.7896 -5.69431 17
      vertex -13.9316 -6.20273 17
      vertex -13.6941 -2.91076 17
    endloop
  endfacet
  facet normal 0 0 -1
    outer loop
      vertex -14.9168 -3.17065 17
      vertex -13.6941 -2.91076 17
      vertex -13.9316 -6.20273 17
    endloop
  endfacet
  facet normal 0 -0 -1
    outer loop
      vertex -14 -0.738393 17
      vertex -13.6941 -2.91076 17
      vertex -14.9168 -3.17065 17
    endloop
  endfacet
  facet normal 0 0 -1
    outer loop
      vertex -15.25 0 17
      vertex -14 -0.738393 17
      vertex -14.9168 -3.17065 17
    endloop
  endfacet
  facet normal 0 0 -1
    outer loop
      vertex -13.6941 -2.91076 17
      vertex -14 -0.738393 17
      vertex -13.9224 -0.738393 17
    endloop
  endfacet
  facet normal 0 0 -1
    outer loop
      vertex 13.6941 2.91076 17
      vertex 14.9168 3.17065 17
      vertex 14 0 17
    endloop
  endfacet
  facet normal -0 0 -1
    outer loop
      vertex 14.9168 3.17065 17
      vertex 13.6941 2.91076 17
      vertex 13.9316 6.20273 17
    endloop
  endfacet
  facet normal 0 0 -1
    outer loop
      vertex 12.7896 5.69431 17
      vertex 13.9316 6.20273 17
      vertex 13.6941 2.91076 17
    endloop
  endfacet
  facet normal 0 0 -1
    outer loop
      vertex 12.7896 5.69431 17
      vertex 12.3375 8.96373 17
      vertex 13.9316 6.20273 17
    endloop
  endfacet
  facet normal 0 0 -1
    outer loop
      vertex 11.3262 8.22899 17
      vertex 12.3375 8.96373 17
      vertex 12.7896 5.69431 17
    endloop
  endfacet
  facet normal 0 0 -1
    outer loop
      vertex 11.3262 8.22899 17
      vertex 10.2042 11.333 17
      vertex 12.3375 8.96373 17
    endloop
  endfacet
  facet normal 0 0 -1
    outer loop
      vertex 9.36783 10.404 17
      vertex 10.2042 11.333 17
      vertex 11.3262 8.22899 17
    endloop
  endfacet
  facet normal 0 0 -1
    outer loop
      vertex 9.36783 10.404 17
      vertex 7.625 13.2069 17
      vertex 10.2042 11.333 17
    endloop
  endfacet
  facet normal 0 0 -1
    outer loop
      vertex 7 12.1244 17
      vertex 7.625 13.2069 17
      vertex 9.36783 10.404 17
    endloop
  endfacet
  facet normal 0 0 -1
    outer loop
      vertex 7 12.1244 17
      vertex 4.71251 14.5036 17
      vertex 7.625 13.2069 17
    endloop
  endfacet
  facet normal 0 0 -1
    outer loop
      vertex 4.32624 13.3148 17
      vertex 4.71251 14.5036 17
      vertex 7 12.1244 17
    endloop
  endfacet
  facet normal 0 0 -1
    outer loop
      vertex 4.32624 13.3148 17
      vertex 1.59406 15.1665 17
      vertex 4.71251 14.5036 17
    endloop
  endfacet
  facet normal 0 0 -1
    outer loop
      vertex 1.4634 13.9233 17
      vertex 1.59406 15.1665 17
      vertex 4.32624 13.3148 17
    endloop
  endfacet
  facet normal 0 0 -1
    outer loop
      vertex -1.4634 13.9233 17
      vertex 1.59406 15.1665 17
      vertex 1.4634 13.9233 17
    endloop
  endfacet
  facet normal 0 0 -1
    outer loop
      vertex -1.4634 13.9233 17
      vertex -1.59406 15.1665 17
      vertex 1.59406 15.1665 17
    endloop
  endfacet
  facet normal 0 0 -1
    outer loop
      vertex -4.32624 13.3148 17
      vertex -1.59406 15.1665 17
      vertex -1.4634 13.9233 17
    endloop
  endfacet
  facet normal 0 0 -1
    outer loop
      vertex -4.32624 13.3148 17
      vertex -4.71251 14.5036 17
      vertex -1.59406 15.1665 17
    endloop
  endfacet
  facet normal 0 0 -1
    outer loop
      vertex -7 12.1244 17
      vertex -4.71251 14.5036 17
      vertex -4.32624 13.3148 17
    endloop
  endfacet
  facet normal 0 0 -1
    outer loop
      vertex -7 12.1244 17
      vertex -7.625 13.2069 17
      vertex -4.71251 14.5036 17
    endloop
  endfacet
  facet normal 0 0 -1
    outer loop
      vertex -9.36783 10.404 17
      vertex -7.625 13.2069 17
      vertex -7 12.1244 17
    endloop
  endfacet
  facet normal 0 0 -1
    outer loop
      vertex -9.36783 10.404 17
      vertex -10.2042 11.333 17
      vertex -7.625 13.2069 17
    endloop
  endfacet
  facet normal 0 0 -1
    outer loop
      vertex -11.3262 8.22899 17
      vertex -10.2042 11.333 17
      vertex -9.36783 10.404 17
    endloop
  endfacet
  facet normal 0 0 -1
    outer loop
      vertex -11.3262 8.22899 17
      vertex -12.3375 8.96373 17
      vertex -10.2042 11.333 17
    endloop
  endfacet
  facet normal 0 0 -1
    outer loop
      vertex -12.7896 5.69431 17
      vertex -12.3375 8.96373 17
      vertex -11.3262 8.22899 17
    endloop
  endfacet
  facet normal 0 0 -1
    outer loop
      vertex -13.9316 6.20273 17
      vertex -12.7896 5.69431 17
      vertex -13.6941 2.91076 17
    endloop
  endfacet
  facet normal 0 0 -1
    outer loop
      vertex -12.7896 5.69431 17
      vertex -13.9316 6.20273 17
      vertex -12.3375 8.96373 17
    endloop
  endfacet
  facet normal 0 0 -1
    outer loop
      vertex -14 0.738393 17
      vertex -13.6941 2.91076 17
      vertex -13.9224 0.738393 17
    endloop
  endfacet
  facet normal -0 0 -1
    outer loop
      vertex -13.6941 2.91076 17
      vertex -14 0.738393 17
      vertex -14.9168 3.17065 17
    endloop
  endfacet
  facet normal 0 0 -1
    outer loop
      vertex -14 -0.738393 17
      vertex -15.25 0 17
      vertex -14 0.738393 17
    endloop
  endfacet
  facet normal 0 0 -1
    outer loop
      vertex -13.6941 2.91076 17
      vertex -14.9168 3.17065 17
      vertex -13.9316 6.20273 17
    endloop
  endfacet
  facet normal -0 0 -1
    outer loop
      vertex -14 0.738393 17
      vertex -15.25 0 17
      vertex -14.9168 3.17065 17
    endloop
  endfacet
  facet normal 0.587785 -0.809017 0
    outer loop
      vertex 7.625 -13.2069 17
      vertex 10.2042 -11.333 21
      vertex 7.625 -13.2069 21
    endloop
  endfacet
  facet normal 0.587785 -0.809017 0
    outer loop
      vertex 10.2042 -11.333 21
      vertex 7.625 -13.2069 17
      vertex 10.2042 -11.333 17
    endloop
  endfacet
  facet normal 0.406737 -0.913545 0
    outer loop
      vertex 4.71251 -14.5036 17
      vertex 7.625 -13.2069 21
      vertex 4.71251 -14.5036 21
    endloop
  endfacet
  facet normal 0.406737 -0.913545 0
    outer loop
      vertex 7.625 -13.2069 21
      vertex 4.71251 -14.5036 17
      vertex 7.625 -13.2069 17
    endloop
  endfacet
  facet normal -0.207912 -0.978148 0
    outer loop
      vertex -4.71251 -14.5036 17
      vertex -1.59406 -15.1665 21
      vertex -4.71251 -14.5036 21
    endloop
  endfacet
  facet normal -0.207912 -0.978148 -0
    outer loop
      vertex -1.59406 -15.1665 21
      vertex -4.71251 -14.5036 17
      vertex -1.59406 -15.1665 17
    endloop
  endfacet
  facet normal -0.743145 -0.669131 0
    outer loop
      vertex -10.2042 -11.333 17
      vertex -12.3375 -8.96373 21
      vertex -12.3375 -8.96373 17
    endloop
  endfacet
  facet normal -0.743145 -0.669131 0
    outer loop
      vertex -12.3375 -8.96373 21
      vertex -10.2042 -11.333 17
      vertex -10.2042 -11.333 21
    endloop
  endfacet
  facet normal -0.866025 -0.5 0
    outer loop
      vertex -12.3375 -8.96373 17
      vertex -13.9316 -6.20273 21
      vertex -13.9316 -6.20273 17
    endloop
  endfacet
  facet normal -0.866025 -0.5 0
    outer loop
      vertex -13.9316 -6.20273 21
      vertex -12.3375 -8.96373 17
      vertex -12.3375 -8.96373 21
    endloop
  endfacet
  facet normal -0.951057 -0.309017 0
    outer loop
      vertex -13.9316 -6.20273 17
      vertex -14.9168 -3.17065 21
      vertex -14.9168 -3.17065 17
    endloop
  endfacet
  facet normal -0.951057 -0.309017 0
    outer loop
      vertex -14.9168 -3.17065 21
      vertex -13.9316 -6.20273 17
      vertex -13.9316 -6.20273 21
    endloop
  endfacet
  facet normal -0.994522 -0.104528 0
    outer loop
      vertex -14.9168 -3.17065 17
      vertex -15.25 0 21
      vertex -15.25 0 17
    endloop
  endfacet
  facet normal -0.994522 -0.104528 0
    outer loop
      vertex -15.25 0 21
      vertex -14.9168 -3.17065 17
      vertex -14.9168 -3.17065 21
    endloop
  endfacet
  facet normal 0.743145 -0.669131 0
    outer loop
      vertex 10.2042 -11.333 21
      vertex 12.3375 -8.96373 17
      vertex 12.3375 -8.96373 21
    endloop
  endfacet
  facet normal 0.743145 -0.669131 0
    outer loop
      vertex 12.3375 -8.96373 17
      vertex 10.2042 -11.333 21
      vertex 10.2042 -11.333 17
    endloop
  endfacet
  facet normal -0.406737 -0.913545 0
    outer loop
      vertex -7.625 -13.2069 17
      vertex -4.71251 -14.5036 21
      vertex -7.625 -13.2069 21
    endloop
  endfacet
  facet normal -0.406737 -0.913545 -0
    outer loop
      vertex -4.71251 -14.5036 21
      vertex -7.625 -13.2069 17
      vertex -4.71251 -14.5036 17
    endloop
  endfacet
  facet normal -0.587785 -0.809017 0
    outer loop
      vertex -10.2042 -11.333 17
      vertex -7.625 -13.2069 21
      vertex -10.2042 -11.333 21
    endloop
  endfacet
  facet normal -0.587785 -0.809017 -0
    outer loop
      vertex -7.625 -13.2069 21
      vertex -10.2042 -11.333 17
      vertex -7.625 -13.2069 17
    endloop
  endfacet
  facet normal 0.994522 0.104528 0
    outer loop
      vertex 15.25 0 15
      vertex 14.9168 3.17065 11
      vertex 14.9168 3.17065 15
    endloop
  endfacet
  facet normal 0.994522 0.104528 0
    outer loop
      vertex 14.9168 3.17065 11
      vertex 15.25 0 15
      vertex 15.25 0 11
    endloop
  endfacet
  facet normal -0.994522 0.104528 0
    outer loop
      vertex -15.25 0 11
      vertex -14.9168 3.17065 15
      vertex -14.9168 3.17065 11
    endloop
  endfacet
  facet normal -0.994522 0.104528 0
    outer loop
      vertex -14.9168 3.17065 15
      vertex -15.25 0 11
      vertex -15.25 0 15
    endloop
  endfacet
  facet normal 0 1 -0
    outer loop
      vertex 1.59406 15.1665 11
      vertex -1.59406 15.1665 15
      vertex 1.59406 15.1665 15
    endloop
  endfacet
  facet normal 0 1 0
    outer loop
      vertex -1.59406 15.1665 15
      vertex 1.59406 15.1665 11
      vertex -1.59406 15.1665 11
    endloop
  endfacet
  facet normal 0 -1 0
    outer loop
      vertex -1.59406 -15.1665 11
      vertex 1.59406 -15.1665 15
      vertex -1.59406 -15.1665 15
    endloop
  endfacet
  facet normal 0 -1 -0
    outer loop
      vertex 1.59406 -15.1665 15
      vertex -1.59406 -15.1665 11
      vertex 1.59406 -15.1665 11
    endloop
  endfacet
  facet normal 0.587785 0.809017 -0
    outer loop
      vertex 10.2042 11.333 11
      vertex 7.625 13.2069 15
      vertex 10.2042 11.333 15
    endloop
  endfacet
  facet normal 0.587785 0.809017 0
    outer loop
      vertex 7.625 13.2069 15
      vertex 10.2042 11.333 11
      vertex 7.625 13.2069 11
    endloop
  endfacet
  facet normal 0.406737 0.913545 -0
    outer loop
      vertex 7.625 13.2069 11
      vertex 4.71251 14.5036 15
      vertex 7.625 13.2069 15
    endloop
  endfacet
  facet normal 0.406737 0.913545 0
    outer loop
      vertex 4.71251 14.5036 15
      vertex 7.625 13.2069 11
      vertex 4.71251 14.5036 11
    endloop
  endfacet
  facet normal -0.743145 0.669131 0
    outer loop
      vertex -12.3375 8.96373 11
      vertex -10.2042 11.333 15
      vertex -10.2042 11.333 11
    endloop
  endfacet
  facet normal -0.743145 0.669131 0
    outer loop
      vertex -10.2042 11.333 15
      vertex -12.3375 8.96373 11
      vertex -12.3375 8.96373 15
    endloop
  endfacet
  facet normal 0 0 1
    outer loop
      vertex 14 0 15
      vertex 15.25 0 15
      vertex 14.9168 3.17065 15
    endloop
  endfacet
  facet normal 0 0 1
    outer loop
      vertex 15.25 0 15
      vertex 14 0 15
      vertex 14.9168 -3.17065 15
    endloop
  endfacet
  facet normal 0 0 1
    outer loop
      vertex 13.6941 2.91076 15
      vertex 14.9168 3.17065 15
      vertex 13.9316 6.20273 15
    endloop
  endfacet
  facet normal 0 0 1
    outer loop
      vertex 14.9168 3.17065 15
      vertex 13.6941 2.91076 15
      vertex 14 0 15
    endloop
  endfacet
  facet normal 0 0 1
    outer loop
      vertex 13.9316 6.20273 15
      vertex 12.7896 5.69431 15
      vertex 13.6941 2.91076 15
    endloop
  endfacet
  facet normal 0 0 1
    outer loop
      vertex 12.3375 8.96373 15
      vertex 12.7896 5.69431 15
      vertex 13.9316 6.20273 15
    endloop
  endfacet
  facet normal 0 0 1
    outer loop
      vertex 12.3375 8.96373 15
      vertex 11.3262 8.22899 15
      vertex 12.7896 5.69431 15
    endloop
  endfacet
  facet normal 0 0 1
    outer loop
      vertex 10.2042 11.333 15
      vertex 11.3262 8.22899 15
      vertex 12.3375 8.96373 15
    endloop
  endfacet
  facet normal 0 0 1
    outer loop
      vertex 10.2042 11.333 15
      vertex 9.36783 10.404 15
      vertex 11.3262 8.22899 15
    endloop
  endfacet
  facet normal 0 0 1
    outer loop
      vertex 7.625 13.2069 15
      vertex 9.36783 10.404 15
      vertex 10.2042 11.333 15
    endloop
  endfacet
  facet normal 0 0 1
    outer loop
      vertex 7.625 13.2069 15
      vertex 7 12.1244 15
      vertex 9.36783 10.404 15
    endloop
  endfacet
  facet normal 0 0 1
    outer loop
      vertex 4.71251 14.5036 15
      vertex 7 12.1244 15
      vertex 7.625 13.2069 15
    endloop
  endfacet
  facet normal 0 0 1
    outer loop
      vertex 4.71251 14.5036 15
      vertex 4.32624 13.3148 15
      vertex 7 12.1244 15
    endloop
  endfacet
  facet normal 0 0 1
    outer loop
      vertex 1.59406 15.1665 15
      vertex 4.32624 13.3148 15
      vertex 4.71251 14.5036 15
    endloop
  endfacet
  facet normal 0 0 1
    outer loop
      vertex 1.59406 15.1665 15
      vertex 1.4634 13.9233 15
      vertex 4.32624 13.3148 15
    endloop
  endfacet
  facet normal 0 0 1
    outer loop
      vertex 1.59406 15.1665 15
      vertex -1.4634 13.9233 15
      vertex 1.4634 13.9233 15
    endloop
  endfacet
  facet normal -0 0 1
    outer loop
      vertex -1.59406 15.1665 15
      vertex -1.4634 13.9233 15
      vertex 1.59406 15.1665 15
    endloop
  endfacet
  facet normal 0 0 1
    outer loop
      vertex -1.59406 15.1665 15
      vertex -4.32624 13.3148 15
      vertex -1.4634 13.9233 15
    endloop
  endfacet
  facet normal -0 0 1
    outer loop
      vertex -4.71251 14.5036 15
      vertex -4.32624 13.3148 15
      vertex -1.59406 15.1665 15
    endloop
  endfacet
  facet normal 0 0 1
    outer loop
      vertex -4.71251 14.5036 15
      vertex -7 12.1244 15
      vertex -4.32624 13.3148 15
    endloop
  endfacet
  facet normal -0 0 1
    outer loop
      vertex -7.625 13.2069 15
      vertex -7 12.1244 15
      vertex -4.71251 14.5036 15
    endloop
  endfacet
  facet normal 0 0 1
    outer loop
      vertex -7.625 13.2069 15
      vertex -9.36783 10.404 15
      vertex -7 12.1244 15
    endloop
  endfacet
  facet normal -0 0 1
    outer loop
      vertex -10.2042 11.333 15
      vertex -9.36783 10.404 15
      vertex -7.625 13.2069 15
    endloop
  endfacet
  facet normal 0 0 1
    outer loop
      vertex -10.2042 11.333 15
      vertex -11.3262 8.22899 15
      vertex -9.36783 10.404 15
    endloop
  endfacet
  facet normal -0 0 1
    outer loop
      vertex -12.3375 8.96373 15
      vertex -11.3262 8.22899 15
      vertex -10.2042 11.333 15
    endloop
  endfacet
  facet normal 0 0 1
    outer loop
      vertex -12.3375 8.96373 15
      vertex -12.7896 5.69431 15
      vertex -11.3262 8.22899 15
    endloop
  endfacet
  facet normal -0 0 1
    outer loop
      vertex -13.9316 6.20273 15
      vertex -12.7896 5.69431 15
      vertex -12.3375 8.96373 15
    endloop
  endfacet
  facet normal 0 0 1
    outer loop
      vertex -12.7896 5.69431 15
      vertex -13.9316 6.20273 15
      vertex -13.6941 2.91076 15
    endloop
  endfacet
  facet normal -0 0 1
    outer loop
      vertex -14.9168 3.17065 15
      vertex -13.6941 2.91076 15
      vertex -13.9316 6.20273 15
    endloop
  endfacet
  facet normal 0 -0 1
    outer loop
      vertex -14 0.344095 15
      vertex -13.6941 2.91076 15
      vertex -14.9168 3.17065 15
    endloop
  endfacet
  facet normal 0 0 1
    outer loop
      vertex -15.25 0 15
      vertex -14 0.344095 15
      vertex -14.9168 3.17065 15
    endloop
  endfacet
  facet normal 0 0 1
    outer loop
      vertex -13.6941 2.91076 15
      vertex -14 0.344095 15
      vertex -13.9638 0.344095 15
    endloop
  endfacet
  facet normal -0 0 1
    outer loop
      vertex 13.6941 -2.91076 15
      vertex 14.9168 -3.17065 15
      vertex 14 0 15
    endloop
  endfacet
  facet normal 0 0 1
    outer loop
      vertex 14.9168 -3.17065 15
      vertex 13.6941 -2.91076 15
      vertex 13.9316 -6.20273 15
    endloop
  endfacet
  facet normal -0 0 1
    outer loop
      vertex 12.7896 -5.69431 15
      vertex 13.9316 -6.20273 15
      vertex 13.6941 -2.91076 15
    endloop
  endfacet
  facet normal 0 0 1
    outer loop
      vertex 12.7896 -5.69431 15
      vertex 12.3375 -8.96373 15
      vertex 13.9316 -6.20273 15
    endloop
  endfacet
  facet normal -0 0 1
    outer loop
      vertex 11.3262 -8.22899 15
      vertex 12.3375 -8.96373 15
      vertex 12.7896 -5.69431 15
    endloop
  endfacet
  facet normal 0 0 1
    outer loop
      vertex 11.3262 -8.22899 15
      vertex 10.2042 -11.333 15
      vertex 12.3375 -8.96373 15
    endloop
  endfacet
  facet normal -0 0 1
    outer loop
      vertex 9.36783 -10.404 15
      vertex 10.2042 -11.333 15
      vertex 11.3262 -8.22899 15
    endloop
  endfacet
  facet normal 0 0 1
    outer loop
      vertex 9.36783 -10.404 15
      vertex 7.625 -13.2069 15
      vertex 10.2042 -11.333 15
    endloop
  endfacet
  facet normal -0 0 1
    outer loop
      vertex 7 -12.1244 15
      vertex 7.625 -13.2069 15
      vertex 9.36783 -10.404 15
    endloop
  endfacet
  facet normal 0 0 1
    outer loop
      vertex 7 -12.1244 15
      vertex 4.71251 -14.5036 15
      vertex 7.625 -13.2069 15
    endloop
  endfacet
  facet normal -0 0 1
    outer loop
      vertex 4.32624 -13.3148 15
      vertex 4.71251 -14.5036 15
      vertex 7 -12.1244 15
    endloop
  endfacet
  facet normal 0 0 1
    outer loop
      vertex 4.32624 -13.3148 15
      vertex 1.59406 -15.1665 15
      vertex 4.71251 -14.5036 15
    endloop
  endfacet
  facet normal -0 0 1
    outer loop
      vertex 1.4634 -13.9233 15
      vertex 1.59406 -15.1665 15
      vertex 4.32624 -13.3148 15
    endloop
  endfacet
  facet normal -0 0 1
    outer loop
      vertex -1.4634 -13.9233 15
      vertex 1.59406 -15.1665 15
      vertex 1.4634 -13.9233 15
    endloop
  endfacet
  facet normal 0 0 1
    outer loop
      vertex -1.4634 -13.9233 15
      vertex -1.59406 -15.1665 15
      vertex 1.59406 -15.1665 15
    endloop
  endfacet
  facet normal 0 0 1
    outer loop
      vertex -4.32624 -13.3148 15
      vertex -1.59406 -15.1665 15
      vertex -1.4634 -13.9233 15
    endloop
  endfacet
  facet normal 0 0 1
    outer loop
      vertex -4.32624 -13.3148 15
      vertex -4.71251 -14.5036 15
      vertex -1.59406 -15.1665 15
    endloop
  endfacet
  facet normal 0 0 1
    outer loop
      vertex -7 -12.1244 15
      vertex -4.71251 -14.5036 15
      vertex -4.32624 -13.3148 15
    endloop
  endfacet
  facet normal 0 0 1
    outer loop
      vertex -7 -12.1244 15
      vertex -7.625 -13.2069 15
      vertex -4.71251 -14.5036 15
    endloop
  endfacet
  facet normal 0 0 1
    outer loop
      vertex -9.36783 -10.404 15
      vertex -7.625 -13.2069 15
      vertex -7 -12.1244 15
    endloop
  endfacet
  facet normal 0 0 1
    outer loop
      vertex -9.36783 -10.404 15
      vertex -10.2042 -11.333 15
      vertex -7.625 -13.2069 15
    endloop
  endfacet
  facet normal 0 0 1
    outer loop
      vertex -11.3262 -8.22899 15
      vertex -10.2042 -11.333 15
      vertex -9.36783 -10.404 15
    endloop
  endfacet
  facet normal 0 0 1
    outer loop
      vertex -11.3262 -8.22899 15
      vertex -12.3375 -8.96373 15
      vertex -10.2042 -11.333 15
    endloop
  endfacet
  facet normal 0 0 1
    outer loop
      vertex -12.7896 -5.69431 15
      vertex -12.3375 -8.96373 15
      vertex -11.3262 -8.22899 15
    endloop
  endfacet
  facet normal 0 0 1
    outer loop
      vertex -13.9316 -6.20273 15
      vertex -12.7896 -5.69431 15
      vertex -13.6941 -2.91076 15
    endloop
  endfacet
  facet normal 0 0 1
    outer loop
      vertex -12.7896 -5.69431 15
      vertex -13.9316 -6.20273 15
      vertex -12.3375 -8.96373 15
    endloop
  endfacet
  facet normal -0 0 1
    outer loop
      vertex -14 -0.344095 15
      vertex -13.6941 -2.91076 15
      vertex -13.9638 -0.344095 15
    endloop
  endfacet
  facet normal 0 0 1
    outer loop
      vertex -13.6941 -2.91076 15
      vertex -14 -0.344095 15
      vertex -14.9168 -3.17065 15
    endloop
  endfacet
  facet normal 0 0 1
    outer loop
      vertex -14 0.344095 15
      vertex -15.25 0 15
      vertex -14 -0.344095 15
    endloop
  endfacet
  facet normal 0 0 1
    outer loop
      vertex -13.6941 -2.91076 15
      vertex -14.9168 -3.17065 15
      vertex -13.9316 -6.20273 15
    endloop
  endfacet
  facet normal 0 0 1
    outer loop
      vertex -14 -0.344095 15
      vertex -15.25 0 15
      vertex -14.9168 -3.17065 15
    endloop
  endfacet
  facet normal -0.406737 0.913545 0
    outer loop
      vertex -4.71251 14.5036 11
      vertex -7.625 13.2069 15
      vertex -4.71251 14.5036 15
    endloop
  endfacet
  facet normal -0.406737 0.913545 0
    outer loop
      vertex -7.625 13.2069 15
      vertex -4.71251 14.5036 11
      vertex -7.625 13.2069 11
    endloop
  endfacet
  facet normal 0.866025 0.5 0
    outer loop
      vertex 13.9316 6.20273 15
      vertex 12.3375 8.96373 11
      vertex 12.3375 8.96373 15
    endloop
  endfacet
  facet normal 0.866025 0.5 0
    outer loop
      vertex 12.3375 8.96373 11
      vertex 13.9316 6.20273 15
      vertex 13.9316 6.20273 11
    endloop
  endfacet
  facet normal 0.951057 0.309017 0
    outer loop
      vertex 14.9168 3.17065 15
      vertex 13.9316 6.20273 11
      vertex 13.9316 6.20273 15
    endloop
  endfacet
  facet normal 0.951057 0.309017 0
    outer loop
      vertex 13.9316 6.20273 11
      vertex 14.9168 3.17065 15
      vertex 14.9168 3.17065 11
    endloop
  endfacet
  facet normal 0.743145 0.669131 0
    outer loop
      vertex 12.3375 8.96373 15
      vertex 10.2042 11.333 11
      vertex 10.2042 11.333 15
    endloop
  endfacet
  facet normal 0.743145 0.669131 0
    outer loop
      vertex 10.2042 11.333 11
      vertex 12.3375 8.96373 15
      vertex 12.3375 8.96373 11
    endloop
  endfacet
  facet normal 0.207912 0.978148 -0
    outer loop
      vertex 4.71251 14.5036 11
      vertex 1.59406 15.1665 15
      vertex 4.71251 14.5036 15
    endloop
  endfacet
  facet normal 0.207912 0.978148 0
    outer loop
      vertex 1.59406 15.1665 15
      vertex 4.71251 14.5036 11
      vertex 1.59406 15.1665 11
    endloop
  endfacet
  facet normal -0.866025 0.5 0
    outer loop
      vertex -13.9316 6.20273 11
      vertex -12.3375 8.96373 15
      vertex -12.3375 8.96373 11
    endloop
  endfacet
  facet normal -0.866025 0.5 0
    outer loop
      vertex -12.3375 8.96373 15
      vertex -13.9316 6.20273 11
      vertex -13.9316 6.20273 15
    endloop
  endfacet
  facet normal -0.951057 0.309017 0
    outer loop
      vertex -14.9168 3.17065 11
      vertex -13.9316 6.20273 15
      vertex -13.9316 6.20273 11
    endloop
  endfacet
  facet normal -0.951057 0.309017 0
    outer loop
      vertex -13.9316 6.20273 15
      vertex -14.9168 3.17065 11
      vertex -14.9168 3.17065 15
    endloop
  endfacet
  facet normal -0.587785 0.809017 0
    outer loop
      vertex -7.625 13.2069 11
      vertex -10.2042 11.333 15
      vertex -7.625 13.2069 15
    endloop
  endfacet
  facet normal -0.587785 0.809017 0
    outer loop
      vertex -10.2042 11.333 15
      vertex -7.625 13.2069 11
      vertex -10.2042 11.333 11
    endloop
  endfacet
  facet normal -0.207912 0.978148 0
    outer loop
      vertex -1.59406 15.1665 11
      vertex -4.71251 14.5036 15
      vertex -1.59406 15.1665 15
    endloop
  endfacet
  facet normal -0.207912 0.978148 0
    outer loop
      vertex -4.71251 14.5036 15
      vertex -1.59406 15.1665 11
      vertex -4.71251 14.5036 11
    endloop
  endfacet
  facet normal 0.994522 -0.104528 0
    outer loop
      vertex 14.9168 -3.17065 15
      vertex 15.25 0 11
      vertex 15.25 0 15
    endloop
  endfacet
  facet normal 0.994522 -0.104528 0
    outer loop
      vertex 15.25 0 11
      vertex 14.9168 -3.17065 15
      vertex 14.9168 -3.17065 11
    endloop
  endfacet
  facet normal 0.207912 -0.978148 0
    outer loop
      vertex 1.59406 -15.1665 11
      vertex 4.71251 -14.5036 15
      vertex 1.59406 -15.1665 15
    endloop
  endfacet
  facet normal 0.207912 -0.978148 0
    outer loop
      vertex 4.71251 -14.5036 15
      vertex 1.59406 -15.1665 11
      vertex 4.71251 -14.5036 11
    endloop
  endfacet
  facet normal 0.743145 -0.669131 0
    outer loop
      vertex 10.2042 -11.333 15
      vertex 12.3375 -8.96373 11
      vertex 12.3375 -8.96373 15
    endloop
  endfacet
  facet normal 0.743145 -0.669131 0
    outer loop
      vertex 12.3375 -8.96373 11
      vertex 10.2042 -11.333 15
      vertex 10.2042 -11.333 11
    endloop
  endfacet
  facet normal 0.951057 -0.309017 0
    outer loop
      vertex 13.9316 -6.20273 15
      vertex 14.9168 -3.17065 11
      vertex 14.9168 -3.17065 15
    endloop
  endfacet
  facet normal 0.951057 -0.309017 0
    outer loop
      vertex 14.9168 -3.17065 11
      vertex 13.9316 -6.20273 15
      vertex 13.9316 -6.20273 11
    endloop
  endfacet
  facet normal 0.866025 -0.5 0
    outer loop
      vertex 12.3375 -8.96373 15
      vertex 13.9316 -6.20273 11
      vertex 13.9316 -6.20273 15
    endloop
  endfacet
  facet normal 0.866025 -0.5 0
    outer loop
      vertex 13.9316 -6.20273 11
      vertex 12.3375 -8.96373 15
      vertex 12.3375 -8.96373 11
    endloop
  endfacet
  facet normal -0.866025 -0.5 0
    outer loop
      vertex -12.3375 -8.96373 11
      vertex -13.9316 -6.20273 15
      vertex -13.9316 -6.20273 11
    endloop
  endfacet
  facet normal -0.866025 -0.5 0
    outer loop
      vertex -13.9316 -6.20273 15
      vertex -12.3375 -8.96373 11
      vertex -12.3375 -8.96373 15
    endloop
  endfacet
  facet normal 0.587785 -0.809017 0
    outer loop
      vertex 7.625 -13.2069 11
      vertex 10.2042 -11.333 15
      vertex 7.625 -13.2069 15
    endloop
  endfacet
  facet normal 0.587785 -0.809017 0
    outer loop
      vertex 10.2042 -11.333 15
      vertex 7.625 -13.2069 11
      vertex 10.2042 -11.333 11
    endloop
  endfacet
  facet normal 0.406737 -0.913545 0
    outer loop
      vertex 4.71251 -14.5036 11
      vertex 7.625 -13.2069 15
      vertex 4.71251 -14.5036 15
    endloop
  endfacet
  facet normal 0.406737 -0.913545 0
    outer loop
      vertex 7.625 -13.2069 15
      vertex 4.71251 -14.5036 11
      vertex 7.625 -13.2069 11
    endloop
  endfacet
  facet normal -0.207912 -0.978148 0
    outer loop
      vertex -4.71251 -14.5036 11
      vertex -1.59406 -15.1665 15
      vertex -4.71251 -14.5036 15
    endloop
  endfacet
  facet normal -0.207912 -0.978148 -0
    outer loop
      vertex -1.59406 -15.1665 15
      vertex -4.71251 -14.5036 11
      vertex -1.59406 -15.1665 11
    endloop
  endfacet
  facet normal -0.406737 -0.913545 0
    outer loop
      vertex -7.625 -13.2069 11
      vertex -4.71251 -14.5036 15
      vertex -7.625 -13.2069 15
    endloop
  endfacet
  facet normal -0.406737 -0.913545 -0
    outer loop
      vertex -4.71251 -14.5036 15
      vertex -7.625 -13.2069 11
      vertex -4.71251 -14.5036 11
    endloop
  endfacet
  facet normal -0.743145 -0.669131 0
    outer loop
      vertex -10.2042 -11.333 11
      vertex -12.3375 -8.96373 15
      vertex -12.3375 -8.96373 11
    endloop
  endfacet
  facet normal -0.743145 -0.669131 0
    outer loop
      vertex -12.3375 -8.96373 15
      vertex -10.2042 -11.333 11
      vertex -10.2042 -11.333 15
    endloop
  endfacet
  facet normal -0.951057 -0.309017 0
    outer loop
      vertex -13.9316 -6.20273 11
      vertex -14.9168 -3.17065 15
      vertex -14.9168 -3.17065 11
    endloop
  endfacet
  facet normal -0.951057 -0.309017 0
    outer loop
      vertex -14.9168 -3.17065 15
      vertex -13.9316 -6.20273 11
      vertex -13.9316 -6.20273 15
    endloop
  endfacet
  facet normal -0.994522 -0.104528 0
    outer loop
      vertex -14.9168 -3.17065 11
      vertex -15.25 0 15
      vertex -15.25 0 11
    endloop
  endfacet
  facet normal -0.994522 -0.104528 0
    outer loop
      vertex -15.25 0 15
      vertex -14.9168 -3.17065 11
      vertex -14.9168 -3.17065 15
    endloop
  endfacet
  facet normal -0.587785 -0.809017 0
    outer loop
      vertex -10.2042 -11.333 11
      vertex -7.625 -13.2069 15
      vertex -10.2042 -11.333 15
    endloop
  endfacet
  facet normal -0.587785 -0.809017 -0
    outer loop
      vertex -7.625 -13.2069 15
      vertex -10.2042 -11.333 11
      vertex -7.625 -13.2069 11
    endloop
  endfacet
  facet normal 0 -0.587785 0.809017
    outer loop
      vertex -13.875 1.18882 15.6137
      vertex -6 0 14.75
      vertex -6 1.18882 15.6137
    endloop
  endfacet
  facet normal 4.06276e-010 -0.587785 0.809017
    outer loop
      vertex -13.9638 0.344095 15
      vertex -6 0 14.75
      vertex -13.875 1.18882 15.6137
    endloop
  endfacet
  facet normal 0 -0.587785 0.809017
    outer loop
      vertex -14 0 14.75
      vertex -13.9638 0.344095 15
      vertex -14 0.344095 15
    endloop
  endfacet
  facet normal 0 -0.587785 0.809017
    outer loop
      vertex -13.9638 0.344095 15
      vertex -14 0 14.75
      vertex -6 0 14.75
    endloop
  endfacet
  facet normal 0 0 -1
    outer loop
      vertex -14 -0.734731 17.0113
      vertex -6 0.734731 17.0113
      vertex -6 -0.734731 17.0113
    endloop
  endfacet
  facet normal -0 0 -1
    outer loop
      vertex -6 0.734731 17.0113
      vertex -14 -0.734731 17.0113
      vertex -14 0.734731 17.0113
    endloop
  endfacet
  facet normal -0 -0.951057 -0.309015
    outer loop
      vertex -13.9224 0.738393 17
      vertex -14 0.734731 17.0113
      vertex -14 0.738393 17
    endloop
  endfacet
  facet normal 0 -0.951057 -0.309015
    outer loop
      vertex -14 0.734731 17.0113
      vertex -13.9224 0.738393 17
      vertex -6 0.734731 17.0113
    endloop
  endfacet
  facet normal 3.23406e-009 -0.951056 -0.309017
    outer loop
      vertex -13.875 1.18882 15.6137
      vertex -6 0.734731 17.0113
      vertex -13.9224 0.738393 17
    endloop
  endfacet
  facet normal 0 -0.951056 -0.309017
    outer loop
      vertex -6 0.734731 17.0113
      vertex -13.875 1.18882 15.6137
      vertex -6 1.18882 15.6137
    endloop
  endfacet
  facet normal -1 0 0
    outer loop
      vertex -6 0 14.75
      vertex -6 0.734731 17.0113
      vertex -6 1.18882 15.6137
    endloop
  endfacet
  facet normal -1 0 0
    outer loop
      vertex -6 0 14.75
      vertex -6 -0.734731 17.0113
      vertex -6 0.734731 17.0113
    endloop
  endfacet
  facet normal -1 0 -0
    outer loop
      vertex -6 -0.734731 17.0113
      vertex -6 0 14.75
      vertex -6 -1.18882 15.6137
    endloop
  endfacet
  facet normal 0 0.951057 -0.309015
    outer loop
      vertex -6 -0.734731 17.0113
      vertex -13.9224 -0.738393 17
      vertex -14 -0.734731 17.0113
    endloop
  endfacet
  facet normal 0 0.951056 -0.309017
    outer loop
      vertex -13.875 -1.18882 15.6137
      vertex -6 -0.734731 17.0113
      vertex -6 -1.18882 15.6137
    endloop
  endfacet
  facet normal 3.23406e-009 0.951056 -0.309017
    outer loop
      vertex -6 -0.734731 17.0113
      vertex -13.875 -1.18882 15.6137
      vertex -13.9224 -0.738393 17
    endloop
  endfacet
  facet normal 0 0.951057 -0.309015
    outer loop
      vertex -14 -0.734731 17.0113
      vertex -13.9224 -0.738393 17
      vertex -14 -0.738393 17
    endloop
  endfacet
  facet normal 1 -0 0
    outer loop
      vertex -14 -0.734731 17.0113
      vertex -14 0.738393 17
      vertex -14 0.734731 17.0113
    endloop
  endfacet
  facet normal 1 0 0
    outer loop
      vertex -14 0.738393 17
      vertex -14 -0.734731 17.0113
      vertex -14 -0.738393 17
    endloop
  endfacet
  facet normal 1 0 -0
    outer loop
      vertex -14 0 14.75
      vertex -14 0.344095 15
      vertex -14 -0.344095 15
    endloop
  endfacet
  facet normal 0 0.587785 0.809017
    outer loop
      vertex -6 0 14.75
      vertex -13.875 -1.18882 15.6137
      vertex -6 -1.18882 15.6137
    endloop
  endfacet
  facet normal 4.06276e-010 0.587785 0.809017
    outer loop
      vertex -6 0 14.75
      vertex -13.9638 -0.344095 15
      vertex -13.875 -1.18882 15.6137
    endloop
  endfacet
  facet normal -0 0.587785 0.809017
    outer loop
      vertex -14 0 14.75
      vertex -13.9638 -0.344095 15
      vertex -6 0 14.75
    endloop
  endfacet
  facet normal 0 0.587785 0.809017
    outer loop
      vertex -13.9638 -0.344095 15
      vertex -14 0 14.75
      vertex -14 -0.344095 15
    endloop
  endfacet
endsolid OpenSCAD_Model
