solid OpenSCAD_Model
  facet normal 0.866025 0.5 0
    outer loop
      vertex 25.5793 11.3886 8.5
      vertex 22.6525 16.458 0
      vertex 22.6525 16.458 8.5
    endloop
  endfacet
  facet normal 0.866025 0.5 0
    outer loop
      vertex 22.6525 16.458 0
      vertex 25.5793 11.3886 8.5
      vertex 25.5793 11.3886 0
    endloop
  endfacet
  facet normal 0.743145 0.66913 0
    outer loop
      vertex 22.6525 16.458 8.5
      vertex 18.7357 20.8081 0
      vertex 18.7357 20.8081 8.5
    endloop
  endfacet
  facet normal 0.743145 0.66913 0
    outer loop
      vertex 18.7357 20.8081 0
      vertex 22.6525 16.458 8.5
      vertex 22.6525 16.458 0
    endloop
  endfacet
  facet normal 0.406737 0.913545 -0
    outer loop
      vertex 14 24.2487 0
      vertex 8.65248 26.6296 8.5
      vertex 14 24.2487 8.5
    endloop
  endfacet
  facet normal 0.406737 0.913545 0
    outer loop
      vertex 8.65248 26.6296 8.5
      vertex 14 24.2487 0
      vertex 8.65248 26.6296 0
    endloop
  endfacet
  facet normal -0.207912 0.978148 0
    outer loop
      vertex -2.9268 27.8466 0
      vertex -8.65248 26.6296 8.5
      vertex -2.9268 27.8466 8.5
    endloop
  endfacet
  facet normal -0.207912 0.978148 0
    outer loop
      vertex -8.65248 26.6296 8.5
      vertex -2.9268 27.8466 0
      vertex -8.65248 26.6296 0
    endloop
  endfacet
  facet normal -0.866025 0.5 0
    outer loop
      vertex -25.5793 11.3886 0
      vertex -22.6525 16.458 8.5
      vertex -22.6525 16.458 0
    endloop
  endfacet
  facet normal -0.866025 0.5 0
    outer loop
      vertex -22.6525 16.458 8.5
      vertex -25.5793 11.3886 0
      vertex -25.5793 11.3886 8.5
    endloop
  endfacet
  facet normal 0.994522 -0.104528 0
    outer loop
      vertex 28 0 8.5
      vertex 27.8328 -1.59099 5.84099
      vertex 28 0 6.5
    endloop
  endfacet
  facet normal 0.994522 -0.104529 -2.01215e-007
    outer loop
      vertex 27.8328 -1.59099 5.84099
      vertex 27.3881 -5.82153 8.5
      vertex 27.7635 -2.25 4.25
    endloop
  endfacet
  facet normal 0.994522 -0.104529 3.19372e-007
    outer loop
      vertex 27.3881 -5.82153 8.5
      vertex 27.8328 -1.59099 5.84099
      vertex 28 0 8.5
    endloop
  endfacet
  facet normal 0.994522 -0.104528 0
    outer loop
      vertex 27.8328 -1.59099 2.65901
      vertex 28 0 0
      vertex 28 0 2
    endloop
  endfacet
  facet normal 0.994522 -0.104529 0
    outer loop
      vertex 27.3881 -5.82153 0
      vertex 27.7635 -2.25 4.25
      vertex 27.3881 -5.82153 8.5
    endloop
  endfacet
  facet normal 0.994522 -0.104529 2.01215e-007
    outer loop
      vertex 27.7635 -2.25 4.25
      vertex 27.3881 -5.82153 0
      vertex 27.8328 -1.59099 2.65901
    endloop
  endfacet
  facet normal 0.994522 -0.104529 -3.19372e-007
    outer loop
      vertex 27.8328 -1.59099 2.65901
      vertex 27.3881 -5.82153 0
      vertex 28 0 0
    endloop
  endfacet
  facet normal 0.951057 0.309017 0
    outer loop
      vertex 27.3881 5.82153 8.5
      vertex 25.5793 11.3886 0
      vertex 25.5793 11.3886 8.5
    endloop
  endfacet
  facet normal 0.951057 0.309017 0
    outer loop
      vertex 25.5793 11.3886 0
      vertex 27.3881 5.82153 8.5
      vertex 27.3881 5.82153 0
    endloop
  endfacet
  facet normal 0 1 -0
    outer loop
      vertex 2.9268 27.8466 0
      vertex -2.9268 27.8466 8.5
      vertex 2.9268 27.8466 8.5
    endloop
  endfacet
  facet normal 0 1 0
    outer loop
      vertex -2.9268 27.8466 8.5
      vertex 2.9268 27.8466 0
      vertex -2.9268 27.8466 0
    endloop
  endfacet
  facet normal 0.587785 0.809017 -0
    outer loop
      vertex 18.7357 20.8081 0
      vertex 14 24.2487 8.5
      vertex 18.7357 20.8081 8.5
    endloop
  endfacet
  facet normal 0.587785 0.809017 0
    outer loop
      vertex 14 24.2487 8.5
      vertex 18.7357 20.8081 0
      vertex 14 24.2487 0
    endloop
  endfacet
  facet normal -0.994522 0.104529 0
    outer loop
      vertex -27.3881 5.82153 0
      vertex -27.7635 2.25 4.25
      vertex -27.3881 5.82153 8.5
    endloop
  endfacet
  facet normal -0.994522 0.104529 2.01215e-007
    outer loop
      vertex -27.3881 5.82153 0
      vertex -27.8328 1.59099 2.65901
      vertex -27.7635 2.25 4.25
    endloop
  endfacet
  facet normal -0.994522 0.104529 -3.19372e-007
    outer loop
      vertex -28 0 0
      vertex -27.8328 1.59099 2.65901
      vertex -27.3881 5.82153 0
    endloop
  endfacet
  facet normal -0.994522 0.104528 0
    outer loop
      vertex -27.8328 1.59099 2.65901
      vertex -28 0 0
      vertex -28 0 2
    endloop
  endfacet
  facet normal -0.994522 0.104529 -2.01215e-007
    outer loop
      vertex -27.8328 1.59099 5.84099
      vertex -27.3881 5.82153 8.5
      vertex -27.7635 2.25 4.25
    endloop
  endfacet
  facet normal -0.994522 0.104528 0
    outer loop
      vertex -28 0 8.5
      vertex -27.8328 1.59099 5.84099
      vertex -28 0 6.5
    endloop
  endfacet
  facet normal -0.994522 0.104529 3.19372e-007
    outer loop
      vertex -27.8328 1.59099 5.84099
      vertex -28 0 8.5
      vertex -27.3881 5.82153 8.5
    endloop
  endfacet
  facet normal -0.743145 0.66913 0
    outer loop
      vertex -22.6525 16.458 0
      vertex -18.7357 20.8081 8.5
      vertex -18.7357 20.8081 0
    endloop
  endfacet
  facet normal -0.743145 0.66913 0
    outer loop
      vertex -18.7357 20.8081 8.5
      vertex -22.6525 16.458 0
      vertex -22.6525 16.458 8.5
    endloop
  endfacet
  facet normal -0.406737 0.913545 0
    outer loop
      vertex -8.65248 26.6296 0
      vertex -14 24.2487 8.5
      vertex -8.65248 26.6296 8.5
    endloop
  endfacet
  facet normal -0.406737 0.913545 0
    outer loop
      vertex -14 24.2487 8.5
      vertex -8.65248 26.6296 0
      vertex -14 24.2487 0
    endloop
  endfacet
  facet normal -0.587785 0.809017 0
    outer loop
      vertex -14 24.2487 0
      vertex -18.7357 20.8081 8.5
      vertex -14 24.2487 8.5
    endloop
  endfacet
  facet normal -0.587785 0.809017 0
    outer loop
      vertex -18.7357 20.8081 8.5
      vertex -14 24.2487 0
      vertex -18.7357 20.8081 0
    endloop
  endfacet
  facet normal 0.994522 0.104529 0
    outer loop
      vertex 27.3881 5.82153 8.5
      vertex 27.7635 2.25 4.25
      vertex 27.3881 5.82153 0
    endloop
  endfacet
  facet normal 0.994522 0.104529 -2.01215e-007
    outer loop
      vertex 27.3881 5.82153 8.5
      vertex 27.8328 1.59099 5.84099
      vertex 27.7635 2.25 4.25
    endloop
  endfacet
  facet normal 0.994522 0.104529 3.19372e-007
    outer loop
      vertex 28 0 8.5
      vertex 27.8328 1.59099 5.84099
      vertex 27.3881 5.82153 8.5
    endloop
  endfacet
  facet normal 0.994522 0.104528 0
    outer loop
      vertex 27.8328 1.59099 5.84099
      vertex 28 0 8.5
      vertex 28 0 6.5
    endloop
  endfacet
  facet normal 0.994522 0.104529 2.01215e-007
    outer loop
      vertex 27.8328 1.59099 2.65901
      vertex 27.3881 5.82153 0
      vertex 27.7635 2.25 4.25
    endloop
  endfacet
  facet normal 0.994522 0.104528 -0
    outer loop
      vertex 28 0 0
      vertex 27.8328 1.59099 2.65901
      vertex 28 0 2
    endloop
  endfacet
  facet normal 0.994522 0.104529 -3.19372e-007
    outer loop
      vertex 27.8328 1.59099 2.65901
      vertex 28 0 0
      vertex 27.3881 5.82153 0
    endloop
  endfacet
  facet normal 0.951057 -0.309017 0
    outer loop
      vertex 25.5793 -11.3886 8.5
      vertex 27.3881 -5.82153 0
      vertex 27.3881 -5.82153 8.5
    endloop
  endfacet
  facet normal 0.951057 -0.309017 0
    outer loop
      vertex 27.3881 -5.82153 0
      vertex 25.5793 -11.3886 8.5
      vertex 25.5793 -11.3886 0
    endloop
  endfacet
  facet normal -0.587785 -0.809017 0
    outer loop
      vertex -18.7357 -20.8081 0
      vertex -14 -24.2487 8.5
      vertex -18.7357 -20.8081 8.5
    endloop
  endfacet
  facet normal -0.587785 -0.809017 -0
    outer loop
      vertex -14 -24.2487 8.5
      vertex -18.7357 -20.8081 0
      vertex -14 -24.2487 0
    endloop
  endfacet
  facet normal -0.866025 -0.5 0
    outer loop
      vertex -22.6525 -16.458 0
      vertex -25.5793 -11.3886 8.5
      vertex -25.5793 -11.3886 0
    endloop
  endfacet
  facet normal -0.866025 -0.5 0
    outer loop
      vertex -25.5793 -11.3886 8.5
      vertex -22.6525 -16.458 0
      vertex -22.6525 -16.458 8.5
    endloop
  endfacet
  facet normal 0.587785 -0.809017 0
    outer loop
      vertex 14 -24.2487 0
      vertex 18.7357 -20.8081 8.5
      vertex 14 -24.2487 8.5
    endloop
  endfacet
  facet normal 0.587785 -0.809017 0
    outer loop
      vertex 18.7357 -20.8081 8.5
      vertex 14 -24.2487 0
      vertex 18.7357 -20.8081 0
    endloop
  endfacet
  facet normal 0.207912 0.978148 -0
    outer loop
      vertex 8.65248 26.6296 0
      vertex 2.9268 27.8466 8.5
      vertex 8.65248 26.6296 8.5
    endloop
  endfacet
  facet normal 0.207912 0.978148 0
    outer loop
      vertex 2.9268 27.8466 8.5
      vertex 8.65248 26.6296 0
      vertex 2.9268 27.8466 0
    endloop
  endfacet
  facet normal 0 0 1
    outer loop
      vertex 15.25 0 8.5
      vertex 28 0 8.5
      vertex 27.3881 5.82153 8.5
    endloop
  endfacet
  facet normal 0 0 1
    outer loop
      vertex 14.9168 3.17065 8.5
      vertex 27.3881 5.82153 8.5
      vertex 25.5793 11.3886 8.5
    endloop
  endfacet
  facet normal 0 0 1
    outer loop
      vertex 28 0 8.5
      vertex 15.25 0 8.5
      vertex 27.3881 -5.82153 8.5
    endloop
  endfacet
  facet normal 0 0 1
    outer loop
      vertex 13.9316 6.20273 8.5
      vertex 25.5793 11.3886 8.5
      vertex 22.6525 16.458 8.5
    endloop
  endfacet
  facet normal -0 0 1
    outer loop
      vertex 14.9168 -3.17065 8.5
      vertex 27.3881 -5.82153 8.5
      vertex 15.25 0 8.5
    endloop
  endfacet
  facet normal 0 0 1
    outer loop
      vertex 12.3375 8.96373 8.5
      vertex 22.6525 16.458 8.5
      vertex 18.7357 20.8081 8.5
    endloop
  endfacet
  facet normal 0 0 1
    outer loop
      vertex 27.3881 -5.82153 8.5
      vertex 14.9168 -3.17065 8.5
      vertex 25.5793 -11.3886 8.5
    endloop
  endfacet
  facet normal -0 0 1
    outer loop
      vertex 13.9316 -6.20273 8.5
      vertex 25.5793 -11.3886 8.5
      vertex 14.9168 -3.17065 8.5
    endloop
  endfacet
  facet normal 0 0 1
    outer loop
      vertex 27.3881 5.82153 8.5
      vertex 14.9168 3.17065 8.5
      vertex 15.25 0 8.5
    endloop
  endfacet
  facet normal 0 0 1
    outer loop
      vertex 10.2042 11.333 8.5
      vertex 18.7357 20.8081 8.5
      vertex 14 24.2487 8.5
    endloop
  endfacet
  facet normal 0 0 1
    outer loop
      vertex 25.5793 11.3886 8.5
      vertex 13.9316 6.20273 8.5
      vertex 14.9168 3.17065 8.5
    endloop
  endfacet
  facet normal 0 0 1
    outer loop
      vertex 22.6525 16.458 8.5
      vertex 12.3375 8.96373 8.5
      vertex 13.9316 6.20273 8.5
    endloop
  endfacet
  facet normal 0 0 1
    outer loop
      vertex 18.7357 20.8081 8.5
      vertex 10.2042 11.333 8.5
      vertex 12.3375 8.96373 8.5
    endloop
  endfacet
  facet normal 0 0 1
    outer loop
      vertex 7.625 13.2069 8.5
      vertex 14 24.2487 8.5
      vertex 8.65248 26.6296 8.5
    endloop
  endfacet
  facet normal 0 0 1
    outer loop
      vertex 14 24.2487 8.5
      vertex 7.625 13.2069 8.5
      vertex 10.2042 11.333 8.5
    endloop
  endfacet
  facet normal 0 0 1
    outer loop
      vertex 8.65248 26.6296 8.5
      vertex 4.71251 14.5036 8.5
      vertex 7.625 13.2069 8.5
    endloop
  endfacet
  facet normal 0 0 1
    outer loop
      vertex 2.9268 27.8466 8.5
      vertex 4.71251 14.5036 8.5
      vertex 8.65248 26.6296 8.5
    endloop
  endfacet
  facet normal 0 0 1
    outer loop
      vertex 2.9268 27.8466 8.5
      vertex 1.59406 15.1665 8.5
      vertex 4.71251 14.5036 8.5
    endloop
  endfacet
  facet normal 0 0 1
    outer loop
      vertex 2.9268 27.8466 8.5
      vertex -1.59406 15.1665 8.5
      vertex 1.59406 15.1665 8.5
    endloop
  endfacet
  facet normal -0 0 1
    outer loop
      vertex -2.9268 27.8466 8.5
      vertex -1.59406 15.1665 8.5
      vertex 2.9268 27.8466 8.5
    endloop
  endfacet
  facet normal 0 0 1
    outer loop
      vertex -2.9268 27.8466 8.5
      vertex -4.71251 14.5036 8.5
      vertex -1.59406 15.1665 8.5
    endloop
  endfacet
  facet normal -0 0 1
    outer loop
      vertex -8.65248 26.6296 8.5
      vertex -4.71251 14.5036 8.5
      vertex -2.9268 27.8466 8.5
    endloop
  endfacet
  facet normal 0 0 1
    outer loop
      vertex -4.71251 14.5036 8.5
      vertex -8.65248 26.6296 8.5
      vertex -7.625 13.2069 8.5
    endloop
  endfacet
  facet normal -0 0 1
    outer loop
      vertex -14 24.2487 8.5
      vertex -7.625 13.2069 8.5
      vertex -8.65248 26.6296 8.5
    endloop
  endfacet
  facet normal 0 0 1
    outer loop
      vertex -7.625 13.2069 8.5
      vertex -14 24.2487 8.5
      vertex -10.2042 11.333 8.5
    endloop
  endfacet
  facet normal -0 0 1
    outer loop
      vertex -18.7357 20.8081 8.5
      vertex -10.2042 11.333 8.5
      vertex -14 24.2487 8.5
    endloop
  endfacet
  facet normal 0 0 1
    outer loop
      vertex -10.2042 11.333 8.5
      vertex -18.7357 20.8081 8.5
      vertex -12.3375 8.96373 8.5
    endloop
  endfacet
  facet normal -0 0 1
    outer loop
      vertex -22.6525 16.458 8.5
      vertex -12.3375 8.96373 8.5
      vertex -18.7357 20.8081 8.5
    endloop
  endfacet
  facet normal 0 0 1
    outer loop
      vertex -12.3375 8.96373 8.5
      vertex -22.6525 16.458 8.5
      vertex -13.9316 6.20273 8.5
    endloop
  endfacet
  facet normal -0 0 1
    outer loop
      vertex -25.5793 11.3886 8.5
      vertex -13.9316 6.20273 8.5
      vertex -22.6525 16.458 8.5
    endloop
  endfacet
  facet normal 0 0 1
    outer loop
      vertex 25.5793 -11.3886 8.5
      vertex 13.9316 -6.20273 8.5
      vertex 22.6525 -16.458 8.5
    endloop
  endfacet
  facet normal -0 0 1
    outer loop
      vertex 12.3375 -8.96373 8.5
      vertex 22.6525 -16.458 8.5
      vertex 13.9316 -6.20273 8.5
    endloop
  endfacet
  facet normal 0 0 1
    outer loop
      vertex 22.6525 -16.458 8.5
      vertex 12.3375 -8.96373 8.5
      vertex 18.7357 -20.8081 8.5
    endloop
  endfacet
  facet normal -0 0 1
    outer loop
      vertex 10.2042 -11.333 8.5
      vertex 18.7357 -20.8081 8.5
      vertex 12.3375 -8.96373 8.5
    endloop
  endfacet
  facet normal 0 0 1
    outer loop
      vertex 18.7357 -20.8081 8.5
      vertex 10.2042 -11.333 8.5
      vertex 14 -24.2487 8.5
    endloop
  endfacet
  facet normal -0 0 1
    outer loop
      vertex 7.625 -13.2069 8.5
      vertex 14 -24.2487 8.5
      vertex 10.2042 -11.333 8.5
    endloop
  endfacet
  facet normal 0 0 1
    outer loop
      vertex 14 -24.2487 8.5
      vertex 7.625 -13.2069 8.5
      vertex 8.65248 -26.6296 8.5
    endloop
  endfacet
  facet normal -0 0 1
    outer loop
      vertex 4.71251 -14.5036 8.5
      vertex 8.65248 -26.6296 8.5
      vertex 7.625 -13.2069 8.5
    endloop
  endfacet
  facet normal 0 0 1
    outer loop
      vertex 4.71251 -14.5036 8.5
      vertex 2.9268 -27.8466 8.5
      vertex 8.65248 -26.6296 8.5
    endloop
  endfacet
  facet normal -0 0 1
    outer loop
      vertex 1.59406 -15.1665 8.5
      vertex 2.9268 -27.8466 8.5
      vertex 4.71251 -14.5036 8.5
    endloop
  endfacet
  facet normal -0 0 1
    outer loop
      vertex -1.59406 -15.1665 8.5
      vertex 2.9268 -27.8466 8.5
      vertex 1.59406 -15.1665 8.5
    endloop
  endfacet
  facet normal 0 0 1
    outer loop
      vertex -1.59406 -15.1665 8.5
      vertex -2.9268 -27.8466 8.5
      vertex 2.9268 -27.8466 8.5
    endloop
  endfacet
  facet normal 0 0 1
    outer loop
      vertex -4.71251 -14.5036 8.5
      vertex -2.9268 -27.8466 8.5
      vertex -1.59406 -15.1665 8.5
    endloop
  endfacet
  facet normal 0 0 1
    outer loop
      vertex -8.65248 -26.6296 8.5
      vertex -4.71251 -14.5036 8.5
      vertex -7.625 -13.2069 8.5
    endloop
  endfacet
  facet normal 0 0 1
    outer loop
      vertex -4.71251 -14.5036 8.5
      vertex -8.65248 -26.6296 8.5
      vertex -2.9268 -27.8466 8.5
    endloop
  endfacet
  facet normal 0 0 1
    outer loop
      vertex -14 -24.2487 8.5
      vertex -7.625 -13.2069 8.5
      vertex -10.2042 -11.333 8.5
    endloop
  endfacet
  facet normal 0 0 1
    outer loop
      vertex -18.7357 -20.8081 8.5
      vertex -10.2042 -11.333 8.5
      vertex -12.3375 -8.96373 8.5
    endloop
  endfacet
  facet normal 0 0 1
    outer loop
      vertex -22.6525 -16.458 8.5
      vertex -12.3375 -8.96373 8.5
      vertex -13.9316 -6.20273 8.5
    endloop
  endfacet
  facet normal 0 0 1
    outer loop
      vertex -7.625 -13.2069 8.5
      vertex -14 -24.2487 8.5
      vertex -8.65248 -26.6296 8.5
    endloop
  endfacet
  facet normal 0 0 1
    outer loop
      vertex -25.5793 -11.3886 8.5
      vertex -13.9316 -6.20273 8.5
      vertex -14.9168 -3.17065 8.5
    endloop
  endfacet
  facet normal 0 0 1
    outer loop
      vertex -27.3881 -5.82153 8.5
      vertex -14.9168 -3.17065 8.5
      vertex -15.25 0 8.5
    endloop
  endfacet
  facet normal 0 0 1
    outer loop
      vertex -13.9316 6.20273 8.5
      vertex -25.5793 11.3886 8.5
      vertex -14.9168 3.17065 8.5
    endloop
  endfacet
  facet normal 0 0 1
    outer loop
      vertex -10.2042 -11.333 8.5
      vertex -18.7357 -20.8081 8.5
      vertex -14 -24.2487 8.5
    endloop
  endfacet
  facet normal -0 0 1
    outer loop
      vertex -27.3881 5.82153 8.5
      vertex -14.9168 3.17065 8.5
      vertex -25.5793 11.3886 8.5
    endloop
  endfacet
  facet normal 0 0 1
    outer loop
      vertex -12.3375 -8.96373 8.5
      vertex -22.6525 -16.458 8.5
      vertex -18.7357 -20.8081 8.5
    endloop
  endfacet
  facet normal 0 0 1
    outer loop
      vertex -14.9168 3.17065 8.5
      vertex -27.3881 5.82153 8.5
      vertex -15.25 0 8.5
    endloop
  endfacet
  facet normal 0 0 1
    outer loop
      vertex -13.9316 -6.20273 8.5
      vertex -25.5793 -11.3886 8.5
      vertex -22.6525 -16.458 8.5
    endloop
  endfacet
  facet normal 0 0 1
    outer loop
      vertex -28 0 8.5
      vertex -15.25 0 8.5
      vertex -27.3881 5.82153 8.5
    endloop
  endfacet
  facet normal 0 0 1
    outer loop
      vertex -14.9168 -3.17065 8.5
      vertex -27.3881 -5.82153 8.5
      vertex -25.5793 -11.3886 8.5
    endloop
  endfacet
  facet normal 0 0 1
    outer loop
      vertex -15.25 0 8.5
      vertex -28 0 8.5
      vertex -27.3881 -5.82153 8.5
    endloop
  endfacet
  facet normal -0.951057 0.309017 0
    outer loop
      vertex -27.3881 5.82153 0
      vertex -25.5793 11.3886 8.5
      vertex -25.5793 11.3886 0
    endloop
  endfacet
  facet normal -0.951057 0.309017 0
    outer loop
      vertex -25.5793 11.3886 8.5
      vertex -27.3881 5.82153 0
      vertex -27.3881 5.82153 8.5
    endloop
  endfacet
  facet normal 0.866025 -0.5 0
    outer loop
      vertex 22.6525 -16.458 8.5
      vertex 25.5793 -11.3886 0
      vertex 25.5793 -11.3886 8.5
    endloop
  endfacet
  facet normal 0.866025 -0.5 0
    outer loop
      vertex 25.5793 -11.3886 0
      vertex 22.6525 -16.458 8.5
      vertex 22.6525 -16.458 0
    endloop
  endfacet
  facet normal 0 -1 0
    outer loop
      vertex -2.9268 -27.8466 0
      vertex 2.9268 -27.8466 8.5
      vertex -2.9268 -27.8466 8.5
    endloop
  endfacet
  facet normal 0 -1 -0
    outer loop
      vertex 2.9268 -27.8466 8.5
      vertex -2.9268 -27.8466 0
      vertex 2.9268 -27.8466 0
    endloop
  endfacet
  facet normal 0 0 -1
    outer loop
      vertex 27.3881 -5.82153 0
      vertex 27.3881 5.82153 0
      vertex 28 0 0
    endloop
  endfacet
  facet normal 0 0 -1
    outer loop
      vertex 25.5793 -11.3886 0
      vertex 27.3881 5.82153 0
      vertex 27.3881 -5.82153 0
    endloop
  endfacet
  facet normal 0 0 -1
    outer loop
      vertex 25.5793 -11.3886 0
      vertex 25.5793 11.3886 0
      vertex 27.3881 5.82153 0
    endloop
  endfacet
  facet normal 0 0 -1
    outer loop
      vertex 22.6525 -16.458 0
      vertex 25.5793 11.3886 0
      vertex 25.5793 -11.3886 0
    endloop
  endfacet
  facet normal 0 0 -1
    outer loop
      vertex 22.6525 -16.458 0
      vertex 22.6525 16.458 0
      vertex 25.5793 11.3886 0
    endloop
  endfacet
  facet normal 0 0 -1
    outer loop
      vertex 18.7357 -20.8081 0
      vertex 22.6525 16.458 0
      vertex 22.6525 -16.458 0
    endloop
  endfacet
  facet normal 0 0 -1
    outer loop
      vertex 18.7357 -20.8081 0
      vertex 18.7357 20.8081 0
      vertex 22.6525 16.458 0
    endloop
  endfacet
  facet normal 0 0 -1
    outer loop
      vertex 14 -24.2487 0
      vertex 18.7357 20.8081 0
      vertex 18.7357 -20.8081 0
    endloop
  endfacet
  facet normal 0 0 -1
    outer loop
      vertex 14 -24.2487 0
      vertex 14 24.2487 0
      vertex 18.7357 20.8081 0
    endloop
  endfacet
  facet normal 0 0 -1
    outer loop
      vertex 8.65248 -26.6296 0
      vertex 14 24.2487 0
      vertex 14 -24.2487 0
    endloop
  endfacet
  facet normal 0 0 -1
    outer loop
      vertex 8.65248 -26.6296 0
      vertex 8.65248 26.6296 0
      vertex 14 24.2487 0
    endloop
  endfacet
  facet normal 0 0 -1
    outer loop
      vertex 2.9268 -27.8466 0
      vertex 8.65248 26.6296 0
      vertex 8.65248 -26.6296 0
    endloop
  endfacet
  facet normal 0 0 -1
    outer loop
      vertex 2.9268 -27.8466 0
      vertex 2.9268 27.8466 0
      vertex 8.65248 26.6296 0
    endloop
  endfacet
  facet normal 0 0 -1
    outer loop
      vertex -2.9268 -27.8466 0
      vertex 2.9268 27.8466 0
      vertex 2.9268 -27.8466 0
    endloop
  endfacet
  facet normal 0 0 -1
    outer loop
      vertex -2.9268 -27.8466 0
      vertex -2.9268 27.8466 0
      vertex 2.9268 27.8466 0
    endloop
  endfacet
  facet normal 0 0 -1
    outer loop
      vertex -8.65248 -26.6296 0
      vertex -2.9268 27.8466 0
      vertex -2.9268 -27.8466 0
    endloop
  endfacet
  facet normal 0 0 -1
    outer loop
      vertex -8.65248 -26.6296 0
      vertex -8.65248 26.6296 0
      vertex -2.9268 27.8466 0
    endloop
  endfacet
  facet normal 0 0 -1
    outer loop
      vertex -8.65248 -26.6296 0
      vertex -14 24.2487 0
      vertex -8.65248 26.6296 0
    endloop
  endfacet
  facet normal 0 0 -1
    outer loop
      vertex -14 -24.2487 0
      vertex -14 24.2487 0
      vertex -8.65248 -26.6296 0
    endloop
  endfacet
  facet normal 0 0 -1
    outer loop
      vertex -18.7357 -20.8081 0
      vertex -14 24.2487 0
      vertex -14 -24.2487 0
    endloop
  endfacet
  facet normal 0 0 -1
    outer loop
      vertex -18.7357 -20.8081 0
      vertex -18.7357 20.8081 0
      vertex -14 24.2487 0
    endloop
  endfacet
  facet normal 0 0 -1
    outer loop
      vertex -22.6525 -16.458 0
      vertex -18.7357 20.8081 0
      vertex -18.7357 -20.8081 0
    endloop
  endfacet
  facet normal 0 0 -1
    outer loop
      vertex -22.6525 -16.458 0
      vertex -22.6525 16.458 0
      vertex -18.7357 20.8081 0
    endloop
  endfacet
  facet normal 0 0 -1
    outer loop
      vertex -25.5793 -11.3886 0
      vertex -22.6525 16.458 0
      vertex -22.6525 -16.458 0
    endloop
  endfacet
  facet normal 0 0 -1
    outer loop
      vertex -25.5793 -11.3886 0
      vertex -25.5793 11.3886 0
      vertex -22.6525 16.458 0
    endloop
  endfacet
  facet normal 0 0 -1
    outer loop
      vertex -27.3881 -5.82153 0
      vertex -25.5793 11.3886 0
      vertex -25.5793 -11.3886 0
    endloop
  endfacet
  facet normal 0 0 -1
    outer loop
      vertex -27.3881 -5.82153 0
      vertex -27.3881 5.82153 0
      vertex -25.5793 11.3886 0
    endloop
  endfacet
  facet normal 0 -0 -1
    outer loop
      vertex -27.3881 5.82153 0
      vertex -27.3881 -5.82153 0
      vertex -28 0 0
    endloop
  endfacet
  facet normal -0.743145 -0.66913 0
    outer loop
      vertex -18.7357 -20.8081 0
      vertex -22.6525 -16.458 8.5
      vertex -22.6525 -16.458 0
    endloop
  endfacet
  facet normal -0.743145 -0.66913 0
    outer loop
      vertex -22.6525 -16.458 8.5
      vertex -18.7357 -20.8081 0
      vertex -18.7357 -20.8081 8.5
    endloop
  endfacet
  facet normal 0.207912 -0.978148 0
    outer loop
      vertex 2.9268 -27.8466 0
      vertex 8.65248 -26.6296 8.5
      vertex 2.9268 -27.8466 8.5
    endloop
  endfacet
  facet normal 0.207912 -0.978148 0
    outer loop
      vertex 8.65248 -26.6296 8.5
      vertex 2.9268 -27.8466 0
      vertex 8.65248 -26.6296 0
    endloop
  endfacet
  facet normal 0.406737 -0.913545 0
    outer loop
      vertex 8.65248 -26.6296 0
      vertex 14 -24.2487 8.5
      vertex 8.65248 -26.6296 8.5
    endloop
  endfacet
  facet normal 0.406737 -0.913545 0
    outer loop
      vertex 14 -24.2487 8.5
      vertex 8.65248 -26.6296 0
      vertex 14 -24.2487 0
    endloop
  endfacet
  facet normal -0.207912 -0.978148 0
    outer loop
      vertex -8.65248 -26.6296 0
      vertex -2.9268 -27.8466 8.5
      vertex -8.65248 -26.6296 8.5
    endloop
  endfacet
  facet normal -0.207912 -0.978148 -0
    outer loop
      vertex -2.9268 -27.8466 8.5
      vertex -8.65248 -26.6296 0
      vertex -2.9268 -27.8466 0
    endloop
  endfacet
  facet normal -0.951057 -0.309017 0
    outer loop
      vertex -25.5793 -11.3886 0
      vertex -27.3881 -5.82153 8.5
      vertex -27.3881 -5.82153 0
    endloop
  endfacet
  facet normal -0.951057 -0.309017 0
    outer loop
      vertex -27.3881 -5.82153 8.5
      vertex -25.5793 -11.3886 0
      vertex -25.5793 -11.3886 8.5
    endloop
  endfacet
  facet normal -0.994522 -0.104528 0
    outer loop
      vertex -28 0 0
      vertex -27.8328 -1.59099 2.65901
      vertex -28 0 2
    endloop
  endfacet
  facet normal -0.994522 -0.104529 2.01215e-007
    outer loop
      vertex -27.8328 -1.59099 2.65901
      vertex -27.3881 -5.82153 0
      vertex -27.7635 -2.25 4.25
    endloop
  endfacet
  facet normal -0.994522 -0.104529 -3.19372e-007
    outer loop
      vertex -27.3881 -5.82153 0
      vertex -27.8328 -1.59099 2.65901
      vertex -28 0 0
    endloop
  endfacet
  facet normal -0.994522 -0.104528 0
    outer loop
      vertex -27.8328 -1.59099 5.84099
      vertex -28 0 8.5
      vertex -28 0 6.5
    endloop
  endfacet
  facet normal -0.994522 -0.104529 -0
    outer loop
      vertex -27.3881 -5.82153 8.5
      vertex -27.7635 -2.25 4.25
      vertex -27.3881 -5.82153 0
    endloop
  endfacet
  facet normal -0.994522 -0.104529 -2.01215e-007
    outer loop
      vertex -27.7635 -2.25 4.25
      vertex -27.3881 -5.82153 8.5
      vertex -27.8328 -1.59099 5.84099
    endloop
  endfacet
  facet normal -0.994522 -0.104529 3.19372e-007
    outer loop
      vertex -27.8328 -1.59099 5.84099
      vertex -27.3881 -5.82153 8.5
      vertex -28 0 8.5
    endloop
  endfacet
  facet normal 0.743145 -0.66913 0
    outer loop
      vertex 18.7357 -20.8081 8.5
      vertex 22.6525 -16.458 0
      vertex 22.6525 -16.458 8.5
    endloop
  endfacet
  facet normal 0.743145 -0.66913 0
    outer loop
      vertex 22.6525 -16.458 0
      vertex 18.7357 -20.8081 8.5
      vertex 18.7357 -20.8081 0
    endloop
  endfacet
  facet normal -0.406737 -0.913545 0
    outer loop
      vertex -14 -24.2487 0
      vertex -8.65248 -26.6296 8.5
      vertex -14 -24.2487 8.5
    endloop
  endfacet
  facet normal -0.406737 -0.913545 -0
    outer loop
      vertex -8.65248 -26.6296 8.5
      vertex -14 -24.2487 0
      vertex -8.65248 -26.6296 0
    endloop
  endfacet
  facet normal 0 -0.382683 0.92388
    outer loop
      vertex -27.8328 1.59099 2.65901
      vertex 28 0 2
      vertex 27.8328 1.59099 2.65901
    endloop
  endfacet
  facet normal 0 -0.382683 0.92388
    outer loop
      vertex 28 0 2
      vertex -27.8328 1.59099 2.65901
      vertex -28 0 2
    endloop
  endfacet
  facet normal 0 -0.382684 -0.923879
    outer loop
      vertex 28 0 6.5
      vertex -27.8328 1.59099 5.84099
      vertex 27.8328 1.59099 5.84099
    endloop
  endfacet
  facet normal 0 -0.382684 -0.923879
    outer loop
      vertex -27.8328 1.59099 5.84099
      vertex 28 0 6.5
      vertex -28 0 6.5
    endloop
  endfacet
  facet normal 0 -0.92388 0.382683
    outer loop
      vertex -27.8328 1.59099 2.65901
      vertex 27.7635 2.25 4.25
      vertex -27.7635 2.25 4.25
    endloop
  endfacet
  facet normal 0 -0.92388 0.382683
    outer loop
      vertex 27.7635 2.25 4.25
      vertex -27.8328 1.59099 2.65901
      vertex 27.8328 1.59099 2.65901
    endloop
  endfacet
  facet normal 0 -0.923879 -0.382684
    outer loop
      vertex -27.7635 2.25 4.25
      vertex 27.8328 1.59099 5.84099
      vertex -27.8328 1.59099 5.84099
    endloop
  endfacet
  facet normal 0 -0.923879 -0.382684
    outer loop
      vertex 27.8328 1.59099 5.84099
      vertex -27.7635 2.25 4.25
      vertex 27.7635 2.25 4.25
    endloop
  endfacet
  facet normal 0 0.923879 -0.382684
    outer loop
      vertex 27.7635 -2.25 4.25
      vertex -27.8328 -1.59099 5.84099
      vertex 27.8328 -1.59099 5.84099
    endloop
  endfacet
  facet normal 0 0.923879 -0.382684
    outer loop
      vertex -27.8328 -1.59099 5.84099
      vertex 27.7635 -2.25 4.25
      vertex -27.7635 -2.25 4.25
    endloop
  endfacet
  facet normal 0 0.92388 0.382683
    outer loop
      vertex 27.8328 -1.59099 2.65901
      vertex -27.7635 -2.25 4.25
      vertex 27.7635 -2.25 4.25
    endloop
  endfacet
  facet normal 0 0.92388 0.382683
    outer loop
      vertex -27.7635 -2.25 4.25
      vertex 27.8328 -1.59099 2.65901
      vertex -27.8328 -1.59099 2.65901
    endloop
  endfacet
  facet normal 0 0.382684 -0.923879
    outer loop
      vertex -27.8328 -1.59099 5.84099
      vertex 28 0 6.5
      vertex 27.8328 -1.59099 5.84099
    endloop
  endfacet
  facet normal 0 0.382684 -0.923879
    outer loop
      vertex 28 0 6.5
      vertex -27.8328 -1.59099 5.84099
      vertex -28 0 6.5
    endloop
  endfacet
  facet normal 0 0.382683 0.92388
    outer loop
      vertex 28 0 2
      vertex -27.8328 -1.59099 2.65901
      vertex 27.8328 -1.59099 2.65901
    endloop
  endfacet
  facet normal 0 0.382683 0.92388
    outer loop
      vertex -27.8328 -1.59099 2.65901
      vertex 28 0 2
      vertex -28 0 2
    endloop
  endfacet
  facet normal 0.994522 0.104529 0
    outer loop
      vertex 14 0 14.5
      vertex 13.6941 2.91076 12.5
      vertex 13.6941 2.91076 14.5
    endloop
  endfacet
  facet normal 0.994522 0.104529 0
    outer loop
      vertex 13.6941 2.91076 12.5
      vertex 14 0 14.5
      vertex 14 0 12.5
    endloop
  endfacet
  facet normal -0.994522 0.104528 0
    outer loop
      vertex -13.6941 2.91076 12.5
      vertex -13.875 1.18882 13.1137
      vertex -13.6941 2.91076 14.5
    endloop
  endfacet
  facet normal -0.994522 0.104529 7.19527e-008
    outer loop
      vertex -13.875 1.18882 13.1137
      vertex -13.6941 2.91076 12.5
      vertex -13.9638 0.344095 12.5
    endloop
  endfacet
  facet normal -0.994522 0.104529 -2.74778e-007
    outer loop
      vertex -13.6941 2.91076 14.5
      vertex -13.875 1.18882 13.1137
      vertex -13.9224 0.738393 14.5
    endloop
  endfacet
  facet normal 0 1 -0
    outer loop
      vertex 1.4634 13.9233 12.5
      vertex -1.4634 13.9233 14.5
      vertex 1.4634 13.9233 14.5
    endloop
  endfacet
  facet normal 0 1 0
    outer loop
      vertex -1.4634 13.9233 14.5
      vertex 1.4634 13.9233 12.5
      vertex -1.4634 13.9233 12.5
    endloop
  endfacet
  facet normal 0 -1 0
    outer loop
      vertex -1.4634 -13.9233 12.5
      vertex 1.4634 -13.9233 14.5
      vertex -1.4634 -13.9233 14.5
    endloop
  endfacet
  facet normal 0 -1 -0
    outer loop
      vertex 1.4634 -13.9233 14.5
      vertex -1.4634 -13.9233 12.5
      vertex 1.4634 -13.9233 12.5
    endloop
  endfacet
  facet normal 0.587785 0.809017 -0
    outer loop
      vertex 9.36783 10.404 12.5
      vertex 7 12.1244 14.5
      vertex 9.36783 10.404 14.5
    endloop
  endfacet
  facet normal 0.587785 0.809017 0
    outer loop
      vertex 7 12.1244 14.5
      vertex 9.36783 10.404 12.5
      vertex 7 12.1244 12.5
    endloop
  endfacet
  facet normal -0.743145 0.669131 0
    outer loop
      vertex -11.3262 8.22899 12.5
      vertex -9.36783 10.404 14.5
      vertex -9.36783 10.404 12.5
    endloop
  endfacet
  facet normal -0.743145 0.669131 0
    outer loop
      vertex -9.36783 10.404 14.5
      vertex -11.3262 8.22899 12.5
      vertex -11.3262 8.22899 14.5
    endloop
  endfacet
  facet normal 0 0 1
    outer loop
      vertex 14.9168 3.17065 18.5
      vertex 14.9168 -3.17065 18.5
      vertex 15.25 0 18.5
    endloop
  endfacet
  facet normal 0 0 1
    outer loop
      vertex 13.9316 6.20273 18.5
      vertex 14.9168 -3.17065 18.5
      vertex 14.9168 3.17065 18.5
    endloop
  endfacet
  facet normal 0 0 1
    outer loop
      vertex 13.9316 6.20273 18.5
      vertex 13.9316 -6.20273 18.5
      vertex 14.9168 -3.17065 18.5
    endloop
  endfacet
  facet normal 0 0 1
    outer loop
      vertex 12.3375 8.96373 18.5
      vertex 13.9316 -6.20273 18.5
      vertex 13.9316 6.20273 18.5
    endloop
  endfacet
  facet normal 0 0 1
    outer loop
      vertex 12.3375 8.96373 18.5
      vertex 12.3375 -8.96373 18.5
      vertex 13.9316 -6.20273 18.5
    endloop
  endfacet
  facet normal 0 0 1
    outer loop
      vertex 10.2042 11.333 18.5
      vertex 12.3375 -8.96373 18.5
      vertex 12.3375 8.96373 18.5
    endloop
  endfacet
  facet normal 0 0 1
    outer loop
      vertex 10.2042 11.333 18.5
      vertex 10.2042 -11.333 18.5
      vertex 12.3375 -8.96373 18.5
    endloop
  endfacet
  facet normal 0 0 1
    outer loop
      vertex 7.625 13.2069 18.5
      vertex 10.2042 -11.333 18.5
      vertex 10.2042 11.333 18.5
    endloop
  endfacet
  facet normal 0 0 1
    outer loop
      vertex 7.625 13.2069 18.5
      vertex 7.625 -13.2069 18.5
      vertex 10.2042 -11.333 18.5
    endloop
  endfacet
  facet normal 0 0 1
    outer loop
      vertex 4.71251 14.5036 18.5
      vertex 7.625 -13.2069 18.5
      vertex 7.625 13.2069 18.5
    endloop
  endfacet
  facet normal 0 0 1
    outer loop
      vertex 4.71251 14.5036 18.5
      vertex 4.71251 -14.5036 18.5
      vertex 7.625 -13.2069 18.5
    endloop
  endfacet
  facet normal 0 0 1
    outer loop
      vertex 1.59406 15.1665 18.5
      vertex 4.71251 -14.5036 18.5
      vertex 4.71251 14.5036 18.5
    endloop
  endfacet
  facet normal 0 0 1
    outer loop
      vertex 1.59406 15.1665 18.5
      vertex 1.59406 -15.1665 18.5
      vertex 4.71251 -14.5036 18.5
    endloop
  endfacet
  facet normal -0 0 1
    outer loop
      vertex -1.59406 15.1665 18.5
      vertex 1.59406 -15.1665 18.5
      vertex 1.59406 15.1665 18.5
    endloop
  endfacet
  facet normal 0 0 1
    outer loop
      vertex -1.59406 15.1665 18.5
      vertex -1.59406 -15.1665 18.5
      vertex 1.59406 -15.1665 18.5
    endloop
  endfacet
  facet normal -0 0 1
    outer loop
      vertex -4.71251 14.5036 18.5
      vertex -1.59406 -15.1665 18.5
      vertex -1.59406 15.1665 18.5
    endloop
  endfacet
  facet normal 0 0 1
    outer loop
      vertex -4.71251 14.5036 18.5
      vertex -4.71251 -14.5036 18.5
      vertex -1.59406 -15.1665 18.5
    endloop
  endfacet
  facet normal -0 0 1
    outer loop
      vertex -7.625 13.2069 18.5
      vertex -4.71251 -14.5036 18.5
      vertex -4.71251 14.5036 18.5
    endloop
  endfacet
  facet normal 0 0 1
    outer loop
      vertex -7.625 13.2069 18.5
      vertex -7.625 -13.2069 18.5
      vertex -4.71251 -14.5036 18.5
    endloop
  endfacet
  facet normal -0 0 1
    outer loop
      vertex -10.2042 11.333 18.5
      vertex -7.625 -13.2069 18.5
      vertex -7.625 13.2069 18.5
    endloop
  endfacet
  facet normal 0 0 1
    outer loop
      vertex -10.2042 11.333 18.5
      vertex -10.2042 -11.333 18.5
      vertex -7.625 -13.2069 18.5
    endloop
  endfacet
  facet normal -0 0 1
    outer loop
      vertex -12.3375 8.96373 18.5
      vertex -10.2042 -11.333 18.5
      vertex -10.2042 11.333 18.5
    endloop
  endfacet
  facet normal 0 0 1
    outer loop
      vertex -12.3375 8.96373 18.5
      vertex -12.3375 -8.96373 18.5
      vertex -10.2042 -11.333 18.5
    endloop
  endfacet
  facet normal -0 0 1
    outer loop
      vertex -13.9316 6.20273 18.5
      vertex -12.3375 -8.96373 18.5
      vertex -12.3375 8.96373 18.5
    endloop
  endfacet
  facet normal 0 0 1
    outer loop
      vertex -13.9316 6.20273 18.5
      vertex -13.9316 -6.20273 18.5
      vertex -12.3375 -8.96373 18.5
    endloop
  endfacet
  facet normal -0 0 1
    outer loop
      vertex -14.9168 3.17065 18.5
      vertex -13.9316 -6.20273 18.5
      vertex -13.9316 6.20273 18.5
    endloop
  endfacet
  facet normal 0 0 1
    outer loop
      vertex -14.9168 3.17065 18.5
      vertex -14.9168 -3.17065 18.5
      vertex -13.9316 -6.20273 18.5
    endloop
  endfacet
  facet normal 0 -0 1
    outer loop
      vertex -14.9168 -3.17065 18.5
      vertex -14.9168 3.17065 18.5
      vertex -15.25 0 18.5
    endloop
  endfacet
  facet normal -0.406737 0.913545 0
    outer loop
      vertex -4.32624 13.3148 12.5
      vertex -7 12.1244 14.5
      vertex -4.32624 13.3148 14.5
    endloop
  endfacet
  facet normal -0.406737 0.913545 0
    outer loop
      vertex -7 12.1244 14.5
      vertex -4.32624 13.3148 12.5
      vertex -7 12.1244 12.5
    endloop
  endfacet
  facet normal 0.866026 0.5 0
    outer loop
      vertex 12.7896 5.69431 14.5
      vertex 11.3262 8.22899 12.5
      vertex 11.3262 8.22899 14.5
    endloop
  endfacet
  facet normal 0.866026 0.5 0
    outer loop
      vertex 11.3262 8.22899 12.5
      vertex 12.7896 5.69431 14.5
      vertex 12.7896 5.69431 12.5
    endloop
  endfacet
  facet normal 0.951056 0.309017 0
    outer loop
      vertex 13.6941 2.91076 14.5
      vertex 12.7896 5.69431 12.5
      vertex 12.7896 5.69431 14.5
    endloop
  endfacet
  facet normal 0.951056 0.309017 0
    outer loop
      vertex 12.7896 5.69431 12.5
      vertex 13.6941 2.91076 14.5
      vertex 13.6941 2.91076 12.5
    endloop
  endfacet
  facet normal 0.743145 0.669131 0
    outer loop
      vertex 11.3262 8.22899 14.5
      vertex 9.36783 10.404 12.5
      vertex 9.36783 10.404 14.5
    endloop
  endfacet
  facet normal 0.743145 0.669131 0
    outer loop
      vertex 9.36783 10.404 12.5
      vertex 11.3262 8.22899 14.5
      vertex 11.3262 8.22899 12.5
    endloop
  endfacet
  facet normal 0.207912 0.978148 -0
    outer loop
      vertex 4.32624 13.3148 12.5
      vertex 1.4634 13.9233 14.5
      vertex 4.32624 13.3148 14.5
    endloop
  endfacet
  facet normal 0.207912 0.978148 0
    outer loop
      vertex 1.4634 13.9233 14.5
      vertex 4.32624 13.3148 12.5
      vertex 1.4634 13.9233 12.5
    endloop
  endfacet
  facet normal 0.406737 0.913545 -0
    outer loop
      vertex 7 12.1244 12.5
      vertex 4.32624 13.3148 14.5
      vertex 7 12.1244 14.5
    endloop
  endfacet
  facet normal 0.406737 0.913545 0
    outer loop
      vertex 4.32624 13.3148 14.5
      vertex 7 12.1244 12.5
      vertex 4.32624 13.3148 12.5
    endloop
  endfacet
  facet normal -0.866026 0.5 0
    outer loop
      vertex -12.7896 5.69431 12.5
      vertex -11.3262 8.22899 14.5
      vertex -11.3262 8.22899 12.5
    endloop
  endfacet
  facet normal -0.866026 0.5 0
    outer loop
      vertex -11.3262 8.22899 14.5
      vertex -12.7896 5.69431 12.5
      vertex -12.7896 5.69431 14.5
    endloop
  endfacet
  facet normal -0.951056 0.309017 0
    outer loop
      vertex -13.6941 2.91076 12.5
      vertex -12.7896 5.69431 14.5
      vertex -12.7896 5.69431 12.5
    endloop
  endfacet
  facet normal -0.951056 0.309017 0
    outer loop
      vertex -12.7896 5.69431 14.5
      vertex -13.6941 2.91076 12.5
      vertex -13.6941 2.91076 14.5
    endloop
  endfacet
  facet normal -0.587785 0.809017 0
    outer loop
      vertex -7 12.1244 12.5
      vertex -9.36783 10.404 14.5
      vertex -7 12.1244 14.5
    endloop
  endfacet
  facet normal -0.587785 0.809017 0
    outer loop
      vertex -9.36783 10.404 14.5
      vertex -7 12.1244 12.5
      vertex -9.36783 10.404 12.5
    endloop
  endfacet
  facet normal -0.207912 0.978148 0
    outer loop
      vertex -1.4634 13.9233 12.5
      vertex -4.32624 13.3148 14.5
      vertex -1.4634 13.9233 14.5
    endloop
  endfacet
  facet normal -0.207912 0.978148 0
    outer loop
      vertex -4.32624 13.3148 14.5
      vertex -1.4634 13.9233 12.5
      vertex -4.32624 13.3148 12.5
    endloop
  endfacet
  facet normal 0.994522 -0.104529 0
    outer loop
      vertex 13.6941 -2.91076 14.5
      vertex 14 0 12.5
      vertex 14 0 14.5
    endloop
  endfacet
  facet normal 0.994522 -0.104529 0
    outer loop
      vertex 14 0 12.5
      vertex 13.6941 -2.91076 14.5
      vertex 13.6941 -2.91076 12.5
    endloop
  endfacet
  facet normal 0.866026 -0.5 0
    outer loop
      vertex 11.3262 -8.22899 14.5
      vertex 12.7896 -5.69431 12.5
      vertex 12.7896 -5.69431 14.5
    endloop
  endfacet
  facet normal 0.866026 -0.5 0
    outer loop
      vertex 12.7896 -5.69431 12.5
      vertex 11.3262 -8.22899 14.5
      vertex 11.3262 -8.22899 12.5
    endloop
  endfacet
  facet normal 0.587785 -0.809017 0
    outer loop
      vertex 7 -12.1244 12.5
      vertex 9.36783 -10.404 14.5
      vertex 7 -12.1244 14.5
    endloop
  endfacet
  facet normal 0.587785 -0.809017 0
    outer loop
      vertex 9.36783 -10.404 14.5
      vertex 7 -12.1244 12.5
      vertex 9.36783 -10.404 12.5
    endloop
  endfacet
  facet normal 0.951056 -0.309017 0
    outer loop
      vertex 12.7896 -5.69431 14.5
      vertex 13.6941 -2.91076 12.5
      vertex 13.6941 -2.91076 14.5
    endloop
  endfacet
  facet normal 0.951056 -0.309017 0
    outer loop
      vertex 13.6941 -2.91076 12.5
      vertex 12.7896 -5.69431 14.5
      vertex 12.7896 -5.69431 12.5
    endloop
  endfacet
  facet normal -0.207912 -0.978148 0
    outer loop
      vertex -4.32624 -13.3148 12.5
      vertex -1.4634 -13.9233 14.5
      vertex -4.32624 -13.3148 14.5
    endloop
  endfacet
  facet normal -0.207912 -0.978148 -0
    outer loop
      vertex -1.4634 -13.9233 14.5
      vertex -4.32624 -13.3148 12.5
      vertex -1.4634 -13.9233 12.5
    endloop
  endfacet
  facet normal -0.743145 -0.669131 0
    outer loop
      vertex -9.36783 -10.404 12.5
      vertex -11.3262 -8.22899 14.5
      vertex -11.3262 -8.22899 12.5
    endloop
  endfacet
  facet normal -0.743145 -0.669131 0
    outer loop
      vertex -11.3262 -8.22899 14.5
      vertex -9.36783 -10.404 12.5
      vertex -9.36783 -10.404 14.5
    endloop
  endfacet
  facet normal -0.866026 -0.5 0
    outer loop
      vertex -11.3262 -8.22899 12.5
      vertex -12.7896 -5.69431 14.5
      vertex -12.7896 -5.69431 12.5
    endloop
  endfacet
  facet normal -0.866026 -0.5 0
    outer loop
      vertex -12.7896 -5.69431 14.5
      vertex -11.3262 -8.22899 12.5
      vertex -11.3262 -8.22899 14.5
    endloop
  endfacet
  facet normal -0.951056 -0.309017 0
    outer loop
      vertex -12.7896 -5.69431 12.5
      vertex -13.6941 -2.91076 14.5
      vertex -13.6941 -2.91076 12.5
    endloop
  endfacet
  facet normal -0.951056 -0.309017 0
    outer loop
      vertex -13.6941 -2.91076 14.5
      vertex -12.7896 -5.69431 12.5
      vertex -12.7896 -5.69431 14.5
    endloop
  endfacet
  facet normal -0.994522 -0.104528 -0
    outer loop
      vertex -13.6941 -2.91076 14.5
      vertex -13.875 -1.18882 13.1137
      vertex -13.6941 -2.91076 12.5
    endloop
  endfacet
  facet normal -0.994522 -0.104529 -2.74778e-007
    outer loop
      vertex -13.875 -1.18882 13.1137
      vertex -13.6941 -2.91076 14.5
      vertex -13.9224 -0.738393 14.5
    endloop
  endfacet
  facet normal -0.994522 -0.104529 7.19527e-008
    outer loop
      vertex -13.9638 -0.344095 12.5
      vertex -13.6941 -2.91076 12.5
      vertex -13.875 -1.18882 13.1137
    endloop
  endfacet
  facet normal 0.406737 -0.913545 0
    outer loop
      vertex 4.32624 -13.3148 12.5
      vertex 7 -12.1244 14.5
      vertex 4.32624 -13.3148 14.5
    endloop
  endfacet
  facet normal 0.406737 -0.913545 0
    outer loop
      vertex 7 -12.1244 14.5
      vertex 4.32624 -13.3148 12.5
      vertex 7 -12.1244 12.5
    endloop
  endfacet
  facet normal 0.207912 -0.978148 0
    outer loop
      vertex 1.4634 -13.9233 12.5
      vertex 4.32624 -13.3148 14.5
      vertex 1.4634 -13.9233 14.5
    endloop
  endfacet
  facet normal 0.207912 -0.978148 0
    outer loop
      vertex 4.32624 -13.3148 14.5
      vertex 1.4634 -13.9233 12.5
      vertex 4.32624 -13.3148 12.5
    endloop
  endfacet
  facet normal 0.743145 -0.669131 0
    outer loop
      vertex 9.36783 -10.404 14.5
      vertex 11.3262 -8.22899 12.5
      vertex 11.3262 -8.22899 14.5
    endloop
  endfacet
  facet normal 0.743145 -0.669131 0
    outer loop
      vertex 11.3262 -8.22899 12.5
      vertex 9.36783 -10.404 14.5
      vertex 9.36783 -10.404 12.5
    endloop
  endfacet
  facet normal -0.406737 -0.913545 0
    outer loop
      vertex -7 -12.1244 12.5
      vertex -4.32624 -13.3148 14.5
      vertex -7 -12.1244 14.5
    endloop
  endfacet
  facet normal -0.406737 -0.913545 -0
    outer loop
      vertex -4.32624 -13.3148 14.5
      vertex -7 -12.1244 12.5
      vertex -4.32624 -13.3148 12.5
    endloop
  endfacet
  facet normal -0.587785 -0.809017 0
    outer loop
      vertex -9.36783 -10.404 12.5
      vertex -7 -12.1244 14.5
      vertex -9.36783 -10.404 14.5
    endloop
  endfacet
  facet normal -0.587785 -0.809017 -0
    outer loop
      vertex -7 -12.1244 14.5
      vertex -9.36783 -10.404 12.5
      vertex -7 -12.1244 12.5
    endloop
  endfacet
  facet normal 0.994522 0.104528 0
    outer loop
      vertex 15.25 0 18.5
      vertex 14.9168 3.17065 14.5
      vertex 14.9168 3.17065 18.5
    endloop
  endfacet
  facet normal 0.994522 0.104528 0
    outer loop
      vertex 14.9168 3.17065 14.5
      vertex 15.25 0 18.5
      vertex 15.25 0 14.5
    endloop
  endfacet
  facet normal -0.994522 0.104528 0
    outer loop
      vertex -15.25 0 14.5
      vertex -14.9168 3.17065 18.5
      vertex -14.9168 3.17065 14.5
    endloop
  endfacet
  facet normal -0.994522 0.104528 0
    outer loop
      vertex -14.9168 3.17065 18.5
      vertex -15.25 0 14.5
      vertex -15.25 0 18.5
    endloop
  endfacet
  facet normal 0 1 -0
    outer loop
      vertex 1.59406 15.1665 14.5
      vertex -1.59406 15.1665 18.5
      vertex 1.59406 15.1665 18.5
    endloop
  endfacet
  facet normal 0 1 0
    outer loop
      vertex -1.59406 15.1665 18.5
      vertex 1.59406 15.1665 14.5
      vertex -1.59406 15.1665 14.5
    endloop
  endfacet
  facet normal 0 -1 0
    outer loop
      vertex -1.59406 -15.1665 14.5
      vertex 1.59406 -15.1665 18.5
      vertex -1.59406 -15.1665 18.5
    endloop
  endfacet
  facet normal 0 -1 -0
    outer loop
      vertex 1.59406 -15.1665 18.5
      vertex -1.59406 -15.1665 14.5
      vertex 1.59406 -15.1665 14.5
    endloop
  endfacet
  facet normal 0.587785 0.809017 -0
    outer loop
      vertex 10.2042 11.333 14.5
      vertex 7.625 13.2069 18.5
      vertex 10.2042 11.333 18.5
    endloop
  endfacet
  facet normal 0.587785 0.809017 0
    outer loop
      vertex 7.625 13.2069 18.5
      vertex 10.2042 11.333 14.5
      vertex 7.625 13.2069 14.5
    endloop
  endfacet
  facet normal 0.406737 0.913545 -0
    outer loop
      vertex 7.625 13.2069 14.5
      vertex 4.71251 14.5036 18.5
      vertex 7.625 13.2069 18.5
    endloop
  endfacet
  facet normal 0.406737 0.913545 0
    outer loop
      vertex 4.71251 14.5036 18.5
      vertex 7.625 13.2069 14.5
      vertex 4.71251 14.5036 14.5
    endloop
  endfacet
  facet normal -0.743145 0.669131 0
    outer loop
      vertex -12.3375 8.96373 14.5
      vertex -10.2042 11.333 18.5
      vertex -10.2042 11.333 14.5
    endloop
  endfacet
  facet normal -0.743145 0.669131 0
    outer loop
      vertex -10.2042 11.333 18.5
      vertex -12.3375 8.96373 14.5
      vertex -12.3375 8.96373 18.5
    endloop
  endfacet
  facet normal -0.406737 0.913545 0
    outer loop
      vertex -4.71251 14.5036 14.5
      vertex -7.625 13.2069 18.5
      vertex -4.71251 14.5036 18.5
    endloop
  endfacet
  facet normal -0.406737 0.913545 0
    outer loop
      vertex -7.625 13.2069 18.5
      vertex -4.71251 14.5036 14.5
      vertex -7.625 13.2069 14.5
    endloop
  endfacet
  facet normal 0.951057 -0.309017 0
    outer loop
      vertex 13.9316 -6.20273 18.5
      vertex 14.9168 -3.17065 14.5
      vertex 14.9168 -3.17065 18.5
    endloop
  endfacet
  facet normal 0.951057 -0.309017 0
    outer loop
      vertex 14.9168 -3.17065 14.5
      vertex 13.9316 -6.20273 18.5
      vertex 13.9316 -6.20273 14.5
    endloop
  endfacet
  facet normal 0.866025 0.5 0
    outer loop
      vertex 13.9316 6.20273 18.5
      vertex 12.3375 8.96373 14.5
      vertex 12.3375 8.96373 18.5
    endloop
  endfacet
  facet normal 0.866025 0.5 0
    outer loop
      vertex 12.3375 8.96373 14.5
      vertex 13.9316 6.20273 18.5
      vertex 13.9316 6.20273 14.5
    endloop
  endfacet
  facet normal 0.951057 0.309017 0
    outer loop
      vertex 14.9168 3.17065 18.5
      vertex 13.9316 6.20273 14.5
      vertex 13.9316 6.20273 18.5
    endloop
  endfacet
  facet normal 0.951057 0.309017 0
    outer loop
      vertex 13.9316 6.20273 14.5
      vertex 14.9168 3.17065 18.5
      vertex 14.9168 3.17065 14.5
    endloop
  endfacet
  facet normal 0.743145 0.669131 0
    outer loop
      vertex 12.3375 8.96373 18.5
      vertex 10.2042 11.333 14.5
      vertex 10.2042 11.333 18.5
    endloop
  endfacet
  facet normal 0.743145 0.669131 0
    outer loop
      vertex 10.2042 11.333 14.5
      vertex 12.3375 8.96373 18.5
      vertex 12.3375 8.96373 14.5
    endloop
  endfacet
  facet normal 0.207912 0.978148 -0
    outer loop
      vertex 4.71251 14.5036 14.5
      vertex 1.59406 15.1665 18.5
      vertex 4.71251 14.5036 18.5
    endloop
  endfacet
  facet normal 0.207912 0.978148 0
    outer loop
      vertex 1.59406 15.1665 18.5
      vertex 4.71251 14.5036 14.5
      vertex 1.59406 15.1665 14.5
    endloop
  endfacet
  facet normal -0.866025 0.5 0
    outer loop
      vertex -13.9316 6.20273 14.5
      vertex -12.3375 8.96373 18.5
      vertex -12.3375 8.96373 14.5
    endloop
  endfacet
  facet normal -0.866025 0.5 0
    outer loop
      vertex -12.3375 8.96373 18.5
      vertex -13.9316 6.20273 14.5
      vertex -13.9316 6.20273 18.5
    endloop
  endfacet
  facet normal -0.951057 0.309017 0
    outer loop
      vertex -14.9168 3.17065 14.5
      vertex -13.9316 6.20273 18.5
      vertex -13.9316 6.20273 14.5
    endloop
  endfacet
  facet normal -0.951057 0.309017 0
    outer loop
      vertex -13.9316 6.20273 18.5
      vertex -14.9168 3.17065 14.5
      vertex -14.9168 3.17065 18.5
    endloop
  endfacet
  facet normal -0.587785 0.809017 0
    outer loop
      vertex -7.625 13.2069 14.5
      vertex -10.2042 11.333 18.5
      vertex -7.625 13.2069 18.5
    endloop
  endfacet
  facet normal -0.587785 0.809017 0
    outer loop
      vertex -10.2042 11.333 18.5
      vertex -7.625 13.2069 14.5
      vertex -10.2042 11.333 14.5
    endloop
  endfacet
  facet normal -0.207912 0.978148 0
    outer loop
      vertex -1.59406 15.1665 14.5
      vertex -4.71251 14.5036 18.5
      vertex -1.59406 15.1665 18.5
    endloop
  endfacet
  facet normal -0.207912 0.978148 0
    outer loop
      vertex -4.71251 14.5036 18.5
      vertex -1.59406 15.1665 14.5
      vertex -4.71251 14.5036 14.5
    endloop
  endfacet
  facet normal 0.994522 -0.104528 0
    outer loop
      vertex 14.9168 -3.17065 18.5
      vertex 15.25 0 14.5
      vertex 15.25 0 18.5
    endloop
  endfacet
  facet normal 0.994522 -0.104528 0
    outer loop
      vertex 15.25 0 14.5
      vertex 14.9168 -3.17065 18.5
      vertex 14.9168 -3.17065 14.5
    endloop
  endfacet
  facet normal 0.207912 -0.978148 0
    outer loop
      vertex 1.59406 -15.1665 14.5
      vertex 4.71251 -14.5036 18.5
      vertex 1.59406 -15.1665 18.5
    endloop
  endfacet
  facet normal 0.207912 -0.978148 0
    outer loop
      vertex 4.71251 -14.5036 18.5
      vertex 1.59406 -15.1665 14.5
      vertex 4.71251 -14.5036 14.5
    endloop
  endfacet
  facet normal 0.866025 -0.5 0
    outer loop
      vertex 12.3375 -8.96373 18.5
      vertex 13.9316 -6.20273 14.5
      vertex 13.9316 -6.20273 18.5
    endloop
  endfacet
  facet normal 0.866025 -0.5 0
    outer loop
      vertex 13.9316 -6.20273 14.5
      vertex 12.3375 -8.96373 18.5
      vertex 12.3375 -8.96373 14.5
    endloop
  endfacet
  facet normal 0 0 -1
    outer loop
      vertex 14 0 14.5
      vertex 15.25 0 14.5
      vertex 14.9168 -3.17065 14.5
    endloop
  endfacet
  facet normal 0 0 -1
    outer loop
      vertex 15.25 0 14.5
      vertex 14 0 14.5
      vertex 14.9168 3.17065 14.5
    endloop
  endfacet
  facet normal 0 0 -1
    outer loop
      vertex 13.6941 -2.91076 14.5
      vertex 14.9168 -3.17065 14.5
      vertex 13.9316 -6.20273 14.5
    endloop
  endfacet
  facet normal 0 0 -1
    outer loop
      vertex 14.9168 -3.17065 14.5
      vertex 13.6941 -2.91076 14.5
      vertex 14 0 14.5
    endloop
  endfacet
  facet normal 0 0 -1
    outer loop
      vertex 13.9316 -6.20273 14.5
      vertex 12.7896 -5.69431 14.5
      vertex 13.6941 -2.91076 14.5
    endloop
  endfacet
  facet normal 0 0 -1
    outer loop
      vertex 12.3375 -8.96373 14.5
      vertex 12.7896 -5.69431 14.5
      vertex 13.9316 -6.20273 14.5
    endloop
  endfacet
  facet normal 0 0 -1
    outer loop
      vertex 12.3375 -8.96373 14.5
      vertex 11.3262 -8.22899 14.5
      vertex 12.7896 -5.69431 14.5
    endloop
  endfacet
  facet normal 0 0 -1
    outer loop
      vertex 10.2042 -11.333 14.5
      vertex 11.3262 -8.22899 14.5
      vertex 12.3375 -8.96373 14.5
    endloop
  endfacet
  facet normal 0 0 -1
    outer loop
      vertex 10.2042 -11.333 14.5
      vertex 9.36783 -10.404 14.5
      vertex 11.3262 -8.22899 14.5
    endloop
  endfacet
  facet normal 0 0 -1
    outer loop
      vertex 7.625 -13.2069 14.5
      vertex 9.36783 -10.404 14.5
      vertex 10.2042 -11.333 14.5
    endloop
  endfacet
  facet normal 0 0 -1
    outer loop
      vertex 7.625 -13.2069 14.5
      vertex 7 -12.1244 14.5
      vertex 9.36783 -10.404 14.5
    endloop
  endfacet
  facet normal 0 0 -1
    outer loop
      vertex 4.71251 -14.5036 14.5
      vertex 7 -12.1244 14.5
      vertex 7.625 -13.2069 14.5
    endloop
  endfacet
  facet normal 0 0 -1
    outer loop
      vertex 4.71251 -14.5036 14.5
      vertex 4.32624 -13.3148 14.5
      vertex 7 -12.1244 14.5
    endloop
  endfacet
  facet normal 0 0 -1
    outer loop
      vertex 1.59406 -15.1665 14.5
      vertex 4.32624 -13.3148 14.5
      vertex 4.71251 -14.5036 14.5
    endloop
  endfacet
  facet normal 0 0 -1
    outer loop
      vertex 1.59406 -15.1665 14.5
      vertex 1.4634 -13.9233 14.5
      vertex 4.32624 -13.3148 14.5
    endloop
  endfacet
  facet normal 0 0 -1
    outer loop
      vertex 1.59406 -15.1665 14.5
      vertex -1.4634 -13.9233 14.5
      vertex 1.4634 -13.9233 14.5
    endloop
  endfacet
  facet normal 0 0 -1
    outer loop
      vertex -1.59406 -15.1665 14.5
      vertex -1.4634 -13.9233 14.5
      vertex 1.59406 -15.1665 14.5
    endloop
  endfacet
  facet normal 0 0 -1
    outer loop
      vertex -1.59406 -15.1665 14.5
      vertex -4.32624 -13.3148 14.5
      vertex -1.4634 -13.9233 14.5
    endloop
  endfacet
  facet normal 0 0 -1
    outer loop
      vertex -4.71251 -14.5036 14.5
      vertex -4.32624 -13.3148 14.5
      vertex -1.59406 -15.1665 14.5
    endloop
  endfacet
  facet normal 0 0 -1
    outer loop
      vertex -4.71251 -14.5036 14.5
      vertex -7 -12.1244 14.5
      vertex -4.32624 -13.3148 14.5
    endloop
  endfacet
  facet normal 0 0 -1
    outer loop
      vertex -7.625 -13.2069 14.5
      vertex -7 -12.1244 14.5
      vertex -4.71251 -14.5036 14.5
    endloop
  endfacet
  facet normal 0 0 -1
    outer loop
      vertex -7.625 -13.2069 14.5
      vertex -9.36783 -10.404 14.5
      vertex -7 -12.1244 14.5
    endloop
  endfacet
  facet normal 0 0 -1
    outer loop
      vertex -10.2042 -11.333 14.5
      vertex -9.36783 -10.404 14.5
      vertex -7.625 -13.2069 14.5
    endloop
  endfacet
  facet normal 0 0 -1
    outer loop
      vertex -10.2042 -11.333 14.5
      vertex -11.3262 -8.22899 14.5
      vertex -9.36783 -10.404 14.5
    endloop
  endfacet
  facet normal 0 0 -1
    outer loop
      vertex -12.3375 -8.96373 14.5
      vertex -11.3262 -8.22899 14.5
      vertex -10.2042 -11.333 14.5
    endloop
  endfacet
  facet normal 0 0 -1
    outer loop
      vertex -12.3375 -8.96373 14.5
      vertex -12.7896 -5.69431 14.5
      vertex -11.3262 -8.22899 14.5
    endloop
  endfacet
  facet normal 0 0 -1
    outer loop
      vertex -13.9316 -6.20273 14.5
      vertex -12.7896 -5.69431 14.5
      vertex -12.3375 -8.96373 14.5
    endloop
  endfacet
  facet normal -0 0 -1
    outer loop
      vertex -12.7896 -5.69431 14.5
      vertex -13.9316 -6.20273 14.5
      vertex -13.6941 -2.91076 14.5
    endloop
  endfacet
  facet normal 0 0 -1
    outer loop
      vertex -14.9168 -3.17065 14.5
      vertex -13.6941 -2.91076 14.5
      vertex -13.9316 -6.20273 14.5
    endloop
  endfacet
  facet normal 0 -0 -1
    outer loop
      vertex -14 -0.738393 14.5
      vertex -13.6941 -2.91076 14.5
      vertex -14.9168 -3.17065 14.5
    endloop
  endfacet
  facet normal 0 0 -1
    outer loop
      vertex -15.25 0 14.5
      vertex -14 -0.738393 14.5
      vertex -14.9168 -3.17065 14.5
    endloop
  endfacet
  facet normal 0 0 -1
    outer loop
      vertex -13.6941 -2.91076 14.5
      vertex -14 -0.738393 14.5
      vertex -13.9224 -0.738393 14.5
    endloop
  endfacet
  facet normal 0 0 -1
    outer loop
      vertex 13.6941 2.91076 14.5
      vertex 14.9168 3.17065 14.5
      vertex 14 0 14.5
    endloop
  endfacet
  facet normal -0 0 -1
    outer loop
      vertex 14.9168 3.17065 14.5
      vertex 13.6941 2.91076 14.5
      vertex 13.9316 6.20273 14.5
    endloop
  endfacet
  facet normal 0 0 -1
    outer loop
      vertex 12.7896 5.69431 14.5
      vertex 13.9316 6.20273 14.5
      vertex 13.6941 2.91076 14.5
    endloop
  endfacet
  facet normal 0 0 -1
    outer loop
      vertex 12.7896 5.69431 14.5
      vertex 12.3375 8.96373 14.5
      vertex 13.9316 6.20273 14.5
    endloop
  endfacet
  facet normal 0 0 -1
    outer loop
      vertex 11.3262 8.22899 14.5
      vertex 12.3375 8.96373 14.5
      vertex 12.7896 5.69431 14.5
    endloop
  endfacet
  facet normal 0 0 -1
    outer loop
      vertex 11.3262 8.22899 14.5
      vertex 10.2042 11.333 14.5
      vertex 12.3375 8.96373 14.5
    endloop
  endfacet
  facet normal 0 0 -1
    outer loop
      vertex 9.36783 10.404 14.5
      vertex 10.2042 11.333 14.5
      vertex 11.3262 8.22899 14.5
    endloop
  endfacet
  facet normal 0 0 -1
    outer loop
      vertex 9.36783 10.404 14.5
      vertex 7.625 13.2069 14.5
      vertex 10.2042 11.333 14.5
    endloop
  endfacet
  facet normal 0 0 -1
    outer loop
      vertex 7 12.1244 14.5
      vertex 7.625 13.2069 14.5
      vertex 9.36783 10.404 14.5
    endloop
  endfacet
  facet normal 0 0 -1
    outer loop
      vertex 7 12.1244 14.5
      vertex 4.71251 14.5036 14.5
      vertex 7.625 13.2069 14.5
    endloop
  endfacet
  facet normal 0 0 -1
    outer loop
      vertex 4.32624 13.3148 14.5
      vertex 4.71251 14.5036 14.5
      vertex 7 12.1244 14.5
    endloop
  endfacet
  facet normal 0 0 -1
    outer loop
      vertex 4.32624 13.3148 14.5
      vertex 1.59406 15.1665 14.5
      vertex 4.71251 14.5036 14.5
    endloop
  endfacet
  facet normal 0 0 -1
    outer loop
      vertex 1.4634 13.9233 14.5
      vertex 1.59406 15.1665 14.5
      vertex 4.32624 13.3148 14.5
    endloop
  endfacet
  facet normal 0 0 -1
    outer loop
      vertex -1.4634 13.9233 14.5
      vertex 1.59406 15.1665 14.5
      vertex 1.4634 13.9233 14.5
    endloop
  endfacet
  facet normal 0 0 -1
    outer loop
      vertex -1.4634 13.9233 14.5
      vertex -1.59406 15.1665 14.5
      vertex 1.59406 15.1665 14.5
    endloop
  endfacet
  facet normal 0 0 -1
    outer loop
      vertex -4.32624 13.3148 14.5
      vertex -1.59406 15.1665 14.5
      vertex -1.4634 13.9233 14.5
    endloop
  endfacet
  facet normal 0 0 -1
    outer loop
      vertex -4.32624 13.3148 14.5
      vertex -4.71251 14.5036 14.5
      vertex -1.59406 15.1665 14.5
    endloop
  endfacet
  facet normal 0 0 -1
    outer loop
      vertex -7 12.1244 14.5
      vertex -4.71251 14.5036 14.5
      vertex -4.32624 13.3148 14.5
    endloop
  endfacet
  facet normal 0 0 -1
    outer loop
      vertex -7 12.1244 14.5
      vertex -7.625 13.2069 14.5
      vertex -4.71251 14.5036 14.5
    endloop
  endfacet
  facet normal 0 0 -1
    outer loop
      vertex -9.36783 10.404 14.5
      vertex -7.625 13.2069 14.5
      vertex -7 12.1244 14.5
    endloop
  endfacet
  facet normal 0 0 -1
    outer loop
      vertex -9.36783 10.404 14.5
      vertex -10.2042 11.333 14.5
      vertex -7.625 13.2069 14.5
    endloop
  endfacet
  facet normal 0 0 -1
    outer loop
      vertex -11.3262 8.22899 14.5
      vertex -10.2042 11.333 14.5
      vertex -9.36783 10.404 14.5
    endloop
  endfacet
  facet normal 0 0 -1
    outer loop
      vertex -11.3262 8.22899 14.5
      vertex -12.3375 8.96373 14.5
      vertex -10.2042 11.333 14.5
    endloop
  endfacet
  facet normal 0 0 -1
    outer loop
      vertex -12.7896 5.69431 14.5
      vertex -12.3375 8.96373 14.5
      vertex -11.3262 8.22899 14.5
    endloop
  endfacet
  facet normal 0 0 -1
    outer loop
      vertex -13.9316 6.20273 14.5
      vertex -12.7896 5.69431 14.5
      vertex -13.6941 2.91076 14.5
    endloop
  endfacet
  facet normal 0 0 -1
    outer loop
      vertex -12.7896 5.69431 14.5
      vertex -13.9316 6.20273 14.5
      vertex -12.3375 8.96373 14.5
    endloop
  endfacet
  facet normal 0 0 -1
    outer loop
      vertex -14 0.738393 14.5
      vertex -13.6941 2.91076 14.5
      vertex -13.9224 0.738393 14.5
    endloop
  endfacet
  facet normal -0 0 -1
    outer loop
      vertex -13.6941 2.91076 14.5
      vertex -14 0.738393 14.5
      vertex -14.9168 3.17065 14.5
    endloop
  endfacet
  facet normal 0 0 -1
    outer loop
      vertex -14 -0.738393 14.5
      vertex -15.25 0 14.5
      vertex -14 0.738393 14.5
    endloop
  endfacet
  facet normal 0 0 -1
    outer loop
      vertex -13.6941 2.91076 14.5
      vertex -14.9168 3.17065 14.5
      vertex -13.9316 6.20273 14.5
    endloop
  endfacet
  facet normal -0 0 -1
    outer loop
      vertex -14 0.738393 14.5
      vertex -15.25 0 14.5
      vertex -14.9168 3.17065 14.5
    endloop
  endfacet
  facet normal 0.587785 -0.809017 0
    outer loop
      vertex 7.625 -13.2069 14.5
      vertex 10.2042 -11.333 18.5
      vertex 7.625 -13.2069 18.5
    endloop
  endfacet
  facet normal 0.587785 -0.809017 0
    outer loop
      vertex 10.2042 -11.333 18.5
      vertex 7.625 -13.2069 14.5
      vertex 10.2042 -11.333 14.5
    endloop
  endfacet
  facet normal 0.406737 -0.913545 0
    outer loop
      vertex 4.71251 -14.5036 14.5
      vertex 7.625 -13.2069 18.5
      vertex 4.71251 -14.5036 18.5
    endloop
  endfacet
  facet normal 0.406737 -0.913545 0
    outer loop
      vertex 7.625 -13.2069 18.5
      vertex 4.71251 -14.5036 14.5
      vertex 7.625 -13.2069 14.5
    endloop
  endfacet
  facet normal -0.207912 -0.978148 0
    outer loop
      vertex -4.71251 -14.5036 14.5
      vertex -1.59406 -15.1665 18.5
      vertex -4.71251 -14.5036 18.5
    endloop
  endfacet
  facet normal -0.207912 -0.978148 -0
    outer loop
      vertex -1.59406 -15.1665 18.5
      vertex -4.71251 -14.5036 14.5
      vertex -1.59406 -15.1665 14.5
    endloop
  endfacet
  facet normal -0.743145 -0.669131 0
    outer loop
      vertex -10.2042 -11.333 14.5
      vertex -12.3375 -8.96373 18.5
      vertex -12.3375 -8.96373 14.5
    endloop
  endfacet
  facet normal -0.743145 -0.669131 0
    outer loop
      vertex -12.3375 -8.96373 18.5
      vertex -10.2042 -11.333 14.5
      vertex -10.2042 -11.333 18.5
    endloop
  endfacet
  facet normal -0.866025 -0.5 0
    outer loop
      vertex -12.3375 -8.96373 14.5
      vertex -13.9316 -6.20273 18.5
      vertex -13.9316 -6.20273 14.5
    endloop
  endfacet
  facet normal -0.866025 -0.5 0
    outer loop
      vertex -13.9316 -6.20273 18.5
      vertex -12.3375 -8.96373 14.5
      vertex -12.3375 -8.96373 18.5
    endloop
  endfacet
  facet normal -0.951057 -0.309017 0
    outer loop
      vertex -13.9316 -6.20273 14.5
      vertex -14.9168 -3.17065 18.5
      vertex -14.9168 -3.17065 14.5
    endloop
  endfacet
  facet normal -0.951057 -0.309017 0
    outer loop
      vertex -14.9168 -3.17065 18.5
      vertex -13.9316 -6.20273 14.5
      vertex -13.9316 -6.20273 18.5
    endloop
  endfacet
  facet normal -0.994522 -0.104528 0
    outer loop
      vertex -14.9168 -3.17065 14.5
      vertex -15.25 0 18.5
      vertex -15.25 0 14.5
    endloop
  endfacet
  facet normal -0.994522 -0.104528 0
    outer loop
      vertex -15.25 0 18.5
      vertex -14.9168 -3.17065 14.5
      vertex -14.9168 -3.17065 18.5
    endloop
  endfacet
  facet normal 0.743145 -0.669131 0
    outer loop
      vertex 10.2042 -11.333 18.5
      vertex 12.3375 -8.96373 14.5
      vertex 12.3375 -8.96373 18.5
    endloop
  endfacet
  facet normal 0.743145 -0.669131 0
    outer loop
      vertex 12.3375 -8.96373 14.5
      vertex 10.2042 -11.333 18.5
      vertex 10.2042 -11.333 14.5
    endloop
  endfacet
  facet normal -0.406737 -0.913545 0
    outer loop
      vertex -7.625 -13.2069 14.5
      vertex -4.71251 -14.5036 18.5
      vertex -7.625 -13.2069 18.5
    endloop
  endfacet
  facet normal -0.406737 -0.913545 -0
    outer loop
      vertex -4.71251 -14.5036 18.5
      vertex -7.625 -13.2069 14.5
      vertex -4.71251 -14.5036 14.5
    endloop
  endfacet
  facet normal -0.587785 -0.809017 0
    outer loop
      vertex -10.2042 -11.333 14.5
      vertex -7.625 -13.2069 18.5
      vertex -10.2042 -11.333 18.5
    endloop
  endfacet
  facet normal -0.587785 -0.809017 -0
    outer loop
      vertex -7.625 -13.2069 18.5
      vertex -10.2042 -11.333 14.5
      vertex -7.625 -13.2069 14.5
    endloop
  endfacet
  facet normal 0.994522 0.104528 0
    outer loop
      vertex 15.25 0 12.5
      vertex 14.9168 3.17065 8.5
      vertex 14.9168 3.17065 12.5
    endloop
  endfacet
  facet normal 0.994522 0.104528 0
    outer loop
      vertex 14.9168 3.17065 8.5
      vertex 15.25 0 12.5
      vertex 15.25 0 8.5
    endloop
  endfacet
  facet normal -0.994522 0.104528 0
    outer loop
      vertex -15.25 0 8.5
      vertex -14.9168 3.17065 12.5
      vertex -14.9168 3.17065 8.5
    endloop
  endfacet
  facet normal -0.994522 0.104528 0
    outer loop
      vertex -14.9168 3.17065 12.5
      vertex -15.25 0 8.5
      vertex -15.25 0 12.5
    endloop
  endfacet
  facet normal 0 1 -0
    outer loop
      vertex 1.59406 15.1665 8.5
      vertex -1.59406 15.1665 12.5
      vertex 1.59406 15.1665 12.5
    endloop
  endfacet
  facet normal 0 1 0
    outer loop
      vertex -1.59406 15.1665 12.5
      vertex 1.59406 15.1665 8.5
      vertex -1.59406 15.1665 8.5
    endloop
  endfacet
  facet normal 0 -1 0
    outer loop
      vertex -1.59406 -15.1665 8.5
      vertex 1.59406 -15.1665 12.5
      vertex -1.59406 -15.1665 12.5
    endloop
  endfacet
  facet normal 0 -1 -0
    outer loop
      vertex 1.59406 -15.1665 12.5
      vertex -1.59406 -15.1665 8.5
      vertex 1.59406 -15.1665 8.5
    endloop
  endfacet
  facet normal 0.587785 0.809017 -0
    outer loop
      vertex 10.2042 11.333 8.5
      vertex 7.625 13.2069 12.5
      vertex 10.2042 11.333 12.5
    endloop
  endfacet
  facet normal 0.587785 0.809017 0
    outer loop
      vertex 7.625 13.2069 12.5
      vertex 10.2042 11.333 8.5
      vertex 7.625 13.2069 8.5
    endloop
  endfacet
  facet normal 0.406737 0.913545 -0
    outer loop
      vertex 7.625 13.2069 8.5
      vertex 4.71251 14.5036 12.5
      vertex 7.625 13.2069 12.5
    endloop
  endfacet
  facet normal 0.406737 0.913545 0
    outer loop
      vertex 4.71251 14.5036 12.5
      vertex 7.625 13.2069 8.5
      vertex 4.71251 14.5036 8.5
    endloop
  endfacet
  facet normal -0.743145 0.669131 0
    outer loop
      vertex -12.3375 8.96373 8.5
      vertex -10.2042 11.333 12.5
      vertex -10.2042 11.333 8.5
    endloop
  endfacet
  facet normal -0.743145 0.669131 0
    outer loop
      vertex -10.2042 11.333 12.5
      vertex -12.3375 8.96373 8.5
      vertex -12.3375 8.96373 12.5
    endloop
  endfacet
  facet normal 0 0 1
    outer loop
      vertex 14 0 12.5
      vertex 15.25 0 12.5
      vertex 14.9168 3.17065 12.5
    endloop
  endfacet
  facet normal 0 0 1
    outer loop
      vertex 15.25 0 12.5
      vertex 14 0 12.5
      vertex 14.9168 -3.17065 12.5
    endloop
  endfacet
  facet normal 0 0 1
    outer loop
      vertex 13.6941 2.91076 12.5
      vertex 14.9168 3.17065 12.5
      vertex 13.9316 6.20273 12.5
    endloop
  endfacet
  facet normal 0 0 1
    outer loop
      vertex 14.9168 3.17065 12.5
      vertex 13.6941 2.91076 12.5
      vertex 14 0 12.5
    endloop
  endfacet
  facet normal 0 0 1
    outer loop
      vertex 13.9316 6.20273 12.5
      vertex 12.7896 5.69431 12.5
      vertex 13.6941 2.91076 12.5
    endloop
  endfacet
  facet normal 0 0 1
    outer loop
      vertex 12.3375 8.96373 12.5
      vertex 12.7896 5.69431 12.5
      vertex 13.9316 6.20273 12.5
    endloop
  endfacet
  facet normal 0 0 1
    outer loop
      vertex 12.3375 8.96373 12.5
      vertex 11.3262 8.22899 12.5
      vertex 12.7896 5.69431 12.5
    endloop
  endfacet
  facet normal 0 0 1
    outer loop
      vertex 10.2042 11.333 12.5
      vertex 11.3262 8.22899 12.5
      vertex 12.3375 8.96373 12.5
    endloop
  endfacet
  facet normal 0 0 1
    outer loop
      vertex 10.2042 11.333 12.5
      vertex 9.36783 10.404 12.5
      vertex 11.3262 8.22899 12.5
    endloop
  endfacet
  facet normal 0 0 1
    outer loop
      vertex 7.625 13.2069 12.5
      vertex 9.36783 10.404 12.5
      vertex 10.2042 11.333 12.5
    endloop
  endfacet
  facet normal 0 0 1
    outer loop
      vertex 7.625 13.2069 12.5
      vertex 7 12.1244 12.5
      vertex 9.36783 10.404 12.5
    endloop
  endfacet
  facet normal 0 0 1
    outer loop
      vertex 4.71251 14.5036 12.5
      vertex 7 12.1244 12.5
      vertex 7.625 13.2069 12.5
    endloop
  endfacet
  facet normal 0 0 1
    outer loop
      vertex 4.71251 14.5036 12.5
      vertex 4.32624 13.3148 12.5
      vertex 7 12.1244 12.5
    endloop
  endfacet
  facet normal 0 0 1
    outer loop
      vertex 1.59406 15.1665 12.5
      vertex 4.32624 13.3148 12.5
      vertex 4.71251 14.5036 12.5
    endloop
  endfacet
  facet normal 0 0 1
    outer loop
      vertex 1.59406 15.1665 12.5
      vertex 1.4634 13.9233 12.5
      vertex 4.32624 13.3148 12.5
    endloop
  endfacet
  facet normal 0 0 1
    outer loop
      vertex 1.59406 15.1665 12.5
      vertex -1.4634 13.9233 12.5
      vertex 1.4634 13.9233 12.5
    endloop
  endfacet
  facet normal -0 0 1
    outer loop
      vertex -1.59406 15.1665 12.5
      vertex -1.4634 13.9233 12.5
      vertex 1.59406 15.1665 12.5
    endloop
  endfacet
  facet normal 0 0 1
    outer loop
      vertex -1.59406 15.1665 12.5
      vertex -4.32624 13.3148 12.5
      vertex -1.4634 13.9233 12.5
    endloop
  endfacet
  facet normal -0 0 1
    outer loop
      vertex -4.71251 14.5036 12.5
      vertex -4.32624 13.3148 12.5
      vertex -1.59406 15.1665 12.5
    endloop
  endfacet
  facet normal 0 0 1
    outer loop
      vertex -4.71251 14.5036 12.5
      vertex -7 12.1244 12.5
      vertex -4.32624 13.3148 12.5
    endloop
  endfacet
  facet normal -0 0 1
    outer loop
      vertex -7.625 13.2069 12.5
      vertex -7 12.1244 12.5
      vertex -4.71251 14.5036 12.5
    endloop
  endfacet
  facet normal 0 0 1
    outer loop
      vertex -7.625 13.2069 12.5
      vertex -9.36783 10.404 12.5
      vertex -7 12.1244 12.5
    endloop
  endfacet
  facet normal -0 0 1
    outer loop
      vertex -10.2042 11.333 12.5
      vertex -9.36783 10.404 12.5
      vertex -7.625 13.2069 12.5
    endloop
  endfacet
  facet normal 0 0 1
    outer loop
      vertex -10.2042 11.333 12.5
      vertex -11.3262 8.22899 12.5
      vertex -9.36783 10.404 12.5
    endloop
  endfacet
  facet normal -0 0 1
    outer loop
      vertex -12.3375 8.96373 12.5
      vertex -11.3262 8.22899 12.5
      vertex -10.2042 11.333 12.5
    endloop
  endfacet
  facet normal 0 0 1
    outer loop
      vertex -12.3375 8.96373 12.5
      vertex -12.7896 5.69431 12.5
      vertex -11.3262 8.22899 12.5
    endloop
  endfacet
  facet normal -0 0 1
    outer loop
      vertex -13.9316 6.20273 12.5
      vertex -12.7896 5.69431 12.5
      vertex -12.3375 8.96373 12.5
    endloop
  endfacet
  facet normal 0 0 1
    outer loop
      vertex -12.7896 5.69431 12.5
      vertex -13.9316 6.20273 12.5
      vertex -13.6941 2.91076 12.5
    endloop
  endfacet
  facet normal -0 0 1
    outer loop
      vertex -14.9168 3.17065 12.5
      vertex -13.6941 2.91076 12.5
      vertex -13.9316 6.20273 12.5
    endloop
  endfacet
  facet normal 0 -0 1
    outer loop
      vertex -14 0.344095 12.5
      vertex -13.6941 2.91076 12.5
      vertex -14.9168 3.17065 12.5
    endloop
  endfacet
  facet normal 0 0 1
    outer loop
      vertex -15.25 0 12.5
      vertex -14 0.344095 12.5
      vertex -14.9168 3.17065 12.5
    endloop
  endfacet
  facet normal 0 0 1
    outer loop
      vertex -13.6941 2.91076 12.5
      vertex -14 0.344095 12.5
      vertex -13.9638 0.344095 12.5
    endloop
  endfacet
  facet normal -0 0 1
    outer loop
      vertex 13.6941 -2.91076 12.5
      vertex 14.9168 -3.17065 12.5
      vertex 14 0 12.5
    endloop
  endfacet
  facet normal 0 0 1
    outer loop
      vertex 14.9168 -3.17065 12.5
      vertex 13.6941 -2.91076 12.5
      vertex 13.9316 -6.20273 12.5
    endloop
  endfacet
  facet normal -0 0 1
    outer loop
      vertex 12.7896 -5.69431 12.5
      vertex 13.9316 -6.20273 12.5
      vertex 13.6941 -2.91076 12.5
    endloop
  endfacet
  facet normal 0 0 1
    outer loop
      vertex 12.7896 -5.69431 12.5
      vertex 12.3375 -8.96373 12.5
      vertex 13.9316 -6.20273 12.5
    endloop
  endfacet
  facet normal -0 0 1
    outer loop
      vertex 11.3262 -8.22899 12.5
      vertex 12.3375 -8.96373 12.5
      vertex 12.7896 -5.69431 12.5
    endloop
  endfacet
  facet normal 0 0 1
    outer loop
      vertex 11.3262 -8.22899 12.5
      vertex 10.2042 -11.333 12.5
      vertex 12.3375 -8.96373 12.5
    endloop
  endfacet
  facet normal -0 0 1
    outer loop
      vertex 9.36783 -10.404 12.5
      vertex 10.2042 -11.333 12.5
      vertex 11.3262 -8.22899 12.5
    endloop
  endfacet
  facet normal 0 0 1
    outer loop
      vertex 9.36783 -10.404 12.5
      vertex 7.625 -13.2069 12.5
      vertex 10.2042 -11.333 12.5
    endloop
  endfacet
  facet normal -0 0 1
    outer loop
      vertex 7 -12.1244 12.5
      vertex 7.625 -13.2069 12.5
      vertex 9.36783 -10.404 12.5
    endloop
  endfacet
  facet normal 0 0 1
    outer loop
      vertex 7 -12.1244 12.5
      vertex 4.71251 -14.5036 12.5
      vertex 7.625 -13.2069 12.5
    endloop
  endfacet
  facet normal -0 0 1
    outer loop
      vertex 4.32624 -13.3148 12.5
      vertex 4.71251 -14.5036 12.5
      vertex 7 -12.1244 12.5
    endloop
  endfacet
  facet normal 0 0 1
    outer loop
      vertex 4.32624 -13.3148 12.5
      vertex 1.59406 -15.1665 12.5
      vertex 4.71251 -14.5036 12.5
    endloop
  endfacet
  facet normal -0 0 1
    outer loop
      vertex 1.4634 -13.9233 12.5
      vertex 1.59406 -15.1665 12.5
      vertex 4.32624 -13.3148 12.5
    endloop
  endfacet
  facet normal -0 0 1
    outer loop
      vertex -1.4634 -13.9233 12.5
      vertex 1.59406 -15.1665 12.5
      vertex 1.4634 -13.9233 12.5
    endloop
  endfacet
  facet normal 0 0 1
    outer loop
      vertex -1.4634 -13.9233 12.5
      vertex -1.59406 -15.1665 12.5
      vertex 1.59406 -15.1665 12.5
    endloop
  endfacet
  facet normal 0 0 1
    outer loop
      vertex -4.32624 -13.3148 12.5
      vertex -1.59406 -15.1665 12.5
      vertex -1.4634 -13.9233 12.5
    endloop
  endfacet
  facet normal 0 0 1
    outer loop
      vertex -4.32624 -13.3148 12.5
      vertex -4.71251 -14.5036 12.5
      vertex -1.59406 -15.1665 12.5
    endloop
  endfacet
  facet normal 0 0 1
    outer loop
      vertex -7 -12.1244 12.5
      vertex -4.71251 -14.5036 12.5
      vertex -4.32624 -13.3148 12.5
    endloop
  endfacet
  facet normal 0 0 1
    outer loop
      vertex -7 -12.1244 12.5
      vertex -7.625 -13.2069 12.5
      vertex -4.71251 -14.5036 12.5
    endloop
  endfacet
  facet normal 0 0 1
    outer loop
      vertex -9.36783 -10.404 12.5
      vertex -7.625 -13.2069 12.5
      vertex -7 -12.1244 12.5
    endloop
  endfacet
  facet normal 0 0 1
    outer loop
      vertex -9.36783 -10.404 12.5
      vertex -10.2042 -11.333 12.5
      vertex -7.625 -13.2069 12.5
    endloop
  endfacet
  facet normal 0 0 1
    outer loop
      vertex -11.3262 -8.22899 12.5
      vertex -10.2042 -11.333 12.5
      vertex -9.36783 -10.404 12.5
    endloop
  endfacet
  facet normal 0 0 1
    outer loop
      vertex -11.3262 -8.22899 12.5
      vertex -12.3375 -8.96373 12.5
      vertex -10.2042 -11.333 12.5
    endloop
  endfacet
  facet normal 0 0 1
    outer loop
      vertex -12.7896 -5.69431 12.5
      vertex -12.3375 -8.96373 12.5
      vertex -11.3262 -8.22899 12.5
    endloop
  endfacet
  facet normal 0 0 1
    outer loop
      vertex -13.9316 -6.20273 12.5
      vertex -12.7896 -5.69431 12.5
      vertex -13.6941 -2.91076 12.5
    endloop
  endfacet
  facet normal 0 0 1
    outer loop
      vertex -12.7896 -5.69431 12.5
      vertex -13.9316 -6.20273 12.5
      vertex -12.3375 -8.96373 12.5
    endloop
  endfacet
  facet normal -0 0 1
    outer loop
      vertex -14 -0.344095 12.5
      vertex -13.6941 -2.91076 12.5
      vertex -13.9638 -0.344095 12.5
    endloop
  endfacet
  facet normal 0 0 1
    outer loop
      vertex -13.6941 -2.91076 12.5
      vertex -14 -0.344095 12.5
      vertex -14.9168 -3.17065 12.5
    endloop
  endfacet
  facet normal 0 0 1
    outer loop
      vertex -14 0.344095 12.5
      vertex -15.25 0 12.5
      vertex -14 -0.344095 12.5
    endloop
  endfacet
  facet normal 0 0 1
    outer loop
      vertex -13.6941 -2.91076 12.5
      vertex -14.9168 -3.17065 12.5
      vertex -13.9316 -6.20273 12.5
    endloop
  endfacet
  facet normal 0 0 1
    outer loop
      vertex -14 -0.344095 12.5
      vertex -15.25 0 12.5
      vertex -14.9168 -3.17065 12.5
    endloop
  endfacet
  facet normal -0.406737 0.913545 0
    outer loop
      vertex -4.71251 14.5036 8.5
      vertex -7.625 13.2069 12.5
      vertex -4.71251 14.5036 12.5
    endloop
  endfacet
  facet normal -0.406737 0.913545 0
    outer loop
      vertex -7.625 13.2069 12.5
      vertex -4.71251 14.5036 8.5
      vertex -7.625 13.2069 8.5
    endloop
  endfacet
  facet normal 0.866025 0.5 0
    outer loop
      vertex 13.9316 6.20273 12.5
      vertex 12.3375 8.96373 8.5
      vertex 12.3375 8.96373 12.5
    endloop
  endfacet
  facet normal 0.866025 0.5 0
    outer loop
      vertex 12.3375 8.96373 8.5
      vertex 13.9316 6.20273 12.5
      vertex 13.9316 6.20273 8.5
    endloop
  endfacet
  facet normal 0.951057 0.309017 0
    outer loop
      vertex 14.9168 3.17065 12.5
      vertex 13.9316 6.20273 8.5
      vertex 13.9316 6.20273 12.5
    endloop
  endfacet
  facet normal 0.951057 0.309017 0
    outer loop
      vertex 13.9316 6.20273 8.5
      vertex 14.9168 3.17065 12.5
      vertex 14.9168 3.17065 8.5
    endloop
  endfacet
  facet normal 0.743145 0.669131 0
    outer loop
      vertex 12.3375 8.96373 12.5
      vertex 10.2042 11.333 8.5
      vertex 10.2042 11.333 12.5
    endloop
  endfacet
  facet normal 0.743145 0.669131 0
    outer loop
      vertex 10.2042 11.333 8.5
      vertex 12.3375 8.96373 12.5
      vertex 12.3375 8.96373 8.5
    endloop
  endfacet
  facet normal 0.207912 0.978148 -0
    outer loop
      vertex 4.71251 14.5036 8.5
      vertex 1.59406 15.1665 12.5
      vertex 4.71251 14.5036 12.5
    endloop
  endfacet
  facet normal 0.207912 0.978148 0
    outer loop
      vertex 1.59406 15.1665 12.5
      vertex 4.71251 14.5036 8.5
      vertex 1.59406 15.1665 8.5
    endloop
  endfacet
  facet normal -0.866025 0.5 0
    outer loop
      vertex -13.9316 6.20273 8.5
      vertex -12.3375 8.96373 12.5
      vertex -12.3375 8.96373 8.5
    endloop
  endfacet
  facet normal -0.866025 0.5 0
    outer loop
      vertex -12.3375 8.96373 12.5
      vertex -13.9316 6.20273 8.5
      vertex -13.9316 6.20273 12.5
    endloop
  endfacet
  facet normal -0.951057 0.309017 0
    outer loop
      vertex -14.9168 3.17065 8.5
      vertex -13.9316 6.20273 12.5
      vertex -13.9316 6.20273 8.5
    endloop
  endfacet
  facet normal -0.951057 0.309017 0
    outer loop
      vertex -13.9316 6.20273 12.5
      vertex -14.9168 3.17065 8.5
      vertex -14.9168 3.17065 12.5
    endloop
  endfacet
  facet normal -0.587785 0.809017 0
    outer loop
      vertex -7.625 13.2069 8.5
      vertex -10.2042 11.333 12.5
      vertex -7.625 13.2069 12.5
    endloop
  endfacet
  facet normal -0.587785 0.809017 0
    outer loop
      vertex -10.2042 11.333 12.5
      vertex -7.625 13.2069 8.5
      vertex -10.2042 11.333 8.5
    endloop
  endfacet
  facet normal -0.207912 0.978148 0
    outer loop
      vertex -1.59406 15.1665 8.5
      vertex -4.71251 14.5036 12.5
      vertex -1.59406 15.1665 12.5
    endloop
  endfacet
  facet normal -0.207912 0.978148 0
    outer loop
      vertex -4.71251 14.5036 12.5
      vertex -1.59406 15.1665 8.5
      vertex -4.71251 14.5036 8.5
    endloop
  endfacet
  facet normal 0.994522 -0.104528 0
    outer loop
      vertex 14.9168 -3.17065 12.5
      vertex 15.25 0 8.5
      vertex 15.25 0 12.5
    endloop
  endfacet
  facet normal 0.994522 -0.104528 0
    outer loop
      vertex 15.25 0 8.5
      vertex 14.9168 -3.17065 12.5
      vertex 14.9168 -3.17065 8.5
    endloop
  endfacet
  facet normal 0.207912 -0.978148 0
    outer loop
      vertex 1.59406 -15.1665 8.5
      vertex 4.71251 -14.5036 12.5
      vertex 1.59406 -15.1665 12.5
    endloop
  endfacet
  facet normal 0.207912 -0.978148 0
    outer loop
      vertex 4.71251 -14.5036 12.5
      vertex 1.59406 -15.1665 8.5
      vertex 4.71251 -14.5036 8.5
    endloop
  endfacet
  facet normal 0.743145 -0.669131 0
    outer loop
      vertex 10.2042 -11.333 12.5
      vertex 12.3375 -8.96373 8.5
      vertex 12.3375 -8.96373 12.5
    endloop
  endfacet
  facet normal 0.743145 -0.669131 0
    outer loop
      vertex 12.3375 -8.96373 8.5
      vertex 10.2042 -11.333 12.5
      vertex 10.2042 -11.333 8.5
    endloop
  endfacet
  facet normal 0.951057 -0.309017 0
    outer loop
      vertex 13.9316 -6.20273 12.5
      vertex 14.9168 -3.17065 8.5
      vertex 14.9168 -3.17065 12.5
    endloop
  endfacet
  facet normal 0.951057 -0.309017 0
    outer loop
      vertex 14.9168 -3.17065 8.5
      vertex 13.9316 -6.20273 12.5
      vertex 13.9316 -6.20273 8.5
    endloop
  endfacet
  facet normal 0.866025 -0.5 0
    outer loop
      vertex 12.3375 -8.96373 12.5
      vertex 13.9316 -6.20273 8.5
      vertex 13.9316 -6.20273 12.5
    endloop
  endfacet
  facet normal 0.866025 -0.5 0
    outer loop
      vertex 13.9316 -6.20273 8.5
      vertex 12.3375 -8.96373 12.5
      vertex 12.3375 -8.96373 8.5
    endloop
  endfacet
  facet normal -0.866025 -0.5 0
    outer loop
      vertex -12.3375 -8.96373 8.5
      vertex -13.9316 -6.20273 12.5
      vertex -13.9316 -6.20273 8.5
    endloop
  endfacet
  facet normal -0.866025 -0.5 0
    outer loop
      vertex -13.9316 -6.20273 12.5
      vertex -12.3375 -8.96373 8.5
      vertex -12.3375 -8.96373 12.5
    endloop
  endfacet
  facet normal 0.587785 -0.809017 0
    outer loop
      vertex 7.625 -13.2069 8.5
      vertex 10.2042 -11.333 12.5
      vertex 7.625 -13.2069 12.5
    endloop
  endfacet
  facet normal 0.587785 -0.809017 0
    outer loop
      vertex 10.2042 -11.333 12.5
      vertex 7.625 -13.2069 8.5
      vertex 10.2042 -11.333 8.5
    endloop
  endfacet
  facet normal 0.406737 -0.913545 0
    outer loop
      vertex 4.71251 -14.5036 8.5
      vertex 7.625 -13.2069 12.5
      vertex 4.71251 -14.5036 12.5
    endloop
  endfacet
  facet normal 0.406737 -0.913545 0
    outer loop
      vertex 7.625 -13.2069 12.5
      vertex 4.71251 -14.5036 8.5
      vertex 7.625 -13.2069 8.5
    endloop
  endfacet
  facet normal -0.207912 -0.978148 0
    outer loop
      vertex -4.71251 -14.5036 8.5
      vertex -1.59406 -15.1665 12.5
      vertex -4.71251 -14.5036 12.5
    endloop
  endfacet
  facet normal -0.207912 -0.978148 -0
    outer loop
      vertex -1.59406 -15.1665 12.5
      vertex -4.71251 -14.5036 8.5
      vertex -1.59406 -15.1665 8.5
    endloop
  endfacet
  facet normal -0.406737 -0.913545 0
    outer loop
      vertex -7.625 -13.2069 8.5
      vertex -4.71251 -14.5036 12.5
      vertex -7.625 -13.2069 12.5
    endloop
  endfacet
  facet normal -0.406737 -0.913545 -0
    outer loop
      vertex -4.71251 -14.5036 12.5
      vertex -7.625 -13.2069 8.5
      vertex -4.71251 -14.5036 8.5
    endloop
  endfacet
  facet normal -0.743145 -0.669131 0
    outer loop
      vertex -10.2042 -11.333 8.5
      vertex -12.3375 -8.96373 12.5
      vertex -12.3375 -8.96373 8.5
    endloop
  endfacet
  facet normal -0.743145 -0.669131 0
    outer loop
      vertex -12.3375 -8.96373 12.5
      vertex -10.2042 -11.333 8.5
      vertex -10.2042 -11.333 12.5
    endloop
  endfacet
  facet normal -0.951057 -0.309017 0
    outer loop
      vertex -13.9316 -6.20273 8.5
      vertex -14.9168 -3.17065 12.5
      vertex -14.9168 -3.17065 8.5
    endloop
  endfacet
  facet normal -0.951057 -0.309017 0
    outer loop
      vertex -14.9168 -3.17065 12.5
      vertex -13.9316 -6.20273 8.5
      vertex -13.9316 -6.20273 12.5
    endloop
  endfacet
  facet normal -0.994522 -0.104528 0
    outer loop
      vertex -14.9168 -3.17065 8.5
      vertex -15.25 0 12.5
      vertex -15.25 0 8.5
    endloop
  endfacet
  facet normal -0.994522 -0.104528 0
    outer loop
      vertex -15.25 0 12.5
      vertex -14.9168 -3.17065 8.5
      vertex -14.9168 -3.17065 12.5
    endloop
  endfacet
  facet normal -0.587785 -0.809017 0
    outer loop
      vertex -10.2042 -11.333 8.5
      vertex -7.625 -13.2069 12.5
      vertex -10.2042 -11.333 12.5
    endloop
  endfacet
  facet normal -0.587785 -0.809017 -0
    outer loop
      vertex -7.625 -13.2069 12.5
      vertex -10.2042 -11.333 8.5
      vertex -7.625 -13.2069 8.5
    endloop
  endfacet
  facet normal 0 -0.587785 0.809017
    outer loop
      vertex -13.875 1.18882 13.1137
      vertex -6 0 12.25
      vertex -6 1.18882 13.1137
    endloop
  endfacet
  facet normal 4.06276e-010 -0.587785 0.809017
    outer loop
      vertex -13.9638 0.344095 12.5
      vertex -6 0 12.25
      vertex -13.875 1.18882 13.1137
    endloop
  endfacet
  facet normal 0 -0.587785 0.809017
    outer loop
      vertex -14 0 12.25
      vertex -13.9638 0.344095 12.5
      vertex -14 0.344095 12.5
    endloop
  endfacet
  facet normal 0 -0.587785 0.809017
    outer loop
      vertex -13.9638 0.344095 12.5
      vertex -14 0 12.25
      vertex -6 0 12.25
    endloop
  endfacet
  facet normal 0 0 -1
    outer loop
      vertex -14 -0.734731 14.5113
      vertex -6 0.734731 14.5113
      vertex -6 -0.734731 14.5113
    endloop
  endfacet
  facet normal -0 0 -1
    outer loop
      vertex -6 0.734731 14.5113
      vertex -14 -0.734731 14.5113
      vertex -14 0.734731 14.5113
    endloop
  endfacet
  facet normal -0 -0.951057 -0.309015
    outer loop
      vertex -13.9224 0.738393 14.5
      vertex -14 0.734731 14.5113
      vertex -14 0.738393 14.5
    endloop
  endfacet
  facet normal 0 -0.951057 -0.309015
    outer loop
      vertex -14 0.734731 14.5113
      vertex -13.9224 0.738393 14.5
      vertex -6 0.734731 14.5113
    endloop
  endfacet
  facet normal 3.23406e-009 -0.951056 -0.309017
    outer loop
      vertex -13.875 1.18882 13.1137
      vertex -6 0.734731 14.5113
      vertex -13.9224 0.738393 14.5
    endloop
  endfacet
  facet normal 0 -0.951056 -0.309017
    outer loop
      vertex -6 0.734731 14.5113
      vertex -13.875 1.18882 13.1137
      vertex -6 1.18882 13.1137
    endloop
  endfacet
  facet normal -1 0 0
    outer loop
      vertex -6 0 12.25
      vertex -6 0.734731 14.5113
      vertex -6 1.18882 13.1137
    endloop
  endfacet
  facet normal -1 0 0
    outer loop
      vertex -6 0 12.25
      vertex -6 -0.734731 14.5113
      vertex -6 0.734731 14.5113
    endloop
  endfacet
  facet normal -1 0 -0
    outer loop
      vertex -6 -0.734731 14.5113
      vertex -6 0 12.25
      vertex -6 -1.18882 13.1137
    endloop
  endfacet
  facet normal 0 0.951057 -0.309015
    outer loop
      vertex -6 -0.734731 14.5113
      vertex -13.9224 -0.738393 14.5
      vertex -14 -0.734731 14.5113
    endloop
  endfacet
  facet normal 0 0.951056 -0.309017
    outer loop
      vertex -13.875 -1.18882 13.1137
      vertex -6 -0.734731 14.5113
      vertex -6 -1.18882 13.1137
    endloop
  endfacet
  facet normal 3.23406e-009 0.951056 -0.309017
    outer loop
      vertex -6 -0.734731 14.5113
      vertex -13.875 -1.18882 13.1137
      vertex -13.9224 -0.738393 14.5
    endloop
  endfacet
  facet normal 0 0.951057 -0.309015
    outer loop
      vertex -14 -0.734731 14.5113
      vertex -13.9224 -0.738393 14.5
      vertex -14 -0.738393 14.5
    endloop
  endfacet
  facet normal 1 -0 0
    outer loop
      vertex -14 -0.734731 14.5113
      vertex -14 0.738393 14.5
      vertex -14 0.734731 14.5113
    endloop
  endfacet
  facet normal 1 0 0
    outer loop
      vertex -14 0.738393 14.5
      vertex -14 -0.734731 14.5113
      vertex -14 -0.738393 14.5
    endloop
  endfacet
  facet normal 1 0 -0
    outer loop
      vertex -14 0 12.25
      vertex -14 0.344095 12.5
      vertex -14 -0.344095 12.5
    endloop
  endfacet
  facet normal 0 0.587785 0.809017
    outer loop
      vertex -6 0 12.25
      vertex -13.875 -1.18882 13.1137
      vertex -6 -1.18882 13.1137
    endloop
  endfacet
  facet normal 4.06276e-010 0.587785 0.809017
    outer loop
      vertex -6 0 12.25
      vertex -13.9638 -0.344095 12.5
      vertex -13.875 -1.18882 13.1137
    endloop
  endfacet
  facet normal -0 0.587785 0.809017
    outer loop
      vertex -14 0 12.25
      vertex -13.9638 -0.344095 12.5
      vertex -6 0 12.25
    endloop
  endfacet
  facet normal 0 0.587785 0.809017
    outer loop
      vertex -13.9638 -0.344095 12.5
      vertex -14 0 12.25
      vertex -14 -0.344095 12.5
    endloop
  endfacet
endsolid OpenSCAD_Model
