solid OpenSCAD_Model
  facet normal -1 0 0
    outer loop
      vertex 16.99 8 0
      vertex 16.99 31.05 12
      vertex 16.99 31.05 0
    endloop
  endfacet
  facet normal -1 -0 0
    outer loop
      vertex 16.99 31.05 12
      vertex 16.99 8 0
      vertex 16.99 8 12
    endloop
  endfacet
  facet normal 0 -1 0
    outer loop
      vertex 13.49 31.05 0
      vertex 16.99 31.05 12
      vertex 13.49 31.05 12
    endloop
  endfacet
  facet normal 0 -1 -0
    outer loop
      vertex 16.99 31.05 12
      vertex 13.49 31.05 0
      vertex 16.99 31.05 0
    endloop
  endfacet
  facet normal 0 -1 0
    outer loop
      vertex 0 31.05 0
      vertex 9.49 31.05 12
      vertex 0 31.05 12
    endloop
  endfacet
  facet normal 0 -1 -0
    outer loop
      vertex 9.49 31.05 12
      vertex 0 31.05 0
      vertex 9.49 31.05 0
    endloop
  endfacet
  facet normal 0 0 -1
    outer loop
      vertex 1.5 52.25 0
      vertex 3 56.05 0
      vertex 3 52.25 0
    endloop
  endfacet
  facet normal -0 0 -1
    outer loop
      vertex 3 56.05 0
      vertex 1.5 52.25 0
      vertex 1.5 56.05 0
    endloop
  endfacet
  facet normal 0 0 -1
    outer loop
      vertex 1.5 45.25 0
      vertex 3 49.05 0
      vertex 3 45.25 0
    endloop
  endfacet
  facet normal -0 0 -1
    outer loop
      vertex 3 49.05 0
      vertex 1.5 45.25 0
      vertex 1.5 49.05 0
    endloop
  endfacet
  facet normal 0 0 -1
    outer loop
      vertex 1.5 35.5 0
      vertex 3 42.05 0
      vertex 3 35.5 0
    endloop
  endfacet
  facet normal -0 0 -1
    outer loop
      vertex 3 42.05 0
      vertex 1.5 35.5 0
      vertex 1.5 42.05 0
    endloop
  endfacet
  facet normal 0 0 -1
    outer loop
      vertex 3 35.5 0
      vertex 9.49 31.05 0
      vertex 3 32.3 0
    endloop
  endfacet
  facet normal 0 0 -1
    outer loop
      vertex 0 31.05 0
      vertex 3 32.3 0
      vertex 9.49 31.05 0
    endloop
  endfacet
  facet normal 0 0 -1
    outer loop
      vertex 0 31.05 0
      vertex 1.5 35.5 0
      vertex 1.5 32.3 0
    endloop
  endfacet
  facet normal -0 0 -1
    outer loop
      vertex 1.5 35.5 0
      vertex 0 31.05 0
      vertex 1.5 42.05 0
    endloop
  endfacet
  facet normal -0 0 -1
    outer loop
      vertex 1.5 42.05 0
      vertex 0 31.05 0
      vertex 1.5 45.25 0
    endloop
  endfacet
  facet normal -0 0 -1
    outer loop
      vertex 1.5 45.25 0
      vertex 0 31.05 0
      vertex 1.5 49.05 0
    endloop
  endfacet
  facet normal 0 0 -1
    outer loop
      vertex 0 63.05 0
      vertex 1.5 49.05 0
      vertex 0 31.05 0
    endloop
  endfacet
  facet normal 0 0 -1
    outer loop
      vertex 1.5 49.05 0
      vertex 0 63.05 0
      vertex 1.5 52.25 0
    endloop
  endfacet
  facet normal 0 0 -1
    outer loop
      vertex 1.5 52.25 0
      vertex 0 63.05 0
      vertex 1.5 56.05 0
    endloop
  endfacet
  facet normal -0 0 -1
    outer loop
      vertex 3 32.3 0
      vertex 0 31.05 0
      vertex 1.5 32.3 0
    endloop
  endfacet
  facet normal 0 0 -1
    outer loop
      vertex 20.75 52.25 0
      vertex 22.25 56.05 0
      vertex 22.25 52.25 0
    endloop
  endfacet
  facet normal -0 0 -1
    outer loop
      vertex 22.25 56.05 0
      vertex 20.75 52.25 0
      vertex 20.75 56.05 0
    endloop
  endfacet
  facet normal 0 0 -1
    outer loop
      vertex 20.75 45.25 0
      vertex 22.25 49.05 0
      vertex 22.25 45.25 0
    endloop
  endfacet
  facet normal -0 0 -1
    outer loop
      vertex 22.25 49.05 0
      vertex 20.75 45.25 0
      vertex 20.75 49.05 0
    endloop
  endfacet
  facet normal 0 0 -1
    outer loop
      vertex 23.75 0 0
      vertex 22.25 42.05 0
      vertex 23.75 63.05 0
    endloop
  endfacet
  facet normal 0 0 -1
    outer loop
      vertex 16.99 31.05 0
      vertex 22.25 42.05 0
      vertex 23.75 0 0
    endloop
  endfacet
  facet normal 0 0 -1
    outer loop
      vertex 13.49 39.95 0
      vertex 20.75 45.25 0
      vertex 20.75 42.05 0
    endloop
  endfacet
  facet normal -0 0 -1
    outer loop
      vertex 20.75 45.25 0
      vertex 13.49 39.95 0
      vertex 20.75 49.05 0
    endloop
  endfacet
  facet normal 0 0 -1
    outer loop
      vertex 3 49.05 0
      vertex 20.75 49.05 0
      vertex 13.49 39.95 0
    endloop
  endfacet
  facet normal 0 0 -1
    outer loop
      vertex 20.75 49.05 0
      vertex 3 49.05 0
      vertex 20.75 52.25 0
    endloop
  endfacet
  facet normal -0 0 -1
    outer loop
      vertex 22.25 42.05 0
      vertex 16.99 31.05 0
      vertex 20.75 42.05 0
    endloop
  endfacet
  facet normal 0 0 -1
    outer loop
      vertex 16.99 31.05 0
      vertex 23.75 0 0
      vertex 16.99 8 0
    endloop
  endfacet
  facet normal 0 0 -1
    outer loop
      vertex 23.75 0 0
      vertex 3 3.55 0
      vertex 16.99 8 0
    endloop
  endfacet
  facet normal 0 0 -1
    outer loop
      vertex 0 0 0
      vertex 3 3.55 0
      vertex 23.75 0 0
    endloop
  endfacet
  facet normal 0 0 -1
    outer loop
      vertex 0 8 0
      vertex 1.5 3.55 0
      vertex 0 0 0
    endloop
  endfacet
  facet normal -0 0 -1
    outer loop
      vertex 3 3.55 0
      vertex 0 0 0
      vertex 1.5 3.55 0
    endloop
  endfacet
  facet normal 0 0 -1
    outer loop
      vertex 22.25 45.25 0
      vertex 23.75 63.05 0
      vertex 22.25 42.05 0
    endloop
  endfacet
  facet normal 0 0 -1
    outer loop
      vertex 22.25 49.05 0
      vertex 23.75 63.05 0
      vertex 22.25 45.25 0
    endloop
  endfacet
  facet normal 0 0 -1
    outer loop
      vertex 22.25 52.25 0
      vertex 23.75 63.05 0
      vertex 22.25 49.05 0
    endloop
  endfacet
  facet normal 0 0 -1
    outer loop
      vertex 22.25 56.05 0
      vertex 23.75 63.05 0
      vertex 22.25 52.25 0
    endloop
  endfacet
  facet normal 0 0 -1
    outer loop
      vertex 22.25 59.25 0
      vertex 23.75 63.05 0
      vertex 22.25 56.05 0
    endloop
  endfacet
  facet normal 0 0 -1
    outer loop
      vertex 20.75 59.25 0
      vertex 23.75 63.05 0
      vertex 22.25 59.25 0
    endloop
  endfacet
  facet normal 0 0 -1
    outer loop
      vertex 13.49 39.95 0
      vertex 20.75 42.05 0
      vertex 16.99 31.05 0
    endloop
  endfacet
  facet normal 0 0 -1
    outer loop
      vertex 13.49 39.95 0
      vertex 16.99 31.05 0
      vertex 13.49 31.05 0
    endloop
  endfacet
  facet normal 0 0 -1
    outer loop
      vertex 3 52.25 0
      vertex 20.75 52.25 0
      vertex 3 49.05 0
    endloop
  endfacet
  facet normal 0 0 -1
    outer loop
      vertex 3 49.05 0
      vertex 13.49 39.95 0
      vertex 9.49 39.95 0
    endloop
  endfacet
  facet normal 0 0 -1
    outer loop
      vertex 9.49 31.05 0
      vertex 3 35.5 0
      vertex 9.49 39.95 0
    endloop
  endfacet
  facet normal 0 0 -1
    outer loop
      vertex 3 42.05 0
      vertex 9.49 39.95 0
      vertex 3 35.5 0
    endloop
  endfacet
  facet normal 0 0 -1
    outer loop
      vertex 3 45.25 0
      vertex 9.49 39.95 0
      vertex 3 42.05 0
    endloop
  endfacet
  facet normal 0 0 -1
    outer loop
      vertex 3 49.05 0
      vertex 9.49 39.95 0
      vertex 3 45.25 0
    endloop
  endfacet
  facet normal 0 0 -1
    outer loop
      vertex 20.75 52.25 0
      vertex 3 52.25 0
      vertex 20.75 56.05 0
    endloop
  endfacet
  facet normal 0 0 -1
    outer loop
      vertex 3 56.05 0
      vertex 20.75 56.05 0
      vertex 3 52.25 0
    endloop
  endfacet
  facet normal 0 0 -1
    outer loop
      vertex 20.75 56.05 0
      vertex 3 56.05 0
      vertex 20.75 59.25 0
    endloop
  endfacet
  facet normal 0 0 -1
    outer loop
      vertex 3 59.25 0
      vertex 20.75 59.25 0
      vertex 3 56.05 0
    endloop
  endfacet
  facet normal 0 0 -1
    outer loop
      vertex 20.75 59.25 0
      vertex 3 59.25 0
      vertex 23.75 63.05 0
    endloop
  endfacet
  facet normal 0 0 -1
    outer loop
      vertex 0 63.05 0
      vertex 3 59.25 0
      vertex 1.5 59.25 0
    endloop
  endfacet
  facet normal 0 0 -1
    outer loop
      vertex 3 59.25 0
      vertex 0 63.05 0
      vertex 23.75 63.05 0
    endloop
  endfacet
  facet normal 0 0 -1
    outer loop
      vertex 1.5 56.05 0
      vertex 0 63.05 0
      vertex 1.5 59.25 0
    endloop
  endfacet
  facet normal 0 0 -1
    outer loop
      vertex 3 6.75 0
      vertex 16.99 8 0
      vertex 3 3.55 0
    endloop
  endfacet
  facet normal 0 0 -1
    outer loop
      vertex 0 8 0
      vertex 3 6.75 0
      vertex 1.5 6.75 0
    endloop
  endfacet
  facet normal 0 0 -1
    outer loop
      vertex 3 6.75 0
      vertex 0 8 0
      vertex 16.99 8 0
    endloop
  endfacet
  facet normal 0 0 -1
    outer loop
      vertex 1.5 3.55 0
      vertex 0 8 0
      vertex 1.5 6.75 0
    endloop
  endfacet
  facet normal 0 1 -0
    outer loop
      vertex 16.99 8 0
      vertex 0 8 12
      vertex 16.99 8 12
    endloop
  endfacet
  facet normal 0 1 0
    outer loop
      vertex 0 8 12
      vertex 16.99 8 0
      vertex 0 8 0
    endloop
  endfacet
  facet normal 1 -0 0
    outer loop
      vertex 9.49 31.05 12
      vertex 9.49 39.95 0
      vertex 9.49 39.95 12
    endloop
  endfacet
  facet normal 1 0 0
    outer loop
      vertex 9.49 39.95 0
      vertex 9.49 31.05 12
      vertex 9.49 31.05 0
    endloop
  endfacet
  facet normal -1 0 0
    outer loop
      vertex 13.49 31.05 0
      vertex 13.49 39.95 12
      vertex 13.49 39.95 0
    endloop
  endfacet
  facet normal -1 -0 0
    outer loop
      vertex 13.49 39.95 12
      vertex 13.49 31.05 0
      vertex 13.49 31.05 12
    endloop
  endfacet
  facet normal 0 -1 0
    outer loop
      vertex 9.49 39.95 0
      vertex 13.49 39.95 12
      vertex 9.49 39.95 12
    endloop
  endfacet
  facet normal 0 -1 -0
    outer loop
      vertex 13.49 39.95 12
      vertex 9.49 39.95 0
      vertex 13.49 39.95 0
    endloop
  endfacet
  facet normal 1 -0 0
    outer loop
      vertex 1.5 56.05 12
      vertex 1.5 59.25 0
      vertex 1.5 59.25 12
    endloop
  endfacet
  facet normal 1 0 0
    outer loop
      vertex 1.5 59.25 0
      vertex 1.5 56.05 12
      vertex 1.5 56.05 0
    endloop
  endfacet
  facet normal -1 0 0
    outer loop
      vertex 3 56.05 0
      vertex 3 59.25 12
      vertex 3 59.25 0
    endloop
  endfacet
  facet normal -1 -0 0
    outer loop
      vertex 3 59.25 12
      vertex 3 56.05 0
      vertex 3 56.05 12
    endloop
  endfacet
  facet normal 0 1 -0
    outer loop
      vertex 3 56.05 0
      vertex 1.5 56.05 12
      vertex 3 56.05 12
    endloop
  endfacet
  facet normal 0 1 0
    outer loop
      vertex 1.5 56.05 12
      vertex 3 56.05 0
      vertex 1.5 56.05 0
    endloop
  endfacet
  facet normal 0 -1 0
    outer loop
      vertex 1.5 59.25 0
      vertex 3 59.25 12
      vertex 1.5 59.25 12
    endloop
  endfacet
  facet normal 0 -1 -0
    outer loop
      vertex 3 59.25 12
      vertex 1.5 59.25 0
      vertex 3 59.25 0
    endloop
  endfacet
  facet normal 1 -0 0
    outer loop
      vertex 20.75 56.05 12
      vertex 20.75 59.25 0
      vertex 20.75 59.25 12
    endloop
  endfacet
  facet normal 1 0 0
    outer loop
      vertex 20.75 59.25 0
      vertex 20.75 56.05 12
      vertex 20.75 56.05 0
    endloop
  endfacet
  facet normal -1 0 0
    outer loop
      vertex 22.25 56.05 0
      vertex 22.25 59.25 12
      vertex 22.25 59.25 0
    endloop
  endfacet
  facet normal -1 -0 0
    outer loop
      vertex 22.25 59.25 12
      vertex 22.25 56.05 0
      vertex 22.25 56.05 12
    endloop
  endfacet
  facet normal 0 -1 0
    outer loop
      vertex 20.75 59.25 0
      vertex 22.25 59.25 12
      vertex 20.75 59.25 12
    endloop
  endfacet
  facet normal 0 -1 -0
    outer loop
      vertex 22.25 59.25 12
      vertex 20.75 59.25 0
      vertex 22.25 59.25 0
    endloop
  endfacet
  facet normal 0 1 -0
    outer loop
      vertex 22.25 56.05 0
      vertex 20.75 56.05 12
      vertex 22.25 56.05 12
    endloop
  endfacet
  facet normal 0 1 0
    outer loop
      vertex 20.75 56.05 12
      vertex 22.25 56.05 0
      vertex 20.75 56.05 0
    endloop
  endfacet
  facet normal 1 -0 0
    outer loop
      vertex 1.5 49.05 12
      vertex 1.5 52.25 0
      vertex 1.5 52.25 12
    endloop
  endfacet
  facet normal 1 0 0
    outer loop
      vertex 1.5 52.25 0
      vertex 1.5 49.05 12
      vertex 1.5 49.05 0
    endloop
  endfacet
  facet normal -1 0 0
    outer loop
      vertex 3 49.05 0
      vertex 3 52.25 12
      vertex 3 52.25 0
    endloop
  endfacet
  facet normal -1 -0 0
    outer loop
      vertex 3 52.25 12
      vertex 3 49.05 0
      vertex 3 49.05 12
    endloop
  endfacet
  facet normal 0 -1 0
    outer loop
      vertex 1.5 52.25 0
      vertex 3 52.25 12
      vertex 1.5 52.25 12
    endloop
  endfacet
  facet normal 0 -1 -0
    outer loop
      vertex 3 52.25 12
      vertex 1.5 52.25 0
      vertex 3 52.25 0
    endloop
  endfacet
  facet normal 0 1 -0
    outer loop
      vertex 3 49.05 0
      vertex 1.5 49.05 12
      vertex 3 49.05 12
    endloop
  endfacet
  facet normal 0 1 0
    outer loop
      vertex 1.5 49.05 12
      vertex 3 49.05 0
      vertex 1.5 49.05 0
    endloop
  endfacet
  facet normal 1 -0 0
    outer loop
      vertex 20.75 49.05 12
      vertex 20.75 52.25 0
      vertex 20.75 52.25 12
    endloop
  endfacet
  facet normal 1 0 0
    outer loop
      vertex 20.75 52.25 0
      vertex 20.75 49.05 12
      vertex 20.75 49.05 0
    endloop
  endfacet
  facet normal -1 0 0
    outer loop
      vertex 22.25 49.05 0
      vertex 22.25 52.25 12
      vertex 22.25 52.25 0
    endloop
  endfacet
  facet normal -1 -0 0
    outer loop
      vertex 22.25 52.25 12
      vertex 22.25 49.05 0
      vertex 22.25 49.05 12
    endloop
  endfacet
  facet normal 0 -1 0
    outer loop
      vertex 20.75 52.25 0
      vertex 22.25 52.25 12
      vertex 20.75 52.25 12
    endloop
  endfacet
  facet normal 0 -1 -0
    outer loop
      vertex 22.25 52.25 12
      vertex 20.75 52.25 0
      vertex 22.25 52.25 0
    endloop
  endfacet
  facet normal 0 1 -0
    outer loop
      vertex 22.25 49.05 0
      vertex 20.75 49.05 12
      vertex 22.25 49.05 12
    endloop
  endfacet
  facet normal 0 1 0
    outer loop
      vertex 20.75 49.05 12
      vertex 22.25 49.05 0
      vertex 20.75 49.05 0
    endloop
  endfacet
  facet normal 1 -0 0
    outer loop
      vertex 1.5 42.05 12
      vertex 1.5 45.25 0
      vertex 1.5 45.25 12
    endloop
  endfacet
  facet normal 1 0 0
    outer loop
      vertex 1.5 45.25 0
      vertex 1.5 42.05 12
      vertex 1.5 42.05 0
    endloop
  endfacet
  facet normal -1 0 0
    outer loop
      vertex 3 42.05 0
      vertex 3 45.25 12
      vertex 3 45.25 0
    endloop
  endfacet
  facet normal -1 -0 0
    outer loop
      vertex 3 45.25 12
      vertex 3 42.05 0
      vertex 3 42.05 12
    endloop
  endfacet
  facet normal 0 -1 0
    outer loop
      vertex 1.5 45.25 0
      vertex 3 45.25 12
      vertex 1.5 45.25 12
    endloop
  endfacet
  facet normal 0 -1 -0
    outer loop
      vertex 3 45.25 12
      vertex 1.5 45.25 0
      vertex 3 45.25 0
    endloop
  endfacet
  facet normal 0 1 -0
    outer loop
      vertex 3 42.05 0
      vertex 1.5 42.05 12
      vertex 3 42.05 12
    endloop
  endfacet
  facet normal 0 1 0
    outer loop
      vertex 1.5 42.05 12
      vertex 3 42.05 0
      vertex 1.5 42.05 0
    endloop
  endfacet
  facet normal 1 -0 0
    outer loop
      vertex 20.75 42.05 12
      vertex 20.75 45.25 0
      vertex 20.75 45.25 12
    endloop
  endfacet
  facet normal 1 0 0
    outer loop
      vertex 20.75 45.25 0
      vertex 20.75 42.05 12
      vertex 20.75 42.05 0
    endloop
  endfacet
  facet normal -1 0 0
    outer loop
      vertex 22.25 42.05 0
      vertex 22.25 45.25 12
      vertex 22.25 45.25 0
    endloop
  endfacet
  facet normal -1 -0 0
    outer loop
      vertex 22.25 45.25 12
      vertex 22.25 42.05 0
      vertex 22.25 42.05 12
    endloop
  endfacet
  facet normal 0 -1 0
    outer loop
      vertex 20.75 45.25 0
      vertex 22.25 45.25 12
      vertex 20.75 45.25 12
    endloop
  endfacet
  facet normal 0 -1 -0
    outer loop
      vertex 22.25 45.25 12
      vertex 20.75 45.25 0
      vertex 22.25 45.25 0
    endloop
  endfacet
  facet normal 0 1 -0
    outer loop
      vertex 22.25 42.05 0
      vertex 20.75 42.05 12
      vertex 22.25 42.05 12
    endloop
  endfacet
  facet normal 0 1 0
    outer loop
      vertex 20.75 42.05 12
      vertex 22.25 42.05 0
      vertex 20.75 42.05 0
    endloop
  endfacet
  facet normal -1 0 0
    outer loop
      vertex 0 0 0
      vertex 0 8 12
      vertex 0 8 0
    endloop
  endfacet
  facet normal -1 -0 0
    outer loop
      vertex 0 8 12
      vertex 0 0 0
      vertex 0 0 12
    endloop
  endfacet
  facet normal -1 0 0
    outer loop
      vertex 0 31.05 0
      vertex 0 63.05 12
      vertex 0 63.05 0
    endloop
  endfacet
  facet normal -1 -0 0
    outer loop
      vertex 0 63.05 12
      vertex 0 31.05 0
      vertex 0 31.05 12
    endloop
  endfacet
  facet normal -0 0 1
    outer loop
      vertex 0 8 12
      vertex 3 6.75 12
      vertex 16.99 8 12
    endloop
  endfacet
  facet normal 0 0 1
    outer loop
      vertex 1.5 6.75 12
      vertex 0 8 12
      vertex 1.5 3.55 12
    endloop
  endfacet
  facet normal 0 0 1
    outer loop
      vertex 3 6.75 12
      vertex 0 8 12
      vertex 1.5 6.75 12
    endloop
  endfacet
  facet normal -0 0 1
    outer loop
      vertex 1.5 42.05 12
      vertex 3 35.5 12
      vertex 3 42.05 12
    endloop
  endfacet
  facet normal 0 0 1
    outer loop
      vertex 3 35.5 12
      vertex 1.5 42.05 12
      vertex 1.5 35.5 12
    endloop
  endfacet
  facet normal -0 0 1
    outer loop
      vertex 1.5 49.05 12
      vertex 3 45.25 12
      vertex 3 49.05 12
    endloop
  endfacet
  facet normal 0 0 1
    outer loop
      vertex 3 45.25 12
      vertex 1.5 49.05 12
      vertex 1.5 45.25 12
    endloop
  endfacet
  facet normal -0 0 1
    outer loop
      vertex 1.5 56.05 12
      vertex 3 52.25 12
      vertex 3 56.05 12
    endloop
  endfacet
  facet normal 0 0 1
    outer loop
      vertex 3 52.25 12
      vertex 1.5 56.05 12
      vertex 1.5 52.25 12
    endloop
  endfacet
  facet normal -0 0 1
    outer loop
      vertex 20.75 49.05 12
      vertex 22.25 45.25 12
      vertex 22.25 49.05 12
    endloop
  endfacet
  facet normal 0 0 1
    outer loop
      vertex 22.25 45.25 12
      vertex 20.75 49.05 12
      vertex 20.75 45.25 12
    endloop
  endfacet
  facet normal -0 0 1
    outer loop
      vertex 20.75 56.05 12
      vertex 22.25 52.25 12
      vertex 22.25 56.05 12
    endloop
  endfacet
  facet normal 0 0 1
    outer loop
      vertex 22.25 52.25 12
      vertex 20.75 56.05 12
      vertex 20.75 52.25 12
    endloop
  endfacet
  facet normal 0 0 1
    outer loop
      vertex 22.25 56.05 12
      vertex 23.75 63.05 12
      vertex 22.25 59.25 12
    endloop
  endfacet
  facet normal 0 0 1
    outer loop
      vertex 23.75 63.05 12
      vertex 20.75 59.25 12
      vertex 22.25 59.25 12
    endloop
  endfacet
  facet normal 0 0 1
    outer loop
      vertex 3 56.05 12
      vertex 20.75 56.05 12
      vertex 20.75 59.25 12
    endloop
  endfacet
  facet normal 0 0 1
    outer loop
      vertex 20.75 56.05 12
      vertex 3 56.05 12
      vertex 20.75 52.25 12
    endloop
  endfacet
  facet normal 0 0 1
    outer loop
      vertex 20.75 52.25 12
      vertex 3 52.25 12
      vertex 20.75 49.05 12
    endloop
  endfacet
  facet normal 0 0 1
    outer loop
      vertex 3 49.05 12
      vertex 20.75 49.05 12
      vertex 3 52.25 12
    endloop
  endfacet
  facet normal 0 0 1
    outer loop
      vertex 20.75 45.25 12
      vertex 13.49 39.95 12
      vertex 20.75 42.05 12
    endloop
  endfacet
  facet normal 0 0 1
    outer loop
      vertex 20.75 42.05 12
      vertex 13.49 39.95 12
      vertex 16.99 31.05 12
    endloop
  endfacet
  facet normal 0 -0 1
    outer loop
      vertex 13.49 39.95 12
      vertex 20.75 49.05 12
      vertex 3 49.05 12
    endloop
  endfacet
  facet normal 0 0 1
    outer loop
      vertex 20.75 52.25 12
      vertex 3 56.05 12
      vertex 3 52.25 12
    endloop
  endfacet
  facet normal 0 0 1
    outer loop
      vertex 3 56.05 12
      vertex 20.75 59.25 12
      vertex 3 59.25 12
    endloop
  endfacet
  facet normal 0 0 1
    outer loop
      vertex 23.75 63.05 12
      vertex 3 59.25 12
      vertex 20.75 59.25 12
    endloop
  endfacet
  facet normal -0 0 1
    outer loop
      vertex 0 63.05 12
      vertex 3 59.25 12
      vertex 23.75 63.05 12
    endloop
  endfacet
  facet normal 0 0 1
    outer loop
      vertex 0 63.05 12
      vertex 1.5 56.05 12
      vertex 1.5 59.25 12
    endloop
  endfacet
  facet normal 0 0 1
    outer loop
      vertex 1.5 56.05 12
      vertex 0 63.05 12
      vertex 1.5 52.25 12
    endloop
  endfacet
  facet normal 0 0 1
    outer loop
      vertex 1.5 52.25 12
      vertex 0 63.05 12
      vertex 1.5 49.05 12
    endloop
  endfacet
  facet normal 0 0 1
    outer loop
      vertex 1.5 49.05 12
      vertex 0 63.05 12
      vertex 1.5 45.25 12
    endloop
  endfacet
  facet normal 0 0 1
    outer loop
      vertex 0 31.05 12
      vertex 1.5 45.25 12
      vertex 0 63.05 12
    endloop
  endfacet
  facet normal 0 0 1
    outer loop
      vertex 1.5 45.25 12
      vertex 0 31.05 12
      vertex 1.5 42.05 12
    endloop
  endfacet
  facet normal 0 0 1
    outer loop
      vertex 1.5 42.05 12
      vertex 0 31.05 12
      vertex 1.5 35.5 12
    endloop
  endfacet
  facet normal 0 0 1
    outer loop
      vertex 3 59.25 12
      vertex 0 63.05 12
      vertex 1.5 59.25 12
    endloop
  endfacet
  facet normal 0 0 1
    outer loop
      vertex 22.25 52.25 12
      vertex 23.75 63.05 12
      vertex 22.25 56.05 12
    endloop
  endfacet
  facet normal 0 0 1
    outer loop
      vertex 22.25 49.05 12
      vertex 23.75 63.05 12
      vertex 22.25 52.25 12
    endloop
  endfacet
  facet normal 0 0 1
    outer loop
      vertex 22.25 45.25 12
      vertex 23.75 63.05 12
      vertex 22.25 49.05 12
    endloop
  endfacet
  facet normal 0 0 1
    outer loop
      vertex 22.25 42.05 12
      vertex 23.75 63.05 12
      vertex 22.25 45.25 12
    endloop
  endfacet
  facet normal 0 0 1
    outer loop
      vertex 23.75 63.05 12
      vertex 22.25 42.05 12
      vertex 23.75 0 12
    endloop
  endfacet
  facet normal 0 0 1
    outer loop
      vertex 16.99 31.05 12
      vertex 22.25 42.05 12
      vertex 20.75 42.05 12
    endloop
  endfacet
  facet normal 0 0 1
    outer loop
      vertex 22.25 42.05 12
      vertex 16.99 31.05 12
      vertex 23.75 0 12
    endloop
  endfacet
  facet normal -0 0 1
    outer loop
      vertex 16.99 8 12
      vertex 23.75 0 12
      vertex 16.99 31.05 12
    endloop
  endfacet
  facet normal 0 0 1
    outer loop
      vertex 3 3.55 12
      vertex 16.99 8 12
      vertex 3 6.75 12
    endloop
  endfacet
  facet normal 0 0 1
    outer loop
      vertex 16.99 8 12
      vertex 3 3.55 12
      vertex 23.75 0 12
    endloop
  endfacet
  facet normal 0 0 1
    outer loop
      vertex 0 0 12
      vertex 3 3.55 12
      vertex 1.5 3.55 12
    endloop
  endfacet
  facet normal 0 0 1
    outer loop
      vertex 3 3.55 12
      vertex 0 0 12
      vertex 23.75 0 12
    endloop
  endfacet
  facet normal 0 0 1
    outer loop
      vertex 0 0 12
      vertex 1.5 3.55 12
      vertex 0 8 12
    endloop
  endfacet
  facet normal 0 0 1
    outer loop
      vertex 16.99 31.05 12
      vertex 13.49 39.95 12
      vertex 13.49 31.05 12
    endloop
  endfacet
  facet normal 0 0 1
    outer loop
      vertex 20.75 49.05 12
      vertex 13.49 39.95 12
      vertex 20.75 45.25 12
    endloop
  endfacet
  facet normal 0 0 1
    outer loop
      vertex 13.49 39.95 12
      vertex 3 49.05 12
      vertex 9.49 39.95 12
    endloop
  endfacet
  facet normal -0 0 1
    outer loop
      vertex 3 45.25 12
      vertex 9.49 39.95 12
      vertex 3 49.05 12
    endloop
  endfacet
  facet normal -0 0 1
    outer loop
      vertex 3 42.05 12
      vertex 9.49 39.95 12
      vertex 3 45.25 12
    endloop
  endfacet
  facet normal 0 0 1
    outer loop
      vertex 3 35.5 12
      vertex 9.49 39.95 12
      vertex 3 42.05 12
    endloop
  endfacet
  facet normal 0 0 1
    outer loop
      vertex 9.49 39.95 12
      vertex 3 35.5 12
      vertex 9.49 31.05 12
    endloop
  endfacet
  facet normal -0 0 1
    outer loop
      vertex 3 32.3 12
      vertex 9.49 31.05 12
      vertex 3 35.5 12
    endloop
  endfacet
  facet normal 0 0 1
    outer loop
      vertex 0 31.05 12
      vertex 3 32.3 12
      vertex 1.5 32.3 12
    endloop
  endfacet
  facet normal 0 0 1
    outer loop
      vertex 3 32.3 12
      vertex 0 31.05 12
      vertex 9.49 31.05 12
    endloop
  endfacet
  facet normal 0 0 1
    outer loop
      vertex 1.5 35.5 12
      vertex 0 31.05 12
      vertex 1.5 32.3 12
    endloop
  endfacet
  facet normal 1 -0 0
    outer loop
      vertex 23.75 0 12
      vertex 23.75 63.05 0
      vertex 23.75 63.05 12
    endloop
  endfacet
  facet normal 1 0 0
    outer loop
      vertex 23.75 63.05 0
      vertex 23.75 0 12
      vertex 23.75 0 0
    endloop
  endfacet
  facet normal 0 1 -0
    outer loop
      vertex 23.75 63.05 0
      vertex 0 63.05 12
      vertex 23.75 63.05 12
    endloop
  endfacet
  facet normal 0 1 0
    outer loop
      vertex 0 63.05 12
      vertex 23.75 63.05 0
      vertex 0 63.05 0
    endloop
  endfacet
  facet normal 0 -1 0
    outer loop
      vertex 0 0 0
      vertex 23.75 0 12
      vertex 0 0 12
    endloop
  endfacet
  facet normal 0 -1 -0
    outer loop
      vertex 23.75 0 12
      vertex 0 0 0
      vertex 23.75 0 0
    endloop
  endfacet
  facet normal 1 -0 0
    outer loop
      vertex 1.5 3.55 12
      vertex 1.5 6.75 0
      vertex 1.5 6.75 12
    endloop
  endfacet
  facet normal 1 0 0
    outer loop
      vertex 1.5 6.75 0
      vertex 1.5 3.55 12
      vertex 1.5 3.55 0
    endloop
  endfacet
  facet normal -1 0 0
    outer loop
      vertex 3 3.55 0
      vertex 3 6.75 12
      vertex 3 6.75 0
    endloop
  endfacet
  facet normal -1 -0 0
    outer loop
      vertex 3 6.75 12
      vertex 3 3.55 0
      vertex 3 3.55 12
    endloop
  endfacet
  facet normal 0 -1 0
    outer loop
      vertex 1.5 6.75 0
      vertex 3 6.75 12
      vertex 1.5 6.75 12
    endloop
  endfacet
  facet normal 0 -1 -0
    outer loop
      vertex 3 6.75 12
      vertex 1.5 6.75 0
      vertex 3 6.75 0
    endloop
  endfacet
  facet normal 0 1 -0
    outer loop
      vertex 3 3.55 0
      vertex 1.5 3.55 12
      vertex 3 3.55 12
    endloop
  endfacet
  facet normal 0 1 0
    outer loop
      vertex 1.5 3.55 12
      vertex 3 3.55 0
      vertex 1.5 3.55 0
    endloop
  endfacet
  facet normal 1 -0 0
    outer loop
      vertex 1.5 32.3 12
      vertex 1.5 35.5 0
      vertex 1.5 35.5 12
    endloop
  endfacet
  facet normal 1 0 0
    outer loop
      vertex 1.5 35.5 0
      vertex 1.5 32.3 12
      vertex 1.5 32.3 0
    endloop
  endfacet
  facet normal -1 0 0
    outer loop
      vertex 3 32.3 0
      vertex 3 35.5 12
      vertex 3 35.5 0
    endloop
  endfacet
  facet normal -1 -0 0
    outer loop
      vertex 3 35.5 12
      vertex 3 32.3 0
      vertex 3 32.3 12
    endloop
  endfacet
  facet normal 0 -1 0
    outer loop
      vertex 1.5 35.5 0
      vertex 3 35.5 12
      vertex 1.5 35.5 12
    endloop
  endfacet
  facet normal 0 -1 -0
    outer loop
      vertex 3 35.5 12
      vertex 1.5 35.5 0
      vertex 3 35.5 0
    endloop
  endfacet
  facet normal 0 1 -0
    outer loop
      vertex 3 32.3 0
      vertex 1.5 32.3 12
      vertex 3 32.3 12
    endloop
  endfacet
  facet normal 0 1 0
    outer loop
      vertex 1.5 32.3 12
      vertex 3 32.3 0
      vertex 1.5 32.3 0
    endloop
  endfacet
endsolid OpenSCAD_Model
