solid OpenSCAD_Model
  facet normal -1 0 0
    outer loop
      vertex 15.74 8 0
      vertex 15.74 31.05 12
      vertex 15.74 31.05 0
    endloop
  endfacet
  facet normal -1 -0 0
    outer loop
      vertex 15.74 31.05 12
      vertex 15.74 8 0
      vertex 15.74 8 12
    endloop
  endfacet
  facet normal 0 0 -1
    outer loop
      vertex 1.5 82.25 0
      vertex 3 86.05 0
      vertex 3 82.25 0
    endloop
  endfacet
  facet normal -0 0 -1
    outer loop
      vertex 3 86.05 0
      vertex 1.5 82.25 0
      vertex 1.5 86.05 0
    endloop
  endfacet
  facet normal 0 0 -1
    outer loop
      vertex 1.5 75.25 0
      vertex 3 79.05 0
      vertex 3 75.25 0
    endloop
  endfacet
  facet normal -0 0 -1
    outer loop
      vertex 3 79.05 0
      vertex 1.5 75.25 0
      vertex 1.5 79.05 0
    endloop
  endfacet
  facet normal 0 0 -1
    outer loop
      vertex 1.5 72.05 0
      vertex 8.29 39.95 0
      vertex 1.5 35.5 0
    endloop
  endfacet
  facet normal 0 0 -1
    outer loop
      vertex 8.29 39.95 0
      vertex 1.5 72.05 0
      vertex 3 72.05 0
    endloop
  endfacet
  facet normal 0 0 -1
    outer loop
      vertex 3 35.5 0
      vertex 8.29 31.05 0
      vertex 3 32.3 0
    endloop
  endfacet
  facet normal 0 0 -1
    outer loop
      vertex 0 31.05 0
      vertex 3 32.3 0
      vertex 8.29 31.05 0
    endloop
  endfacet
  facet normal 0 0 -1
    outer loop
      vertex 0 31.05 0
      vertex 1.5 35.5 0
      vertex 1.5 32.3 0
    endloop
  endfacet
  facet normal -0 0 -1
    outer loop
      vertex 1.5 35.5 0
      vertex 0 31.05 0
      vertex 1.5 72.05 0
    endloop
  endfacet
  facet normal 0 0 -1
    outer loop
      vertex 0 93.05 0
      vertex 1.5 72.05 0
      vertex 0 31.05 0
    endloop
  endfacet
  facet normal 0 0 -1
    outer loop
      vertex 1.5 72.05 0
      vertex 0 93.05 0
      vertex 1.5 75.25 0
    endloop
  endfacet
  facet normal 0 0 -1
    outer loop
      vertex 1.5 75.25 0
      vertex 0 93.05 0
      vertex 1.5 79.05 0
    endloop
  endfacet
  facet normal 0 0 -1
    outer loop
      vertex 1.5 79.05 0
      vertex 0 93.05 0
      vertex 1.5 82.25 0
    endloop
  endfacet
  facet normal 0 0 -1
    outer loop
      vertex 1.5 82.25 0
      vertex 0 93.05 0
      vertex 1.5 86.05 0
    endloop
  endfacet
  facet normal -0 0 -1
    outer loop
      vertex 3 32.3 0
      vertex 0 31.05 0
      vertex 1.5 32.3 0
    endloop
  endfacet
  facet normal 0 0 -1
    outer loop
      vertex 20.75 82.25 0
      vertex 22.25 86.05 0
      vertex 22.25 82.25 0
    endloop
  endfacet
  facet normal -0 0 -1
    outer loop
      vertex 22.25 86.05 0
      vertex 20.75 82.25 0
      vertex 20.75 86.05 0
    endloop
  endfacet
  facet normal 0 0 -1
    outer loop
      vertex 20.75 75.25 0
      vertex 22.25 79.05 0
      vertex 22.25 75.25 0
    endloop
  endfacet
  facet normal -0 0 -1
    outer loop
      vertex 22.25 79.05 0
      vertex 20.75 75.25 0
      vertex 20.75 79.05 0
    endloop
  endfacet
  facet normal 0 0 -1
    outer loop
      vertex 23.75 0 0
      vertex 22.25 72.05 0
      vertex 23.75 93.05 0
    endloop
  endfacet
  facet normal 0 0 -1
    outer loop
      vertex 15.74 31.05 0
      vertex 22.25 72.05 0
      vertex 23.75 0 0
    endloop
  endfacet
  facet normal 0 0 -1
    outer loop
      vertex 3 75.25 0
      vertex 20.75 75.25 0
      vertex 20.75 72.05 0
    endloop
  endfacet
  facet normal 0 0 -1
    outer loop
      vertex 20.75 75.25 0
      vertex 3 75.25 0
      vertex 20.75 79.05 0
    endloop
  endfacet
  facet normal 0 0 -1
    outer loop
      vertex 20.75 79.05 0
      vertex 3 79.05 0
      vertex 20.75 82.25 0
    endloop
  endfacet
  facet normal 0 0 -1
    outer loop
      vertex 3 82.25 0
      vertex 20.75 82.25 0
      vertex 3 79.05 0
    endloop
  endfacet
  facet normal 0 0 -1
    outer loop
      vertex 12.29 39.95 0
      vertex 22.25 72.05 0
      vertex 15.74 31.05 0
    endloop
  endfacet
  facet normal 0 0 -1
    outer loop
      vertex 15.74 31.05 0
      vertex 23.75 0 0
      vertex 15.74 8 0
    endloop
  endfacet
  facet normal 0 0 -1
    outer loop
      vertex 23.75 0 0
      vertex 3 3.55 0
      vertex 15.74 8 0
    endloop
  endfacet
  facet normal 0 0 -1
    outer loop
      vertex 0 0 0
      vertex 3 3.55 0
      vertex 23.75 0 0
    endloop
  endfacet
  facet normal 0 0 -1
    outer loop
      vertex 0 8 0
      vertex 1.5 3.55 0
      vertex 0 0 0
    endloop
  endfacet
  facet normal -0 0 -1
    outer loop
      vertex 3 3.55 0
      vertex 0 0 0
      vertex 1.5 3.55 0
    endloop
  endfacet
  facet normal 0 0 -1
    outer loop
      vertex 22.25 75.25 0
      vertex 23.75 93.05 0
      vertex 22.25 72.05 0
    endloop
  endfacet
  facet normal 0 0 -1
    outer loop
      vertex 22.25 79.05 0
      vertex 23.75 93.05 0
      vertex 22.25 75.25 0
    endloop
  endfacet
  facet normal 0 0 -1
    outer loop
      vertex 22.25 82.25 0
      vertex 23.75 93.05 0
      vertex 22.25 79.05 0
    endloop
  endfacet
  facet normal 0 0 -1
    outer loop
      vertex 22.25 86.05 0
      vertex 23.75 93.05 0
      vertex 22.25 82.25 0
    endloop
  endfacet
  facet normal 0 0 -1
    outer loop
      vertex 22.25 89.25 0
      vertex 23.75 93.05 0
      vertex 22.25 86.05 0
    endloop
  endfacet
  facet normal 0 0 -1
    outer loop
      vertex 20.75 89.25 0
      vertex 23.75 93.05 0
      vertex 22.25 89.25 0
    endloop
  endfacet
  facet normal -0 0 -1
    outer loop
      vertex 22.25 72.05 0
      vertex 12.29 39.95 0
      vertex 20.75 72.05 0
    endloop
  endfacet
  facet normal 0 0 -1
    outer loop
      vertex 12.29 39.95 0
      vertex 15.74 31.05 0
      vertex 12.29 31.05 0
    endloop
  endfacet
  facet normal 0 0 -1
    outer loop
      vertex 3 72.05 0
      vertex 20.75 72.05 0
      vertex 12.29 39.95 0
    endloop
  endfacet
  facet normal 0 0 -1
    outer loop
      vertex 3 72.05 0
      vertex 12.29 39.95 0
      vertex 8.29 39.95 0
    endloop
  endfacet
  facet normal 0 0 -1
    outer loop
      vertex 8.29 31.05 0
      vertex 3 35.5 0
      vertex 8.29 39.95 0
    endloop
  endfacet
  facet normal 0 0 -1
    outer loop
      vertex 1.5 35.5 0
      vertex 8.29 39.95 0
      vertex 3 35.5 0
    endloop
  endfacet
  facet normal 0 0 -1
    outer loop
      vertex 3 75.25 0
      vertex 20.75 72.05 0
      vertex 3 72.05 0
    endloop
  endfacet
  facet normal -0 0 -1
    outer loop
      vertex 20.75 79.05 0
      vertex 3 75.25 0
      vertex 3 79.05 0
    endloop
  endfacet
  facet normal 0 0 -1
    outer loop
      vertex 20.75 82.25 0
      vertex 3 82.25 0
      vertex 20.75 86.05 0
    endloop
  endfacet
  facet normal 0 0 -1
    outer loop
      vertex 3 86.05 0
      vertex 20.75 86.05 0
      vertex 3 82.25 0
    endloop
  endfacet
  facet normal 0 0 -1
    outer loop
      vertex 20.75 86.05 0
      vertex 3 86.05 0
      vertex 20.75 89.25 0
    endloop
  endfacet
  facet normal 0 0 -1
    outer loop
      vertex 3 89.25 0
      vertex 20.75 89.25 0
      vertex 3 86.05 0
    endloop
  endfacet
  facet normal 0 0 -1
    outer loop
      vertex 20.75 89.25 0
      vertex 3 89.25 0
      vertex 23.75 93.05 0
    endloop
  endfacet
  facet normal 0 0 -1
    outer loop
      vertex 0 93.05 0
      vertex 3 89.25 0
      vertex 1.5 89.25 0
    endloop
  endfacet
  facet normal 0 0 -1
    outer loop
      vertex 3 89.25 0
      vertex 0 93.05 0
      vertex 23.75 93.05 0
    endloop
  endfacet
  facet normal 0 0 -1
    outer loop
      vertex 1.5 86.05 0
      vertex 0 93.05 0
      vertex 1.5 89.25 0
    endloop
  endfacet
  facet normal 0 0 -1
    outer loop
      vertex 3 6.75 0
      vertex 15.74 8 0
      vertex 3 3.55 0
    endloop
  endfacet
  facet normal 0 0 -1
    outer loop
      vertex 0 8 0
      vertex 3 6.75 0
      vertex 1.5 6.75 0
    endloop
  endfacet
  facet normal 0 0 -1
    outer loop
      vertex 3 6.75 0
      vertex 0 8 0
      vertex 15.74 8 0
    endloop
  endfacet
  facet normal 0 0 -1
    outer loop
      vertex 1.5 3.55 0
      vertex 0 8 0
      vertex 1.5 6.75 0
    endloop
  endfacet
  facet normal 0 1 -0
    outer loop
      vertex 15.74 8 0
      vertex 0 8 12
      vertex 15.74 8 12
    endloop
  endfacet
  facet normal 0 1 0
    outer loop
      vertex 0 8 12
      vertex 15.74 8 0
      vertex 0 8 0
    endloop
  endfacet
  facet normal 0 -1 0
    outer loop
      vertex 12.29 31.05 0
      vertex 15.74 31.05 12
      vertex 12.29 31.05 12
    endloop
  endfacet
  facet normal 0 -1 -0
    outer loop
      vertex 15.74 31.05 12
      vertex 12.29 31.05 0
      vertex 15.74 31.05 0
    endloop
  endfacet
  facet normal 0 -1 0
    outer loop
      vertex 0 31.05 0
      vertex 8.29 31.05 12
      vertex 0 31.05 12
    endloop
  endfacet
  facet normal 0 -1 -0
    outer loop
      vertex 8.29 31.05 12
      vertex 0 31.05 0
      vertex 8.29 31.05 0
    endloop
  endfacet
  facet normal 1 -0 0
    outer loop
      vertex 8.29 31.05 12
      vertex 8.29 39.95 0
      vertex 8.29 39.95 12
    endloop
  endfacet
  facet normal 1 0 0
    outer loop
      vertex 8.29 39.95 0
      vertex 8.29 31.05 12
      vertex 8.29 31.05 0
    endloop
  endfacet
  facet normal -1 0 0
    outer loop
      vertex 12.29 31.05 0
      vertex 12.29 39.95 12
      vertex 12.29 39.95 0
    endloop
  endfacet
  facet normal -1 -0 0
    outer loop
      vertex 12.29 39.95 12
      vertex 12.29 31.05 0
      vertex 12.29 31.05 12
    endloop
  endfacet
  facet normal 0 -1 0
    outer loop
      vertex 8.29 39.95 0
      vertex 12.29 39.95 12
      vertex 8.29 39.95 12
    endloop
  endfacet
  facet normal 0 -1 -0
    outer loop
      vertex 12.29 39.95 12
      vertex 8.29 39.95 0
      vertex 12.29 39.95 0
    endloop
  endfacet
  facet normal 1 -0 0
    outer loop
      vertex 1.5 86.05 12
      vertex 1.5 89.25 0
      vertex 1.5 89.25 12
    endloop
  endfacet
  facet normal 1 0 0
    outer loop
      vertex 1.5 89.25 0
      vertex 1.5 86.05 12
      vertex 1.5 86.05 0
    endloop
  endfacet
  facet normal -1 0 0
    outer loop
      vertex 3 86.05 0
      vertex 3 89.25 12
      vertex 3 89.25 0
    endloop
  endfacet
  facet normal -1 -0 0
    outer loop
      vertex 3 89.25 12
      vertex 3 86.05 0
      vertex 3 86.05 12
    endloop
  endfacet
  facet normal 0 1 -0
    outer loop
      vertex 3 86.05 0
      vertex 1.5 86.05 12
      vertex 3 86.05 12
    endloop
  endfacet
  facet normal 0 1 0
    outer loop
      vertex 1.5 86.05 12
      vertex 3 86.05 0
      vertex 1.5 86.05 0
    endloop
  endfacet
  facet normal 0 -1 0
    outer loop
      vertex 1.5 89.25 0
      vertex 3 89.25 12
      vertex 1.5 89.25 12
    endloop
  endfacet
  facet normal 0 -1 -0
    outer loop
      vertex 3 89.25 12
      vertex 1.5 89.25 0
      vertex 3 89.25 0
    endloop
  endfacet
  facet normal 1 -0 0
    outer loop
      vertex 20.75 86.05 12
      vertex 20.75 89.25 0
      vertex 20.75 89.25 12
    endloop
  endfacet
  facet normal 1 0 0
    outer loop
      vertex 20.75 89.25 0
      vertex 20.75 86.05 12
      vertex 20.75 86.05 0
    endloop
  endfacet
  facet normal -1 0 0
    outer loop
      vertex 22.25 86.05 0
      vertex 22.25 89.25 12
      vertex 22.25 89.25 0
    endloop
  endfacet
  facet normal -1 -0 0
    outer loop
      vertex 22.25 89.25 12
      vertex 22.25 86.05 0
      vertex 22.25 86.05 12
    endloop
  endfacet
  facet normal 0 -1 0
    outer loop
      vertex 20.75 89.25 0
      vertex 22.25 89.25 12
      vertex 20.75 89.25 12
    endloop
  endfacet
  facet normal 0 -1 -0
    outer loop
      vertex 22.25 89.25 12
      vertex 20.75 89.25 0
      vertex 22.25 89.25 0
    endloop
  endfacet
  facet normal 0 1 -0
    outer loop
      vertex 22.25 86.05 0
      vertex 20.75 86.05 12
      vertex 22.25 86.05 12
    endloop
  endfacet
  facet normal 0 1 0
    outer loop
      vertex 20.75 86.05 12
      vertex 22.25 86.05 0
      vertex 20.75 86.05 0
    endloop
  endfacet
  facet normal 1 -0 0
    outer loop
      vertex 1.5 79.05 12
      vertex 1.5 82.25 0
      vertex 1.5 82.25 12
    endloop
  endfacet
  facet normal 1 0 0
    outer loop
      vertex 1.5 82.25 0
      vertex 1.5 79.05 12
      vertex 1.5 79.05 0
    endloop
  endfacet
  facet normal -1 0 0
    outer loop
      vertex 3 79.05 0
      vertex 3 82.25 12
      vertex 3 82.25 0
    endloop
  endfacet
  facet normal -1 -0 0
    outer loop
      vertex 3 82.25 12
      vertex 3 79.05 0
      vertex 3 79.05 12
    endloop
  endfacet
  facet normal 0 -1 0
    outer loop
      vertex 1.5 82.25 0
      vertex 3 82.25 12
      vertex 1.5 82.25 12
    endloop
  endfacet
  facet normal 0 -1 -0
    outer loop
      vertex 3 82.25 12
      vertex 1.5 82.25 0
      vertex 3 82.25 0
    endloop
  endfacet
  facet normal 0 1 -0
    outer loop
      vertex 3 79.05 0
      vertex 1.5 79.05 12
      vertex 3 79.05 12
    endloop
  endfacet
  facet normal 0 1 0
    outer loop
      vertex 1.5 79.05 12
      vertex 3 79.05 0
      vertex 1.5 79.05 0
    endloop
  endfacet
  facet normal 1 -0 0
    outer loop
      vertex 20.75 79.05 12
      vertex 20.75 82.25 0
      vertex 20.75 82.25 12
    endloop
  endfacet
  facet normal 1 0 0
    outer loop
      vertex 20.75 82.25 0
      vertex 20.75 79.05 12
      vertex 20.75 79.05 0
    endloop
  endfacet
  facet normal -1 0 0
    outer loop
      vertex 22.25 79.05 0
      vertex 22.25 82.25 12
      vertex 22.25 82.25 0
    endloop
  endfacet
  facet normal -1 -0 0
    outer loop
      vertex 22.25 82.25 12
      vertex 22.25 79.05 0
      vertex 22.25 79.05 12
    endloop
  endfacet
  facet normal 0 -1 0
    outer loop
      vertex 20.75 82.25 0
      vertex 22.25 82.25 12
      vertex 20.75 82.25 12
    endloop
  endfacet
  facet normal 0 -1 -0
    outer loop
      vertex 22.25 82.25 12
      vertex 20.75 82.25 0
      vertex 22.25 82.25 0
    endloop
  endfacet
  facet normal 0 1 -0
    outer loop
      vertex 22.25 79.05 0
      vertex 20.75 79.05 12
      vertex 22.25 79.05 12
    endloop
  endfacet
  facet normal 0 1 0
    outer loop
      vertex 20.75 79.05 12
      vertex 22.25 79.05 0
      vertex 20.75 79.05 0
    endloop
  endfacet
  facet normal 1 -0 0
    outer loop
      vertex 1.5 72.05 12
      vertex 1.5 75.25 0
      vertex 1.5 75.25 12
    endloop
  endfacet
  facet normal 1 0 0
    outer loop
      vertex 1.5 75.25 0
      vertex 1.5 72.05 12
      vertex 1.5 72.05 0
    endloop
  endfacet
  facet normal -1 0 0
    outer loop
      vertex 3 72.05 0
      vertex 3 75.25 12
      vertex 3 75.25 0
    endloop
  endfacet
  facet normal -1 -0 0
    outer loop
      vertex 3 75.25 12
      vertex 3 72.05 0
      vertex 3 72.05 12
    endloop
  endfacet
  facet normal 0 -1 0
    outer loop
      vertex 1.5 75.25 0
      vertex 3 75.25 12
      vertex 1.5 75.25 12
    endloop
  endfacet
  facet normal 0 -1 -0
    outer loop
      vertex 3 75.25 12
      vertex 1.5 75.25 0
      vertex 3 75.25 0
    endloop
  endfacet
  facet normal 0 1 -0
    outer loop
      vertex 3 72.05 0
      vertex 1.5 72.05 12
      vertex 3 72.05 12
    endloop
  endfacet
  facet normal 0 1 0
    outer loop
      vertex 1.5 72.05 12
      vertex 3 72.05 0
      vertex 1.5 72.05 0
    endloop
  endfacet
  facet normal 1 -0 0
    outer loop
      vertex 20.75 72.05 12
      vertex 20.75 75.25 0
      vertex 20.75 75.25 12
    endloop
  endfacet
  facet normal 1 0 0
    outer loop
      vertex 20.75 75.25 0
      vertex 20.75 72.05 12
      vertex 20.75 72.05 0
    endloop
  endfacet
  facet normal -1 0 0
    outer loop
      vertex 22.25 72.05 0
      vertex 22.25 75.25 12
      vertex 22.25 75.25 0
    endloop
  endfacet
  facet normal -1 -0 0
    outer loop
      vertex 22.25 75.25 12
      vertex 22.25 72.05 0
      vertex 22.25 72.05 12
    endloop
  endfacet
  facet normal 0 1 -0
    outer loop
      vertex 22.25 72.05 0
      vertex 20.75 72.05 12
      vertex 22.25 72.05 12
    endloop
  endfacet
  facet normal 0 1 0
    outer loop
      vertex 20.75 72.05 12
      vertex 22.25 72.05 0
      vertex 20.75 72.05 0
    endloop
  endfacet
  facet normal 0 -1 0
    outer loop
      vertex 20.75 75.25 0
      vertex 22.25 75.25 12
      vertex 20.75 75.25 12
    endloop
  endfacet
  facet normal 0 -1 -0
    outer loop
      vertex 22.25 75.25 12
      vertex 20.75 75.25 0
      vertex 22.25 75.25 0
    endloop
  endfacet
  facet normal -1 0 0
    outer loop
      vertex 0 0 0
      vertex 0 8 12
      vertex 0 8 0
    endloop
  endfacet
  facet normal -1 -0 0
    outer loop
      vertex 0 8 12
      vertex 0 0 0
      vertex 0 0 12
    endloop
  endfacet
  facet normal -1 0 0
    outer loop
      vertex 0 31.05 0
      vertex 0 93.05 12
      vertex 0 93.05 0
    endloop
  endfacet
  facet normal -1 -0 0
    outer loop
      vertex 0 93.05 12
      vertex 0 31.05 0
      vertex 0 31.05 12
    endloop
  endfacet
  facet normal -0 0 1
    outer loop
      vertex 0 8 12
      vertex 3 6.75 12
      vertex 15.74 8 12
    endloop
  endfacet
  facet normal 0 0 1
    outer loop
      vertex 1.5 6.75 12
      vertex 0 8 12
      vertex 1.5 3.55 12
    endloop
  endfacet
  facet normal 0 0 1
    outer loop
      vertex 3 6.75 12
      vertex 0 8 12
      vertex 1.5 6.75 12
    endloop
  endfacet
  facet normal 0 0 1
    outer loop
      vertex 1.5 35.5 12
      vertex 8.29 39.95 12
      vertex 1.5 72.05 12
    endloop
  endfacet
  facet normal 0 0 1
    outer loop
      vertex 8.29 39.95 12
      vertex 1.5 35.5 12
      vertex 3 35.5 12
    endloop
  endfacet
  facet normal -0 0 1
    outer loop
      vertex 1.5 79.05 12
      vertex 3 75.25 12
      vertex 3 79.05 12
    endloop
  endfacet
  facet normal 0 0 1
    outer loop
      vertex 3 75.25 12
      vertex 1.5 79.05 12
      vertex 1.5 75.25 12
    endloop
  endfacet
  facet normal -0 0 1
    outer loop
      vertex 1.5 86.05 12
      vertex 3 82.25 12
      vertex 3 86.05 12
    endloop
  endfacet
  facet normal 0 0 1
    outer loop
      vertex 3 82.25 12
      vertex 1.5 86.05 12
      vertex 1.5 82.25 12
    endloop
  endfacet
  facet normal -0 0 1
    outer loop
      vertex 20.75 79.05 12
      vertex 22.25 75.25 12
      vertex 22.25 79.05 12
    endloop
  endfacet
  facet normal 0 0 1
    outer loop
      vertex 22.25 75.25 12
      vertex 20.75 79.05 12
      vertex 20.75 75.25 12
    endloop
  endfacet
  facet normal -0 0 1
    outer loop
      vertex 20.75 86.05 12
      vertex 22.25 82.25 12
      vertex 22.25 86.05 12
    endloop
  endfacet
  facet normal 0 0 1
    outer loop
      vertex 22.25 82.25 12
      vertex 20.75 86.05 12
      vertex 20.75 82.25 12
    endloop
  endfacet
  facet normal 0 0 1
    outer loop
      vertex 22.25 86.05 12
      vertex 23.75 93.05 12
      vertex 22.25 89.25 12
    endloop
  endfacet
  facet normal 0 0 1
    outer loop
      vertex 23.75 93.05 12
      vertex 20.75 89.25 12
      vertex 22.25 89.25 12
    endloop
  endfacet
  facet normal 0 0 1
    outer loop
      vertex 3 86.05 12
      vertex 20.75 86.05 12
      vertex 20.75 89.25 12
    endloop
  endfacet
  facet normal 0 0 1
    outer loop
      vertex 20.75 86.05 12
      vertex 3 86.05 12
      vertex 20.75 82.25 12
    endloop
  endfacet
  facet normal 0 0 1
    outer loop
      vertex 20.75 82.25 12
      vertex 3 82.25 12
      vertex 20.75 79.05 12
    endloop
  endfacet
  facet normal 0 0 1
    outer loop
      vertex 3 79.05 12
      vertex 20.75 79.05 12
      vertex 3 82.25 12
    endloop
  endfacet
  facet normal 0 0 1
    outer loop
      vertex 3 75.25 12
      vertex 20.75 75.25 12
      vertex 3 79.05 12
    endloop
  endfacet
  facet normal 0 0 1
    outer loop
      vertex 20.75 72.05 12
      vertex 12.29 39.95 12
      vertex 15.74 31.05 12
    endloop
  endfacet
  facet normal 0 0 1
    outer loop
      vertex 20.75 72.05 12
      vertex 3 72.05 12
      vertex 12.29 39.95 12
    endloop
  endfacet
  facet normal 0 0 1
    outer loop
      vertex 20.75 82.25 12
      vertex 3 86.05 12
      vertex 3 82.25 12
    endloop
  endfacet
  facet normal 0 0 1
    outer loop
      vertex 3 86.05 12
      vertex 20.75 89.25 12
      vertex 3 89.25 12
    endloop
  endfacet
  facet normal 0 0 1
    outer loop
      vertex 23.75 93.05 12
      vertex 3 89.25 12
      vertex 20.75 89.25 12
    endloop
  endfacet
  facet normal -0 0 1
    outer loop
      vertex 0 93.05 12
      vertex 3 89.25 12
      vertex 23.75 93.05 12
    endloop
  endfacet
  facet normal 0 0 1
    outer loop
      vertex 0 93.05 12
      vertex 1.5 86.05 12
      vertex 1.5 89.25 12
    endloop
  endfacet
  facet normal 0 0 1
    outer loop
      vertex 1.5 86.05 12
      vertex 0 93.05 12
      vertex 1.5 82.25 12
    endloop
  endfacet
  facet normal 0 0 1
    outer loop
      vertex 1.5 82.25 12
      vertex 0 93.05 12
      vertex 1.5 79.05 12
    endloop
  endfacet
  facet normal 0 0 1
    outer loop
      vertex 1.5 79.05 12
      vertex 0 93.05 12
      vertex 1.5 75.25 12
    endloop
  endfacet
  facet normal 0 0 1
    outer loop
      vertex 1.5 75.25 12
      vertex 0 93.05 12
      vertex 1.5 72.05 12
    endloop
  endfacet
  facet normal 0 0 1
    outer loop
      vertex 0 31.05 12
      vertex 1.5 72.05 12
      vertex 0 93.05 12
    endloop
  endfacet
  facet normal 0 0 1
    outer loop
      vertex 1.5 72.05 12
      vertex 0 31.05 12
      vertex 1.5 35.5 12
    endloop
  endfacet
  facet normal 0 0 1
    outer loop
      vertex 3 89.25 12
      vertex 0 93.05 12
      vertex 1.5 89.25 12
    endloop
  endfacet
  facet normal 0 0 1
    outer loop
      vertex 22.25 82.25 12
      vertex 23.75 93.05 12
      vertex 22.25 86.05 12
    endloop
  endfacet
  facet normal 0 0 1
    outer loop
      vertex 22.25 79.05 12
      vertex 23.75 93.05 12
      vertex 22.25 82.25 12
    endloop
  endfacet
  facet normal 0 0 1
    outer loop
      vertex 22.25 75.25 12
      vertex 23.75 93.05 12
      vertex 22.25 79.05 12
    endloop
  endfacet
  facet normal 0 0 1
    outer loop
      vertex 22.25 72.05 12
      vertex 23.75 93.05 12
      vertex 22.25 75.25 12
    endloop
  endfacet
  facet normal 0 0 1
    outer loop
      vertex 23.75 93.05 12
      vertex 22.25 72.05 12
      vertex 23.75 0 12
    endloop
  endfacet
  facet normal 0 0 1
    outer loop
      vertex 15.74 31.05 12
      vertex 22.25 72.05 12
      vertex 20.75 72.05 12
    endloop
  endfacet
  facet normal 0 0 1
    outer loop
      vertex 22.25 72.05 12
      vertex 15.74 31.05 12
      vertex 23.75 0 12
    endloop
  endfacet
  facet normal -0 0 1
    outer loop
      vertex 15.74 8 12
      vertex 23.75 0 12
      vertex 15.74 31.05 12
    endloop
  endfacet
  facet normal 0 0 1
    outer loop
      vertex 3 3.55 12
      vertex 15.74 8 12
      vertex 3 6.75 12
    endloop
  endfacet
  facet normal 0 0 1
    outer loop
      vertex 15.74 8 12
      vertex 3 3.55 12
      vertex 23.75 0 12
    endloop
  endfacet
  facet normal 0 0 1
    outer loop
      vertex 0 0 12
      vertex 3 3.55 12
      vertex 1.5 3.55 12
    endloop
  endfacet
  facet normal 0 0 1
    outer loop
      vertex 3 3.55 12
      vertex 0 0 12
      vertex 23.75 0 12
    endloop
  endfacet
  facet normal 0 0 1
    outer loop
      vertex 0 0 12
      vertex 1.5 3.55 12
      vertex 0 8 12
    endloop
  endfacet
  facet normal 0 0 1
    outer loop
      vertex 15.74 31.05 12
      vertex 12.29 39.95 12
      vertex 12.29 31.05 12
    endloop
  endfacet
  facet normal 0 0 1
    outer loop
      vertex 20.75 79.05 12
      vertex 3 79.05 12
      vertex 20.75 75.25 12
    endloop
  endfacet
  facet normal 0 0 1
    outer loop
      vertex 20.75 75.25 12
      vertex 3 75.25 12
      vertex 20.75 72.05 12
    endloop
  endfacet
  facet normal 0 0 1
    outer loop
      vertex 20.75 72.05 12
      vertex 3 75.25 12
      vertex 3 72.05 12
    endloop
  endfacet
  facet normal 0 0 1
    outer loop
      vertex 12.29 39.95 12
      vertex 3 72.05 12
      vertex 8.29 39.95 12
    endloop
  endfacet
  facet normal -0 0 1
    outer loop
      vertex 1.5 72.05 12
      vertex 8.29 39.95 12
      vertex 3 72.05 12
    endloop
  endfacet
  facet normal 0 0 1
    outer loop
      vertex 8.29 39.95 12
      vertex 3 35.5 12
      vertex 8.29 31.05 12
    endloop
  endfacet
  facet normal -0 0 1
    outer loop
      vertex 3 32.3 12
      vertex 8.29 31.05 12
      vertex 3 35.5 12
    endloop
  endfacet
  facet normal 0 0 1
    outer loop
      vertex 0 31.05 12
      vertex 3 32.3 12
      vertex 1.5 32.3 12
    endloop
  endfacet
  facet normal 0 0 1
    outer loop
      vertex 3 32.3 12
      vertex 0 31.05 12
      vertex 8.29 31.05 12
    endloop
  endfacet
  facet normal 0 0 1
    outer loop
      vertex 1.5 35.5 12
      vertex 0 31.05 12
      vertex 1.5 32.3 12
    endloop
  endfacet
  facet normal 1 -0 0
    outer loop
      vertex 23.75 0 12
      vertex 23.75 93.05 0
      vertex 23.75 93.05 12
    endloop
  endfacet
  facet normal 1 0 0
    outer loop
      vertex 23.75 93.05 0
      vertex 23.75 0 12
      vertex 23.75 0 0
    endloop
  endfacet
  facet normal 0 -1 0
    outer loop
      vertex 0 0 0
      vertex 23.75 0 12
      vertex 0 0 12
    endloop
  endfacet
  facet normal 0 -1 -0
    outer loop
      vertex 23.75 0 12
      vertex 0 0 0
      vertex 23.75 0 0
    endloop
  endfacet
  facet normal 0 1 -0
    outer loop
      vertex 23.75 93.05 0
      vertex 0 93.05 12
      vertex 23.75 93.05 12
    endloop
  endfacet
  facet normal 0 1 0
    outer loop
      vertex 0 93.05 12
      vertex 23.75 93.05 0
      vertex 0 93.05 0
    endloop
  endfacet
  facet normal 1 -0 0
    outer loop
      vertex 1.5 3.55 12
      vertex 1.5 6.75 0
      vertex 1.5 6.75 12
    endloop
  endfacet
  facet normal 1 0 0
    outer loop
      vertex 1.5 6.75 0
      vertex 1.5 3.55 12
      vertex 1.5 3.55 0
    endloop
  endfacet
  facet normal -1 0 0
    outer loop
      vertex 3 3.55 0
      vertex 3 6.75 12
      vertex 3 6.75 0
    endloop
  endfacet
  facet normal -1 -0 0
    outer loop
      vertex 3 6.75 12
      vertex 3 3.55 0
      vertex 3 3.55 12
    endloop
  endfacet
  facet normal 0 1 -0
    outer loop
      vertex 3 3.55 0
      vertex 1.5 3.55 12
      vertex 3 3.55 12
    endloop
  endfacet
  facet normal 0 1 0
    outer loop
      vertex 1.5 3.55 12
      vertex 3 3.55 0
      vertex 1.5 3.55 0
    endloop
  endfacet
  facet normal 0 -1 0
    outer loop
      vertex 1.5 6.75 0
      vertex 3 6.75 12
      vertex 1.5 6.75 12
    endloop
  endfacet
  facet normal 0 -1 -0
    outer loop
      vertex 3 6.75 12
      vertex 1.5 6.75 0
      vertex 3 6.75 0
    endloop
  endfacet
  facet normal 1 -0 0
    outer loop
      vertex 1.5 32.3 12
      vertex 1.5 35.5 0
      vertex 1.5 35.5 12
    endloop
  endfacet
  facet normal 1 0 0
    outer loop
      vertex 1.5 35.5 0
      vertex 1.5 32.3 12
      vertex 1.5 32.3 0
    endloop
  endfacet
  facet normal -1 0 0
    outer loop
      vertex 3 32.3 0
      vertex 3 35.5 12
      vertex 3 35.5 0
    endloop
  endfacet
  facet normal -1 -0 0
    outer loop
      vertex 3 35.5 12
      vertex 3 32.3 0
      vertex 3 32.3 12
    endloop
  endfacet
  facet normal 0 1 -0
    outer loop
      vertex 3 32.3 0
      vertex 1.5 32.3 12
      vertex 3 32.3 12
    endloop
  endfacet
  facet normal 0 1 0
    outer loop
      vertex 1.5 32.3 12
      vertex 3 32.3 0
      vertex 1.5 32.3 0
    endloop
  endfacet
  facet normal 0 -1 0
    outer loop
      vertex 1.5 35.5 0
      vertex 3 35.5 12
      vertex 1.5 35.5 12
    endloop
  endfacet
  facet normal 0 -1 -0
    outer loop
      vertex 3 35.5 12
      vertex 1.5 35.5 0
      vertex 3 35.5 0
    endloop
  endfacet
endsolid OpenSCAD_Model
