solid OpenSCAD_Model
  facet normal 1 -0 0
    outer loop
      vertex 14.25 1.65 4
      vertex 14.25 4.35 0
      vertex 14.25 4.35 4
    endloop
  endfacet
  facet normal 1 0 0
    outer loop
      vertex 14.25 4.35 0
      vertex 14.25 1.65 4
      vertex 14.25 1.65 0
    endloop
  endfacet
  facet normal -1 0 0
    outer loop
      vertex 15.75 1.65 0
      vertex 15.75 4.35 4
      vertex 15.75 4.35 0
    endloop
  endfacet
  facet normal -1 -0 0
    outer loop
      vertex 15.75 4.35 4
      vertex 15.75 1.65 0
      vertex 15.75 1.65 4
    endloop
  endfacet
  facet normal 0 -1 0
    outer loop
      vertex 14.25 4.35 0
      vertex 15.75 4.35 4
      vertex 14.25 4.35 4
    endloop
  endfacet
  facet normal 0 -1 -0
    outer loop
      vertex 15.75 4.35 4
      vertex 14.25 4.35 0
      vertex 15.75 4.35 0
    endloop
  endfacet
  facet normal 0 1 -0
    outer loop
      vertex 15.75 1.65 0
      vertex 14.25 1.65 4
      vertex 15.75 1.65 4
    endloop
  endfacet
  facet normal 0 1 0
    outer loop
      vertex 14.25 1.65 4
      vertex 15.75 1.65 0
      vertex 14.25 1.65 0
    endloop
  endfacet
  facet normal 1 -0 0
    outer loop
      vertex 14.25 11.65 4
      vertex 14.25 14.35 0
      vertex 14.25 14.35 4
    endloop
  endfacet
  facet normal 1 0 0
    outer loop
      vertex 14.25 14.35 0
      vertex 14.25 11.65 4
      vertex 14.25 11.65 0
    endloop
  endfacet
  facet normal -1 0 0
    outer loop
      vertex 15.75 11.65 0
      vertex 15.75 14.35 4
      vertex 15.75 14.35 0
    endloop
  endfacet
  facet normal -1 -0 0
    outer loop
      vertex 15.75 14.35 4
      vertex 15.75 11.65 0
      vertex 15.75 11.65 4
    endloop
  endfacet
  facet normal 0 -1 0
    outer loop
      vertex 14.25 14.35 0
      vertex 15.75 14.35 4
      vertex 14.25 14.35 4
    endloop
  endfacet
  facet normal 0 -1 -0
    outer loop
      vertex 15.75 14.35 4
      vertex 14.25 14.35 0
      vertex 15.75 14.35 0
    endloop
  endfacet
  facet normal 0 1 -0
    outer loop
      vertex 15.75 11.65 0
      vertex 14.25 11.65 4
      vertex 15.75 11.65 4
    endloop
  endfacet
  facet normal 0 1 0
    outer loop
      vertex 14.25 11.65 4
      vertex 15.75 11.65 0
      vertex 14.25 11.65 0
    endloop
  endfacet
  facet normal 1 -0 0
    outer loop
      vertex 14.25 21.65 4
      vertex 14.25 23.65 0
      vertex 14.25 23.65 4
    endloop
  endfacet
  facet normal 1 0 0
    outer loop
      vertex 14.25 23.65 0
      vertex 14.25 21.65 4
      vertex 14.25 21.65 0
    endloop
  endfacet
  facet normal -1 0 0
    outer loop
      vertex 15.75 21.65 0
      vertex 15.75 24.35 4
      vertex 15.75 24.35 0
    endloop
  endfacet
  facet normal -1 -0 0
    outer loop
      vertex 15.75 24.35 4
      vertex 15.75 21.65 0
      vertex 15.75 21.65 4
    endloop
  endfacet
  facet normal 0 -1 0
    outer loop
      vertex 15.5 24.35 0
      vertex 15.75 24.35 4
      vertex 15.5 24.35 4
    endloop
  endfacet
  facet normal 0 -1 -0
    outer loop
      vertex 15.75 24.35 4
      vertex 15.5 24.35 0
      vertex 15.75 24.35 0
    endloop
  endfacet
  facet normal 0 1 -0
    outer loop
      vertex 15.75 21.65 0
      vertex 14.25 21.65 4
      vertex 15.75 21.65 4
    endloop
  endfacet
  facet normal 0 1 0
    outer loop
      vertex 14.25 21.65 4
      vertex 15.75 21.65 0
      vertex 14.25 21.65 0
    endloop
  endfacet
  facet normal 1 -0 0
    outer loop
      vertex 14.25 31.65 4
      vertex 14.25 34.35 0
      vertex 14.25 34.35 4
    endloop
  endfacet
  facet normal 1 0 0
    outer loop
      vertex 14.25 34.35 0
      vertex 14.25 31.65 4
      vertex 14.25 31.65 0
    endloop
  endfacet
  facet normal -1 0 0
    outer loop
      vertex 15.75 31.65 0
      vertex 15.75 34.35 4
      vertex 15.75 34.35 0
    endloop
  endfacet
  facet normal -1 -0 0
    outer loop
      vertex 15.75 34.35 4
      vertex 15.75 31.65 0
      vertex 15.75 31.65 4
    endloop
  endfacet
  facet normal 0 -1 0
    outer loop
      vertex 14.25 34.35 0
      vertex 15.75 34.35 4
      vertex 14.25 34.35 4
    endloop
  endfacet
  facet normal 0 -1 -0
    outer loop
      vertex 15.75 34.35 4
      vertex 14.25 34.35 0
      vertex 15.75 34.35 0
    endloop
  endfacet
  facet normal 0 1 -0
    outer loop
      vertex 15.75 31.65 0
      vertex 14.25 31.65 4
      vertex 15.75 31.65 4
    endloop
  endfacet
  facet normal 0 1 0
    outer loop
      vertex 14.25 31.65 4
      vertex 15.75 31.65 0
      vertex 14.25 31.65 0
    endloop
  endfacet
  facet normal 0 -1 0
    outer loop
      vertex 8.65 38.75 0
      vertex 11.35 38.75 4
      vertex 8.65 38.75 4
    endloop
  endfacet
  facet normal 0 -1 -0
    outer loop
      vertex 11.35 38.75 4
      vertex 8.65 38.75 0
      vertex 11.35 38.75 0
    endloop
  endfacet
  facet normal 1 -0 0
    outer loop
      vertex 8.65 37.25 4
      vertex 8.65 38.75 0
      vertex 8.65 38.75 4
    endloop
  endfacet
  facet normal 1 0 0
    outer loop
      vertex 8.65 38.75 0
      vertex 8.65 37.25 4
      vertex 8.65 37.25 0
    endloop
  endfacet
  facet normal 0 1 -0
    outer loop
      vertex 11.35 37.25 0
      vertex 8.65 37.25 4
      vertex 11.35 37.25 4
    endloop
  endfacet
  facet normal 0 1 0
    outer loop
      vertex 8.65 37.25 4
      vertex 11.35 37.25 0
      vertex 8.65 37.25 0
    endloop
  endfacet
  facet normal -1 0 0
    outer loop
      vertex 11.35 37.25 0
      vertex 11.35 38.75 4
      vertex 11.35 38.75 0
    endloop
  endfacet
  facet normal -1 -0 0
    outer loop
      vertex 11.35 38.75 4
      vertex 11.35 37.25 0
      vertex 11.35 37.25 4
    endloop
  endfacet
  facet normal 0 -1 0
    outer loop
      vertex 1.65 38.75 0
      vertex 4.35 38.75 4
      vertex 1.65 38.75 4
    endloop
  endfacet
  facet normal 0 -1 -0
    outer loop
      vertex 4.35 38.75 4
      vertex 1.65 38.75 0
      vertex 4.35 38.75 0
    endloop
  endfacet
  facet normal 0 1 -0
    outer loop
      vertex 4.35 37.25 0
      vertex 1.65 37.25 4
      vertex 4.35 37.25 4
    endloop
  endfacet
  facet normal 0 1 0
    outer loop
      vertex 1.65 37.25 4
      vertex 4.35 37.25 0
      vertex 1.65 37.25 0
    endloop
  endfacet
  facet normal -1 0 0
    outer loop
      vertex 4.35 37.25 0
      vertex 4.35 38.75 4
      vertex 4.35 38.75 0
    endloop
  endfacet
  facet normal -1 -0 0
    outer loop
      vertex 4.35 38.75 4
      vertex 4.35 37.25 0
      vertex 4.35 37.25 4
    endloop
  endfacet
  facet normal 1 -0 0
    outer loop
      vertex 1.65 37.25 4
      vertex 1.65 38.75 0
      vertex 1.65 38.75 4
    endloop
  endfacet
  facet normal 1 0 0
    outer loop
      vertex 1.65 38.75 0
      vertex 1.65 37.25 4
      vertex 1.65 37.25 0
    endloop
  endfacet
  facet normal 1 -0 0
    outer loop
      vertex 14 4.65 4
      vertex 14 7.35 0
      vertex 14 7.35 4
    endloop
  endfacet
  facet normal 1 0 0
    outer loop
      vertex 14 7.35 0
      vertex 14 4.65 4
      vertex 14 4.65 0
    endloop
  endfacet
  facet normal -1 0 0
    outer loop
      vertex 15.5 4.65 0
      vertex 15.5 7.35 4
      vertex 15.5 7.35 0
    endloop
  endfacet
  facet normal -1 -0 0
    outer loop
      vertex 15.5 7.35 4
      vertex 15.5 4.65 0
      vertex 15.5 4.65 4
    endloop
  endfacet
  facet normal 0 1 -0
    outer loop
      vertex 15.5 4.65 0
      vertex 14 4.65 4
      vertex 15.5 4.65 4
    endloop
  endfacet
  facet normal 0 1 0
    outer loop
      vertex 14 4.65 4
      vertex 15.5 4.65 0
      vertex 14 4.65 0
    endloop
  endfacet
  facet normal 0 -1 0
    outer loop
      vertex 14 7.35 0
      vertex 15.5 7.35 4
      vertex 14 7.35 4
    endloop
  endfacet
  facet normal 0 -1 -0
    outer loop
      vertex 15.5 7.35 4
      vertex 14 7.35 0
      vertex 15.5 7.35 0
    endloop
  endfacet
  facet normal 1 -0 0
    outer loop
      vertex 14 8.65 4
      vertex 14 11.35 0
      vertex 14 11.35 4
    endloop
  endfacet
  facet normal 1 0 0
    outer loop
      vertex 14 11.35 0
      vertex 14 8.65 4
      vertex 14 8.65 0
    endloop
  endfacet
  facet normal -1 0 0
    outer loop
      vertex 15.5 8.65 0
      vertex 15.5 11.35 4
      vertex 15.5 11.35 0
    endloop
  endfacet
  facet normal -1 -0 0
    outer loop
      vertex 15.5 11.35 4
      vertex 15.5 8.65 0
      vertex 15.5 8.65 4
    endloop
  endfacet
  facet normal 0 1 -0
    outer loop
      vertex 15.5 8.65 0
      vertex 14 8.65 4
      vertex 15.5 8.65 4
    endloop
  endfacet
  facet normal 0 1 0
    outer loop
      vertex 14 8.65 4
      vertex 15.5 8.65 0
      vertex 14 8.65 0
    endloop
  endfacet
  facet normal 0 -1 0
    outer loop
      vertex 14 11.35 0
      vertex 15.5 11.35 4
      vertex 14 11.35 4
    endloop
  endfacet
  facet normal 0 -1 -0
    outer loop
      vertex 15.5 11.35 4
      vertex 14 11.35 0
      vertex 15.5 11.35 0
    endloop
  endfacet
  facet normal 1 -0 0
    outer loop
      vertex 14 23.65 4
      vertex 14 26.35 0
      vertex 14 26.35 4
    endloop
  endfacet
  facet normal 1 0 0
    outer loop
      vertex 14 26.35 0
      vertex 14 23.65 4
      vertex 14 23.65 0
    endloop
  endfacet
  facet normal -1 0 0
    outer loop
      vertex 15.5 24.35 0
      vertex 15.5 26.35 4
      vertex 15.5 26.35 0
    endloop
  endfacet
  facet normal -1 -0 0
    outer loop
      vertex 15.5 26.35 4
      vertex 15.5 24.35 0
      vertex 15.5 24.35 4
    endloop
  endfacet
  facet normal 0 1 -0
    outer loop
      vertex 14.25 23.65 0
      vertex 14 23.65 4
      vertex 14.25 23.65 4
    endloop
  endfacet
  facet normal 0 1 0
    outer loop
      vertex 14 23.65 4
      vertex 14.25 23.65 0
      vertex 14 23.65 0
    endloop
  endfacet
  facet normal 0 -1 0
    outer loop
      vertex 14 26.35 0
      vertex 15.5 26.35 4
      vertex 14 26.35 4
    endloop
  endfacet
  facet normal 0 -1 -0
    outer loop
      vertex 15.5 26.35 4
      vertex 14 26.35 0
      vertex 15.5 26.35 0
    endloop
  endfacet
  facet normal 1 -0 0
    outer loop
      vertex 14 28.65 4
      vertex 14 31.35 0
      vertex 14 31.35 4
    endloop
  endfacet
  facet normal 1 0 0
    outer loop
      vertex 14 31.35 0
      vertex 14 28.65 4
      vertex 14 28.65 0
    endloop
  endfacet
  facet normal -1 0 0
    outer loop
      vertex 15.5 28.65 0
      vertex 15.5 31.35 4
      vertex 15.5 31.35 0
    endloop
  endfacet
  facet normal -1 -0 0
    outer loop
      vertex 15.5 31.35 4
      vertex 15.5 28.65 0
      vertex 15.5 28.65 4
    endloop
  endfacet
  facet normal 0 -1 0
    outer loop
      vertex 14 31.35 0
      vertex 15.5 31.35 4
      vertex 14 31.35 4
    endloop
  endfacet
  facet normal 0 -1 -0
    outer loop
      vertex 15.5 31.35 4
      vertex 14 31.35 0
      vertex 15.5 31.35 0
    endloop
  endfacet
  facet normal 0 1 -0
    outer loop
      vertex 15.5 28.65 0
      vertex 14 28.65 4
      vertex 15.5 28.65 4
    endloop
  endfacet
  facet normal 0 1 0
    outer loop
      vertex 14 28.65 4
      vertex 15.5 28.65 0
      vertex 14 28.65 0
    endloop
  endfacet
  facet normal 1 -0 0
    outer loop
      vertex 8.45 4.65 4
      vertex 8.45 7.35 0
      vertex 8.45 7.35 4
    endloop
  endfacet
  facet normal 1 0 0
    outer loop
      vertex 8.45 7.35 0
      vertex 8.45 4.65 4
      vertex 8.45 4.65 0
    endloop
  endfacet
  facet normal -1 0 0
    outer loop
      vertex 9.95 4.65 0
      vertex 9.95 7.35 4
      vertex 9.95 7.35 0
    endloop
  endfacet
  facet normal -1 -0 0
    outer loop
      vertex 9.95 7.35 4
      vertex 9.95 4.65 0
      vertex 9.95 4.65 4
    endloop
  endfacet
  facet normal 0 -1 0
    outer loop
      vertex 8.45 7.35 0
      vertex 9.95 7.35 4
      vertex 8.45 7.35 4
    endloop
  endfacet
  facet normal 0 -1 -0
    outer loop
      vertex 9.95 7.35 4
      vertex 8.45 7.35 0
      vertex 9.95 7.35 0
    endloop
  endfacet
  facet normal 0 1 -0
    outer loop
      vertex 9.95 4.65 0
      vertex 8.45 4.65 4
      vertex 9.95 4.65 4
    endloop
  endfacet
  facet normal 0 1 0
    outer loop
      vertex 8.45 4.65 4
      vertex 9.95 4.65 0
      vertex 8.45 4.65 0
    endloop
  endfacet
  facet normal 1 -0 0
    outer loop
      vertex 8.45 9.65 4
      vertex 8.45 12.35 0
      vertex 8.45 12.35 4
    endloop
  endfacet
  facet normal 1 0 0
    outer loop
      vertex 8.45 12.35 0
      vertex 8.45 9.65 4
      vertex 8.45 9.65 0
    endloop
  endfacet
  facet normal -1 0 0
    outer loop
      vertex 9.95 9.65 0
      vertex 9.95 12.35 4
      vertex 9.95 12.35 0
    endloop
  endfacet
  facet normal -1 -0 0
    outer loop
      vertex 9.95 12.35 4
      vertex 9.95 9.65 0
      vertex 9.95 9.65 4
    endloop
  endfacet
  facet normal 0 -1 0
    outer loop
      vertex 8.45 12.35 0
      vertex 9.95 12.35 4
      vertex 8.45 12.35 4
    endloop
  endfacet
  facet normal 0 -1 -0
    outer loop
      vertex 9.95 12.35 4
      vertex 8.45 12.35 0
      vertex 9.95 12.35 0
    endloop
  endfacet
  facet normal 0 1 -0
    outer loop
      vertex 9.95 9.65 0
      vertex 8.45 9.65 4
      vertex 9.95 9.65 4
    endloop
  endfacet
  facet normal 0 1 0
    outer loop
      vertex 8.45 9.65 4
      vertex 9.95 9.65 0
      vertex 8.45 9.65 0
    endloop
  endfacet
  facet normal 1 -0 0
    outer loop
      vertex 8.25 23.65 4
      vertex 8.25 26.35 0
      vertex 8.25 26.35 4
    endloop
  endfacet
  facet normal 1 0 0
    outer loop
      vertex 8.25 26.35 0
      vertex 8.25 23.65 4
      vertex 8.25 23.65 0
    endloop
  endfacet
  facet normal -1 0 0
    outer loop
      vertex 9.75 23.65 0
      vertex 9.75 26.35 4
      vertex 9.75 26.35 0
    endloop
  endfacet
  facet normal -1 -0 0
    outer loop
      vertex 9.75 26.35 4
      vertex 9.75 23.65 0
      vertex 9.75 23.65 4
    endloop
  endfacet
  facet normal 0 -1 0
    outer loop
      vertex 8.25 26.35 0
      vertex 9.75 26.35 4
      vertex 8.25 26.35 4
    endloop
  endfacet
  facet normal 0 -1 -0
    outer loop
      vertex 9.75 26.35 4
      vertex 8.25 26.35 0
      vertex 9.75 26.35 0
    endloop
  endfacet
  facet normal 0 1 -0
    outer loop
      vertex 9.75 23.65 0
      vertex 8.25 23.65 4
      vertex 9.75 23.65 4
    endloop
  endfacet
  facet normal 0 1 0
    outer loop
      vertex 8.25 23.65 4
      vertex 9.75 23.65 0
      vertex 8.25 23.65 0
    endloop
  endfacet
  facet normal 1 -0 0
    outer loop
      vertex 8.25 29.65 4
      vertex 8.25 32.35 0
      vertex 8.25 32.35 4
    endloop
  endfacet
  facet normal 1 0 0
    outer loop
      vertex 8.25 32.35 0
      vertex 8.25 29.65 4
      vertex 8.25 29.65 0
    endloop
  endfacet
  facet normal -1 0 0
    outer loop
      vertex 9.75 29.65 0
      vertex 9.75 32.35 4
      vertex 9.75 32.35 0
    endloop
  endfacet
  facet normal -1 -0 0
    outer loop
      vertex 9.75 32.35 4
      vertex 9.75 29.65 0
      vertex 9.75 29.65 4
    endloop
  endfacet
  facet normal 0 -1 0
    outer loop
      vertex 8.25 32.35 0
      vertex 9.75 32.35 4
      vertex 8.25 32.35 4
    endloop
  endfacet
  facet normal 0 -1 -0
    outer loop
      vertex 9.75 32.35 4
      vertex 8.25 32.35 0
      vertex 9.75 32.35 0
    endloop
  endfacet
  facet normal 0 1 -0
    outer loop
      vertex 9.75 29.65 0
      vertex 8.25 29.65 4
      vertex 9.75 29.65 4
    endloop
  endfacet
  facet normal 0 1 0
    outer loop
      vertex 8.25 29.65 4
      vertex 9.75 29.65 0
      vertex 8.25 29.65 0
    endloop
  endfacet
  facet normal -1 0 0
    outer loop
      vertex 0 0 0
      vertex 0 40 4
      vertex 0 40 0
    endloop
  endfacet
  facet normal -1 -0 0
    outer loop
      vertex 0 40 4
      vertex 0 0 0
      vertex 0 0 4
    endloop
  endfacet
  facet normal -0 0 1
    outer loop
      vertex 8.25 29.65 4
      vertex 9.75 26.35 4
      vertex 9.75 29.65 4
    endloop
  endfacet
  facet normal 0 0 1
    outer loop
      vertex 9.75 26.35 4
      vertex 8.25 29.65 4
      vertex 8.25 26.35 4
    endloop
  endfacet
  facet normal -0 0 1
    outer loop
      vertex 8.45 9.65 4
      vertex 9.95 7.35 4
      vertex 9.95 9.65 4
    endloop
  endfacet
  facet normal 0 0 1
    outer loop
      vertex 9.95 7.35 4
      vertex 8.45 9.65 4
      vertex 8.45 7.35 4
    endloop
  endfacet
  facet normal 0 0 1
    outer loop
      vertex 9.75 29.65 4
      vertex 14 31.35 4
      vertex 9.75 32.35 4
    endloop
  endfacet
  facet normal 0 0 1
    outer loop
      vertex 9.75 23.65 4
      vertex 14 28.65 4
      vertex 9.75 26.35 4
    endloop
  endfacet
  facet normal 0 0 1
    outer loop
      vertex 14 28.65 4
      vertex 9.75 23.65 4
      vertex 11.4783 18.7595 4
    endloop
  endfacet
  facet normal 0 0 1
    outer loop
      vertex 11.4783 18.7595 4
      vertex 9.75 23.65 4
      vertex 11.2623 18.6739 4
    endloop
  endfacet
  facet normal 0 0 1
    outer loop
      vertex 11.2623 18.6739 4
      vertex 9.75 23.65 4
      vertex 11.0587 18.562 4
    endloop
  endfacet
  facet normal 0 0 1
    outer loop
      vertex 11.0587 18.562 4
      vertex 9.75 23.65 4
      vertex 10.8708 18.4254 4
    endloop
  endfacet
  facet normal -0 0 1
    outer loop
      vertex 8.25 23.65 4
      vertex 10.8708 18.4254 4
      vertex 9.75 23.65 4
    endloop
  endfacet
  facet normal 0 0 1
    outer loop
      vertex 10.8708 18.4254 4
      vertex 8.25 23.65 4
      vertex 10.7014 18.2664 4
    endloop
  endfacet
  facet normal 0 0 1
    outer loop
      vertex 10.5533 18.0874 4
      vertex 8.25 23.65 4
      vertex 10.4288 17.8912 4
    endloop
  endfacet
  facet normal 0 0 1
    outer loop
      vertex 10.4288 17.8912 4
      vertex 8.25 23.65 4
      vertex 10.3299 17.681 4
    endloop
  endfacet
  facet normal 0 0 1
    outer loop
      vertex 10.3299 17.681 4
      vertex 8.25 23.65 4
      vertex 10.2581 17.4601 4
    endloop
  endfacet
  facet normal 0 0 1
    outer loop
      vertex 14 28.65 4
      vertex 9.75 29.65 4
      vertex 9.75 26.35 4
    endloop
  endfacet
  facet normal 0 0 1
    outer loop
      vertex 14 31.35 4
      vertex 9.75 29.65 4
      vertex 14 28.65 4
    endloop
  endfacet
  facet normal -0 0 1
    outer loop
      vertex 8.65 37.25 4
      vertex 9.75 32.35 4
      vertex 11.35 37.25 4
    endloop
  endfacet
  facet normal 0 0 1
    outer loop
      vertex 9.75 32.35 4
      vertex 8.65 37.25 4
      vertex 8.25 32.35 4
    endloop
  endfacet
  facet normal 0 0 1
    outer loop
      vertex 10.7014 18.2664 4
      vertex 8.25 23.65 4
      vertex 10.5533 18.0874 4
    endloop
  endfacet
  facet normal 0 0 1
    outer loop
      vertex 10.2581 17.4601 4
      vertex 8.25 23.65 4
      vertex 10.2146 17.2319 4
    endloop
  endfacet
  facet normal 0 -0 1
    outer loop
      vertex 8.45 12.35 4
      vertex 10.2146 17.2319 4
      vertex 8.25 23.65 4
    endloop
  endfacet
  facet normal 0 0 1
    outer loop
      vertex 10.2 17 4
      vertex 8.45 12.35 4
      vertex 9.95 12.35 4
    endloop
  endfacet
  facet normal 0 0 1
    outer loop
      vertex 0 0 4
      vertex 8.45 9.65 4
      vertex 8.45 12.35 4
    endloop
  endfacet
  facet normal 0 0 1
    outer loop
      vertex 8.45 9.65 4
      vertex 0 0 4
      vertex 8.45 7.35 4
    endloop
  endfacet
  facet normal 0 0 1
    outer loop
      vertex 0 0 4
      vertex 8.45 12.35 4
      vertex 8.25 23.65 4
    endloop
  endfacet
  facet normal 0 0 1
    outer loop
      vertex 10.2146 17.2319 4
      vertex 8.45 12.35 4
      vertex 10.2 17 4
    endloop
  endfacet
  facet normal -0 0 1
    outer loop
      vertex 14 23.65 4
      vertex 14.25 21.65 4
      vertex 14.25 23.65 4
    endloop
  endfacet
  facet normal 0 -0 1
    outer loop
      vertex 13.9 17 4
      vertex 14.25 21.65 4
      vertex 13.8854 17.2319 4
    endloop
  endfacet
  facet normal 0 0 1
    outer loop
      vertex 11.7033 18.8172 4
      vertex 14.25 21.65 4
      vertex 14 23.65 4
    endloop
  endfacet
  facet normal -0 0 1
    outer loop
      vertex 14 8.65 4
      vertex 15.5 7.35 4
      vertex 15.5 8.65 4
    endloop
  endfacet
  facet normal 0 0 1
    outer loop
      vertex 15.5 7.35 4
      vertex 14 8.65 4
      vertex 14 7.35 4
    endloop
  endfacet
  facet normal -0 0 1
    outer loop
      vertex 14 28.65 4
      vertex 15.5 26.35 4
      vertex 15.5 28.65 4
    endloop
  endfacet
  facet normal 0 0 1
    outer loop
      vertex 15.5 26.35 4
      vertex 14 28.65 4
      vertex 14 26.35 4
    endloop
  endfacet
  facet normal 0 0 1
    outer loop
      vertex 15.5 8.65 4
      vertex 15.75 11.65 4
      vertex 15.5 11.35 4
    endloop
  endfacet
  facet normal -0 0 1
    outer loop
      vertex 14.25 11.65 4
      vertex 15.5 11.35 4
      vertex 15.75 11.65 4
    endloop
  endfacet
  facet normal 0 0 1
    outer loop
      vertex 14.25 11.65 4
      vertex 14 11.35 4
      vertex 15.5 11.35 4
    endloop
  endfacet
  facet normal -0 0 1
    outer loop
      vertex 13.8854 16.7681 4
      vertex 14.25 14.35 4
      vertex 13.9 17 4
    endloop
  endfacet
  facet normal -0 0 1
    outer loop
      vertex 14.25 21.65 4
      vertex 15.75 14.35 4
      vertex 15.75 21.65 4
    endloop
  endfacet
  facet normal 0 0 1
    outer loop
      vertex 15.75 14.35 4
      vertex 14.25 21.65 4
      vertex 14.25 14.35 4
    endloop
  endfacet
  facet normal 0 0 1
    outer loop
      vertex 15.5 28.65 4
      vertex 15.75 31.65 4
      vertex 15.5 31.35 4
    endloop
  endfacet
  facet normal -0 0 1
    outer loop
      vertex 14.25 31.65 4
      vertex 15.5 31.35 4
      vertex 15.75 31.65 4
    endloop
  endfacet
  facet normal 0 0 1
    outer loop
      vertex 15.5 31.35 4
      vertex 14.25 31.65 4
      vertex 14 31.35 4
    endloop
  endfacet
  facet normal 0 0 1
    outer loop
      vertex 15.75 31.65 4
      vertex 18 40 4
      vertex 15.75 34.35 4
    endloop
  endfacet
  facet normal 0 0 1
    outer loop
      vertex 18 40 4
      vertex 14.25 34.35 4
      vertex 15.75 34.35 4
    endloop
  endfacet
  facet normal 0 0 1
    outer loop
      vertex 14.25 34.35 4
      vertex 14 31.35 4
      vertex 14.25 31.65 4
    endloop
  endfacet
  facet normal 0 0 1
    outer loop
      vertex 9.75 32.35 4
      vertex 14.25 34.35 4
      vertex 11.35 37.25 4
    endloop
  endfacet
  facet normal 0 0 1
    outer loop
      vertex 14.25 34.35 4
      vertex 9.75 32.35 4
      vertex 14 31.35 4
    endloop
  endfacet
  facet normal 0 0 1
    outer loop
      vertex 14 26.35 4
      vertex 11.4783 18.7595 4
      vertex 14 23.65 4
    endloop
  endfacet
  facet normal -0 0 1
    outer loop
      vertex 13.8419 16.5399 4
      vertex 14.25 14.35 4
      vertex 13.8854 16.7681 4
    endloop
  endfacet
  facet normal -0 0 1
    outer loop
      vertex 13.7701 16.319 4
      vertex 14.25 14.35 4
      vertex 13.8419 16.5399 4
    endloop
  endfacet
  facet normal -0 0 1
    outer loop
      vertex 13.6712 16.1088 4
      vertex 14.25 14.35 4
      vertex 13.7701 16.319 4
    endloop
  endfacet
  facet normal -0 0 1
    outer loop
      vertex 13.5467 15.9126 4
      vertex 14.25 14.35 4
      vertex 13.6712 16.1088 4
    endloop
  endfacet
  facet normal 0 0 1
    outer loop
      vertex 14.25 21.65 4
      vertex 13.9 17 4
      vertex 14.25 14.35 4
    endloop
  endfacet
  facet normal 0 0 1
    outer loop
      vertex 14.25 21.65 4
      vertex 13.8419 17.4601 4
      vertex 13.8854 17.2319 4
    endloop
  endfacet
  facet normal 0 0 1
    outer loop
      vertex 14.25 21.65 4
      vertex 13.7701 17.681 4
      vertex 13.8419 17.4601 4
    endloop
  endfacet
  facet normal 0 0 1
    outer loop
      vertex 14.25 21.65 4
      vertex 13.6712 17.8912 4
      vertex 13.7701 17.681 4
    endloop
  endfacet
  facet normal 0 0 1
    outer loop
      vertex 14.25 21.65 4
      vertex 13.5467 18.0874 4
      vertex 13.6712 17.8912 4
    endloop
  endfacet
  facet normal 0 0 1
    outer loop
      vertex 14.25 21.65 4
      vertex 13.3986 18.2664 4
      vertex 13.5467 18.0874 4
    endloop
  endfacet
  facet normal 0 0 1
    outer loop
      vertex 14.25 21.65 4
      vertex 13.2292 18.4254 4
      vertex 13.3986 18.2664 4
    endloop
  endfacet
  facet normal 0 0 1
    outer loop
      vertex 14.25 21.65 4
      vertex 13.0413 18.562 4
      vertex 13.2292 18.4254 4
    endloop
  endfacet
  facet normal 0 0 1
    outer loop
      vertex 14.25 21.65 4
      vertex 12.8377 18.6739 4
      vertex 13.0413 18.562 4
    endloop
  endfacet
  facet normal 0 0 1
    outer loop
      vertex 18 40 4
      vertex 11.35 37.25 4
      vertex 14.25 34.35 4
    endloop
  endfacet
  facet normal 0 0 1
    outer loop
      vertex 14.25 21.65 4
      vertex 12.6217 18.7595 4
      vertex 12.8377 18.6739 4
    endloop
  endfacet
  facet normal 0 0 1
    outer loop
      vertex 14.25 21.65 4
      vertex 12.3967 18.8172 4
      vertex 12.6217 18.7595 4
    endloop
  endfacet
  facet normal 0 0 1
    outer loop
      vertex 14.25 21.65 4
      vertex 12.1662 18.8463 4
      vertex 12.3967 18.8172 4
    endloop
  endfacet
  facet normal 0 0 1
    outer loop
      vertex 14.25 21.65 4
      vertex 11.9338 18.8463 4
      vertex 12.1662 18.8463 4
    endloop
  endfacet
  facet normal 0 0 1
    outer loop
      vertex 14.25 21.65 4
      vertex 11.7033 18.8172 4
      vertex 11.9338 18.8463 4
    endloop
  endfacet
  facet normal 0 0 1
    outer loop
      vertex 14 23.65 4
      vertex 11.4783 18.7595 4
      vertex 11.7033 18.8172 4
    endloop
  endfacet
  facet normal 0 0 1
    outer loop
      vertex 14 28.65 4
      vertex 11.4783 18.7595 4
      vertex 14 26.35 4
    endloop
  endfacet
  facet normal 0 0 1
    outer loop
      vertex 11.35 37.25 4
      vertex 18 40 4
      vertex 11.35 38.75 4
    endloop
  endfacet
  facet normal 0 0 1
    outer loop
      vertex 18 40 4
      vertex 8.65 38.75 4
      vertex 11.35 38.75 4
    endloop
  endfacet
  facet normal 0 0 1
    outer loop
      vertex 4.35 37.25 4
      vertex 8.65 37.25 4
      vertex 8.65 38.75 4
    endloop
  endfacet
  facet normal 0 0 1
    outer loop
      vertex 1.65 37.25 4
      vertex 8.25 29.65 4
      vertex 8.25 32.35 4
    endloop
  endfacet
  facet normal 0 0 1
    outer loop
      vertex 8.25 29.65 4
      vertex 1.65 37.25 4
      vertex 8.25 26.35 4
    endloop
  endfacet
  facet normal 0 0 1
    outer loop
      vertex 8.65 37.25 4
      vertex 4.35 37.25 4
      vertex 8.25 32.35 4
    endloop
  endfacet
  facet normal 0 0 1
    outer loop
      vertex 4.35 37.25 4
      vertex 8.65 38.75 4
      vertex 4.35 38.75 4
    endloop
  endfacet
  facet normal -0 0 1
    outer loop
      vertex 0 40 4
      vertex 8.65 38.75 4
      vertex 18 40 4
    endloop
  endfacet
  facet normal 0 0 1
    outer loop
      vertex 8.65 38.75 4
      vertex 0 40 4
      vertex 4.35 38.75 4
    endloop
  endfacet
  facet normal 0 0 1
    outer loop
      vertex 1.65 38.75 4
      vertex 0 40 4
      vertex 1.65 37.25 4
    endloop
  endfacet
  facet normal 0 0 1
    outer loop
      vertex 4.35 38.75 4
      vertex 0 40 4
      vertex 1.65 38.75 4
    endloop
  endfacet
  facet normal 0 0 1
    outer loop
      vertex 15.75 24.35 4
      vertex 18 40 4
      vertex 15.75 31.65 4
    endloop
  endfacet
  facet normal 0 0 1
    outer loop
      vertex 15.75 21.65 4
      vertex 18 40 4
      vertex 15.75 24.35 4
    endloop
  endfacet
  facet normal 0 0 1
    outer loop
      vertex 18 40 4
      vertex 15.75 21.65 4
      vertex 18 0 4
    endloop
  endfacet
  facet normal -0 0 1
    outer loop
      vertex 15.75 14.35 4
      vertex 18 0 4
      vertex 15.75 21.65 4
    endloop
  endfacet
  facet normal -0 0 1
    outer loop
      vertex 15.75 11.65 4
      vertex 18 0 4
      vertex 15.75 14.35 4
    endloop
  endfacet
  facet normal -0 0 1
    outer loop
      vertex 15.75 4.35 4
      vertex 18 0 4
      vertex 15.75 11.65 4
    endloop
  endfacet
  facet normal -0 0 1
    outer loop
      vertex 15.75 1.65 4
      vertex 18 0 4
      vertex 15.75 4.35 4
    endloop
  endfacet
  facet normal -0 0 1
    outer loop
      vertex 14.25 1.65 4
      vertex 18 0 4
      vertex 15.75 1.65 4
    endloop
  endfacet
  facet normal -0 0 1
    outer loop
      vertex 13.3986 15.7336 4
      vertex 14.25 14.35 4
      vertex 13.5467 15.9126 4
    endloop
  endfacet
  facet normal -0 0 1
    outer loop
      vertex 13.2292 15.5745 4
      vertex 14.25 14.35 4
      vertex 13.3986 15.7336 4
    endloop
  endfacet
  facet normal -0 0 1
    outer loop
      vertex 13.0413 15.438 4
      vertex 14.25 14.35 4
      vertex 13.2292 15.5745 4
    endloop
  endfacet
  facet normal -0 0 1
    outer loop
      vertex 12.8377 15.3261 4
      vertex 14.25 14.35 4
      vertex 13.0413 15.438 4
    endloop
  endfacet
  facet normal -0 0 1
    outer loop
      vertex 12.6217 15.2405 4
      vertex 14.25 14.35 4
      vertex 12.8377 15.3261 4
    endloop
  endfacet
  facet normal -0 0 1
    outer loop
      vertex 12.3967 15.1828 4
      vertex 14.25 14.35 4
      vertex 12.6217 15.2405 4
    endloop
  endfacet
  facet normal -0 0 1
    outer loop
      vertex 12.1662 15.1537 4
      vertex 14.25 14.35 4
      vertex 12.3967 15.1828 4
    endloop
  endfacet
  facet normal 0 0 1
    outer loop
      vertex 14.25 14.35 4
      vertex 12.1662 15.1537 4
      vertex 14.25 11.65 4
    endloop
  endfacet
  facet normal 0 0 1
    outer loop
      vertex 14 8.65 4
      vertex 9.95 7.35 4
      vertex 14 7.35 4
    endloop
  endfacet
  facet normal 0 0 1
    outer loop
      vertex 14.25 11.65 4
      vertex 12.1662 15.1537 4
      vertex 14 11.35 4
    endloop
  endfacet
  facet normal 0 0 1
    outer loop
      vertex 14 11.35 4
      vertex 9.95 9.65 4
      vertex 14 8.65 4
    endloop
  endfacet
  facet normal 0 0 1
    outer loop
      vertex 9.95 9.65 4
      vertex 14 11.35 4
      vertex 9.95 12.35 4
    endloop
  endfacet
  facet normal 0 0 1
    outer loop
      vertex 14 11.35 4
      vertex 12.1662 15.1537 4
      vertex 9.95 12.35 4
    endloop
  endfacet
  facet normal 0 0 1
    outer loop
      vertex 9.95 12.35 4
      vertex 12.1662 15.1537 4
      vertex 11.9338 15.1537 4
    endloop
  endfacet
  facet normal 0 0 1
    outer loop
      vertex 9.95 12.35 4
      vertex 11.9338 15.1537 4
      vertex 11.7033 15.1828 4
    endloop
  endfacet
  facet normal 0 0 1
    outer loop
      vertex 9.95 12.35 4
      vertex 11.7033 15.1828 4
      vertex 11.4783 15.2405 4
    endloop
  endfacet
  facet normal 0 0 1
    outer loop
      vertex 9.95 12.35 4
      vertex 11.4783 15.2405 4
      vertex 11.2623 15.3261 4
    endloop
  endfacet
  facet normal 0 0 1
    outer loop
      vertex 9.95 12.35 4
      vertex 11.2623 15.3261 4
      vertex 11.0587 15.438 4
    endloop
  endfacet
  facet normal 0 0 1
    outer loop
      vertex 9.95 12.35 4
      vertex 11.0587 15.438 4
      vertex 10.8708 15.5745 4
    endloop
  endfacet
  facet normal 0 0 1
    outer loop
      vertex 9.95 12.35 4
      vertex 10.8708 15.5745 4
      vertex 10.7014 15.7336 4
    endloop
  endfacet
  facet normal 0 0 1
    outer loop
      vertex 9.95 12.35 4
      vertex 10.7014 15.7336 4
      vertex 10.5533 15.9126 4
    endloop
  endfacet
  facet normal 0 0 1
    outer loop
      vertex 9.95 12.35 4
      vertex 10.5533 15.9126 4
      vertex 10.4288 16.1088 4
    endloop
  endfacet
  facet normal 0 0 1
    outer loop
      vertex 9.95 12.35 4
      vertex 10.4288 16.1088 4
      vertex 10.3299 16.319 4
    endloop
  endfacet
  facet normal 0 0 1
    outer loop
      vertex 9.95 12.35 4
      vertex 10.3299 16.319 4
      vertex 10.2581 16.5399 4
    endloop
  endfacet
  facet normal 0 0 1
    outer loop
      vertex 9.95 12.35 4
      vertex 10.2146 16.7681 4
      vertex 10.2 17 4
    endloop
  endfacet
  facet normal 0 0 1
    outer loop
      vertex 9.95 12.35 4
      vertex 10.2581 16.5399 4
      vertex 10.2146 16.7681 4
    endloop
  endfacet
  facet normal 0 0 1
    outer loop
      vertex 9.95 7.35 4
      vertex 14 8.65 4
      vertex 9.95 9.65 4
    endloop
  endfacet
  facet normal 0 0 1
    outer loop
      vertex 14 7.35 4
      vertex 9.95 7.35 4
      vertex 14 4.65 4
    endloop
  endfacet
  facet normal 0 0 1
    outer loop
      vertex 9.95 4.65 4
      vertex 14 4.65 4
      vertex 9.95 7.35 4
    endloop
  endfacet
  facet normal 0 0 1
    outer loop
      vertex 14 4.65 4
      vertex 9.95 4.65 4
      vertex 14.25 1.65 4
    endloop
  endfacet
  facet normal -0 0 1
    outer loop
      vertex 8.45 4.65 4
      vertex 14.25 1.65 4
      vertex 9.95 4.65 4
    endloop
  endfacet
  facet normal -0 0 1
    outer loop
      vertex 1.65 37.25 4
      vertex 8.25 32.35 4
      vertex 4.35 37.25 4
    endloop
  endfacet
  facet normal 0 0 1
    outer loop
      vertex 8.25 26.35 4
      vertex 1.65 37.25 4
      vertex 8.25 23.65 4
    endloop
  endfacet
  facet normal 0 0 1
    outer loop
      vertex 0 0 4
      vertex 8.25 23.65 4
      vertex 1.65 37.25 4
    endloop
  endfacet
  facet normal 0 0 1
    outer loop
      vertex 0 0 4
      vertex 1.65 37.25 4
      vertex 0 40 4
    endloop
  endfacet
  facet normal 0 0 1
    outer loop
      vertex 14.25 1.65 4
      vertex 0 0 4
      vertex 18 0 4
    endloop
  endfacet
  facet normal 0 0 1
    outer loop
      vertex 8.45 4.65 4
      vertex 0 0 4
      vertex 14.25 1.65 4
    endloop
  endfacet
  facet normal 0 0 1
    outer loop
      vertex 8.45 7.35 4
      vertex 0 0 4
      vertex 8.45 4.65 4
    endloop
  endfacet
  facet normal 0 0 1
    outer loop
      vertex 15.75 31.65 4
      vertex 15.5 28.65 4
      vertex 15.75 24.35 4
    endloop
  endfacet
  facet normal -0 0 1
    outer loop
      vertex 15.5 26.35 4
      vertex 15.75 24.35 4
      vertex 15.5 28.65 4
    endloop
  endfacet
  facet normal 0 0 1
    outer loop
      vertex 15.75 24.35 4
      vertex 15.5 26.35 4
      vertex 15.5 24.35 4
    endloop
  endfacet
  facet normal 0 0 1
    outer loop
      vertex 15.75 11.65 4
      vertex 15.5 8.65 4
      vertex 15.75 4.35 4
    endloop
  endfacet
  facet normal -0 0 1
    outer loop
      vertex 15.5 7.35 4
      vertex 15.75 4.35 4
      vertex 15.5 8.65 4
    endloop
  endfacet
  facet normal -0 0 1
    outer loop
      vertex 15.5 4.65 4
      vertex 15.75 4.35 4
      vertex 15.5 7.35 4
    endloop
  endfacet
  facet normal 0 0 1
    outer loop
      vertex 15.5 4.65 4
      vertex 14.25 4.35 4
      vertex 15.75 4.35 4
    endloop
  endfacet
  facet normal 0 0 1
    outer loop
      vertex 14.25 4.35 4
      vertex 14 4.65 4
      vertex 14.25 1.65 4
    endloop
  endfacet
  facet normal -0 0 1
    outer loop
      vertex 14 4.65 4
      vertex 14.25 4.35 4
      vertex 15.5 4.65 4
    endloop
  endfacet
  facet normal 1 -0 0
    outer loop
      vertex 18 0 4
      vertex 18 40 0
      vertex 18 40 4
    endloop
  endfacet
  facet normal 1 0 0
    outer loop
      vertex 18 40 0
      vertex 18 0 4
      vertex 18 0 0
    endloop
  endfacet
  facet normal 0 0 -1
    outer loop
      vertex 8.25 26.35 0
      vertex 9.75 29.65 0
      vertex 9.75 26.35 0
    endloop
  endfacet
  facet normal -0 0 -1
    outer loop
      vertex 9.75 29.65 0
      vertex 8.25 26.35 0
      vertex 8.25 29.65 0
    endloop
  endfacet
  facet normal 0 0 -1
    outer loop
      vertex 8.25 23.65 0
      vertex 10.2146 17.2319 0
      vertex 8.45 12.35 0
    endloop
  endfacet
  facet normal 0 0 -1
    outer loop
      vertex 10.2146 17.2319 0
      vertex 8.25 23.65 0
      vertex 9.75 23.65 0
    endloop
  endfacet
  facet normal 0 0 -1
    outer loop
      vertex 8.45 7.35 0
      vertex 9.95 9.65 0
      vertex 9.95 7.35 0
    endloop
  endfacet
  facet normal -0 0 -1
    outer loop
      vertex 9.95 9.65 0
      vertex 8.45 7.35 0
      vertex 8.45 9.65 0
    endloop
  endfacet
  facet normal 0 0 -1
    outer loop
      vertex 9.75 26.35 0
      vertex 14 26.35 0
      vertex 9.75 23.65 0
    endloop
  endfacet
  facet normal 0 0 -1
    outer loop
      vertex 9.75 23.65 0
      vertex 11.2623 18.6739 0
      vertex 11.0587 18.562 0
    endloop
  endfacet
  facet normal 0 0 -1
    outer loop
      vertex 9.75 23.65 0
      vertex 11.0587 18.562 0
      vertex 10.8708 18.4254 0
    endloop
  endfacet
  facet normal 0 0 -1
    outer loop
      vertex 9.75 23.65 0
      vertex 10.8708 18.4254 0
      vertex 10.7014 18.2664 0
    endloop
  endfacet
  facet normal 0 0 -1
    outer loop
      vertex 9.75 23.65 0
      vertex 10.7014 18.2664 0
      vertex 10.5533 18.0874 0
    endloop
  endfacet
  facet normal 0 0 -1
    outer loop
      vertex 9.75 23.65 0
      vertex 10.5533 18.0874 0
      vertex 10.4288 17.8912 0
    endloop
  endfacet
  facet normal 0 0 -1
    outer loop
      vertex 9.75 23.65 0
      vertex 10.4288 17.8912 0
      vertex 10.3299 17.681 0
    endloop
  endfacet
  facet normal 0 0 -1
    outer loop
      vertex 9.75 23.65 0
      vertex 10.3299 17.681 0
      vertex 10.2581 17.4601 0
    endloop
  endfacet
  facet normal 0 0 -1
    outer loop
      vertex 9.75 23.65 0
      vertex 10.2581 17.4601 0
      vertex 10.2146 17.2319 0
    endloop
  endfacet
  facet normal 0 0 -1
    outer loop
      vertex 8.45 12.35 0
      vertex 10.2146 17.2319 0
      vertex 10.2 17 0
    endloop
  endfacet
  facet normal -0 0 -1
    outer loop
      vertex 10.4288 16.1088 0
      vertex 8.45 12.35 0
      vertex 10.3299 16.319 0
    endloop
  endfacet
  facet normal -0 0 -1
    outer loop
      vertex 10.3299 16.319 0
      vertex 8.45 12.35 0
      vertex 10.2581 16.5399 0
    endloop
  endfacet
  facet normal -0 0 -1
    outer loop
      vertex 10.2581 16.5399 0
      vertex 8.45 12.35 0
      vertex 10.2146 16.7681 0
    endloop
  endfacet
  facet normal -0 0 -1
    outer loop
      vertex 10.2146 16.7681 0
      vertex 8.45 12.35 0
      vertex 10.2 17 0
    endloop
  endfacet
  facet normal 0 0 -1
    outer loop
      vertex 14 26.35 0
      vertex 9.75 26.35 0
      vertex 14 28.65 0
    endloop
  endfacet
  facet normal 0 0 -1
    outer loop
      vertex 9.75 29.65 0
      vertex 14 28.65 0
      vertex 9.75 26.35 0
    endloop
  endfacet
  facet normal 0 0 -1
    outer loop
      vertex 9.75 32.35 0
      vertex 14 28.65 0
      vertex 9.75 29.65 0
    endloop
  endfacet
  facet normal 0 0 -1
    outer loop
      vertex 14 28.65 0
      vertex 9.75 32.35 0
      vertex 11.35 37.25 0
    endloop
  endfacet
  facet normal 0 0 -1
    outer loop
      vertex 9.75 32.35 0
      vertex 8.65 37.25 0
      vertex 11.35 37.25 0
    endloop
  endfacet
  facet normal 0 0 -1
    outer loop
      vertex 4.35 37.25 0
      vertex 8.65 37.25 0
      vertex 8.25 32.35 0
    endloop
  endfacet
  facet normal 0 0 -1
    outer loop
      vertex 8.25 32.35 0
      vertex 8.65 37.25 0
      vertex 9.75 32.35 0
    endloop
  endfacet
  facet normal 0 0 -1
    outer loop
      vertex 14 26.35 0
      vertex 15.5 28.65 0
      vertex 15.5 26.35 0
    endloop
  endfacet
  facet normal -0 0 -1
    outer loop
      vertex 15.5 28.65 0
      vertex 14 26.35 0
      vertex 14 28.65 0
    endloop
  endfacet
  facet normal 0 0 -1
    outer loop
      vertex 14 7.35 0
      vertex 15.5 8.65 0
      vertex 15.5 7.35 0
    endloop
  endfacet
  facet normal -0 0 -1
    outer loop
      vertex 15.5 8.65 0
      vertex 14 7.35 0
      vertex 14 8.65 0
    endloop
  endfacet
  facet normal 0 0 -1
    outer loop
      vertex 15.5 26.35 0
      vertex 15.75 24.35 0
      vertex 15.5 24.35 0
    endloop
  endfacet
  facet normal 0 0 -1
    outer loop
      vertex 15.5 28.65 0
      vertex 15.75 24.35 0
      vertex 15.5 26.35 0
    endloop
  endfacet
  facet normal 0 0 -1
    outer loop
      vertex 15.75 24.35 0
      vertex 15.5 28.65 0
      vertex 15.75 31.65 0
    endloop
  endfacet
  facet normal 0 0 -1
    outer loop
      vertex 15.5 31.35 0
      vertex 15.75 31.65 0
      vertex 15.5 28.65 0
    endloop
  endfacet
  facet normal 0 0 -1
    outer loop
      vertex 15.5 31.35 0
      vertex 14.25 31.65 0
      vertex 15.75 31.65 0
    endloop
  endfacet
  facet normal -0 0 -1
    outer loop
      vertex 14.25 31.65 0
      vertex 14 31.35 0
      vertex 14.25 34.35 0
    endloop
  endfacet
  facet normal 0 0 -1
    outer loop
      vertex 14 31.35 0
      vertex 14.25 31.65 0
      vertex 15.5 31.35 0
    endloop
  endfacet
  facet normal 0 0 -1
    outer loop
      vertex 14.25 14.35 0
      vertex 15.75 21.65 0
      vertex 15.75 14.35 0
    endloop
  endfacet
  facet normal -0 0 -1
    outer loop
      vertex 15.75 21.65 0
      vertex 14.25 14.35 0
      vertex 14.25 21.65 0
    endloop
  endfacet
  facet normal 0 0 -1
    outer loop
      vertex 15.5 7.35 0
      vertex 15.75 4.35 0
      vertex 15.5 4.65 0
    endloop
  endfacet
  facet normal 0 0 -1
    outer loop
      vertex 14.25 4.35 0
      vertex 15.5 4.65 0
      vertex 15.75 4.35 0
    endloop
  endfacet
  facet normal -0 0 -1
    outer loop
      vertex 15.5 4.65 0
      vertex 14.25 4.35 0
      vertex 14 4.65 0
    endloop
  endfacet
  facet normal 0 0 -1
    outer loop
      vertex 15.75 4.35 0
      vertex 18 0 0
      vertex 15.75 1.65 0
    endloop
  endfacet
  facet normal 0 0 -1
    outer loop
      vertex 18 0 0
      vertex 14.25 1.65 0
      vertex 15.75 1.65 0
    endloop
  endfacet
  facet normal 0 0 -1
    outer loop
      vertex 14.25 1.65 0
      vertex 14 4.65 0
      vertex 14.25 4.35 0
    endloop
  endfacet
  facet normal 0 0 -1
    outer loop
      vertex 9.95 4.65 0
      vertex 14 7.35 0
      vertex 14 4.65 0
    endloop
  endfacet
  facet normal 0 0 -1
    outer loop
      vertex 9.95 7.35 0
      vertex 14 7.35 0
      vertex 9.95 4.65 0
    endloop
  endfacet
  facet normal 0 0 -1
    outer loop
      vertex 14 7.35 0
      vertex 9.95 7.35 0
      vertex 14 8.65 0
    endloop
  endfacet
  facet normal 0 0 -1
    outer loop
      vertex 14 11.35 0
      vertex 13.9 17 0
      vertex 14 23.65 0
    endloop
  endfacet
  facet normal 0 0 -1
    outer loop
      vertex 13.8854 17.2319 0
      vertex 14 23.65 0
      vertex 13.9 17 0
    endloop
  endfacet
  facet normal 0 0 -1
    outer loop
      vertex 13.8419 17.4601 0
      vertex 14 23.65 0
      vertex 13.8854 17.2319 0
    endloop
  endfacet
  facet normal 0 0 -1
    outer loop
      vertex 13.7701 17.681 0
      vertex 14 23.65 0
      vertex 13.8419 17.4601 0
    endloop
  endfacet
  facet normal 0 0 -1
    outer loop
      vertex 14 11.35 0
      vertex 13.8854 16.7681 0
      vertex 13.9 17 0
    endloop
  endfacet
  facet normal 0 0 -1
    outer loop
      vertex 14 11.35 0
      vertex 13.8419 16.5399 0
      vertex 13.8854 16.7681 0
    endloop
  endfacet
  facet normal 0 0 -1
    outer loop
      vertex 14 11.35 0
      vertex 13.7701 16.319 0
      vertex 13.8419 16.5399 0
    endloop
  endfacet
  facet normal 0 0 -1
    outer loop
      vertex 14 11.35 0
      vertex 13.6712 16.1088 0
      vertex 13.7701 16.319 0
    endloop
  endfacet
  facet normal 0 0 -1
    outer loop
      vertex 14 11.35 0
      vertex 13.5467 15.9126 0
      vertex 13.6712 16.1088 0
    endloop
  endfacet
  facet normal 0 0 -1
    outer loop
      vertex 14 11.35 0
      vertex 13.3986 15.7336 0
      vertex 13.5467 15.9126 0
    endloop
  endfacet
  facet normal 0 0 -1
    outer loop
      vertex 14 11.35 0
      vertex 13.2292 15.5745 0
      vertex 13.3986 15.7336 0
    endloop
  endfacet
  facet normal 0 0 -1
    outer loop
      vertex 14 11.35 0
      vertex 13.0413 15.438 0
      vertex 13.2292 15.5745 0
    endloop
  endfacet
  facet normal 0 0 -1
    outer loop
      vertex 9.95 4.65 0
      vertex 14 4.65 0
      vertex 14.25 1.65 0
    endloop
  endfacet
  facet normal 0 0 -1
    outer loop
      vertex 14 11.35 0
      vertex 12.8377 15.3261 0
      vertex 13.0413 15.438 0
    endloop
  endfacet
  facet normal 0 0 -1
    outer loop
      vertex 9.95 9.65 0
      vertex 14 8.65 0
      vertex 9.95 7.35 0
    endloop
  endfacet
  facet normal 0 0 -1
    outer loop
      vertex 14 11.35 0
      vertex 12.6217 15.2405 0
      vertex 12.8377 15.3261 0
    endloop
  endfacet
  facet normal 0 0 -1
    outer loop
      vertex 14 11.35 0
      vertex 12.3967 15.1828 0
      vertex 12.6217 15.2405 0
    endloop
  endfacet
  facet normal 0 0 -1
    outer loop
      vertex 14 11.35 0
      vertex 12.1662 15.1537 0
      vertex 12.3967 15.1828 0
    endloop
  endfacet
  facet normal 0 0 -1
    outer loop
      vertex 9.95 12.35 0
      vertex 12.1662 15.1537 0
      vertex 14 11.35 0
    endloop
  endfacet
  facet normal -0 0 -1
    outer loop
      vertex 12.1662 15.1537 0
      vertex 9.95 12.35 0
      vertex 11.9338 15.1537 0
    endloop
  endfacet
  facet normal 0 0 -1
    outer loop
      vertex 9.95 12.35 0
      vertex 14 11.35 0
      vertex 9.95 9.65 0
    endloop
  endfacet
  facet normal -0 0 -1
    outer loop
      vertex 11.9338 15.1537 0
      vertex 9.95 12.35 0
      vertex 11.7033 15.1828 0
    endloop
  endfacet
  facet normal 0 0 -1
    outer loop
      vertex 14 8.65 0
      vertex 9.95 9.65 0
      vertex 14 11.35 0
    endloop
  endfacet
  facet normal -0 0 -1
    outer loop
      vertex 11.7033 15.1828 0
      vertex 9.95 12.35 0
      vertex 11.4783 15.2405 0
    endloop
  endfacet
  facet normal -0 0 -1
    outer loop
      vertex 11.4783 15.2405 0
      vertex 9.95 12.35 0
      vertex 11.2623 15.3261 0
    endloop
  endfacet
  facet normal -0 0 -1
    outer loop
      vertex 11.2623 15.3261 0
      vertex 9.95 12.35 0
      vertex 11.0587 15.438 0
    endloop
  endfacet
  facet normal -0 0 -1
    outer loop
      vertex 11.0587 15.438 0
      vertex 9.95 12.35 0
      vertex 10.8708 15.5745 0
    endloop
  endfacet
  facet normal -0 0 -1
    outer loop
      vertex 10.8708 15.5745 0
      vertex 9.95 12.35 0
      vertex 10.7014 15.7336 0
    endloop
  endfacet
  facet normal -0 0 -1
    outer loop
      vertex 10.5533 15.9126 0
      vertex 8.45 12.35 0
      vertex 10.4288 16.1088 0
    endloop
  endfacet
  facet normal -0 0 -1
    outer loop
      vertex 10.7014 15.7336 0
      vertex 8.45 12.35 0
      vertex 10.5533 15.9126 0
    endloop
  endfacet
  facet normal 0 0 -1
    outer loop
      vertex 8.45 12.35 0
      vertex 10.7014 15.7336 0
      vertex 9.95 12.35 0
    endloop
  endfacet
  facet normal 0 0 -1
    outer loop
      vertex 14.25 1.65 0
      vertex 8.45 4.65 0
      vertex 9.95 4.65 0
    endloop
  endfacet
  facet normal 0 0 -1
    outer loop
      vertex 0 0 0
      vertex 8.45 7.35 0
      vertex 8.45 4.65 0
    endloop
  endfacet
  facet normal -0 0 -1
    outer loop
      vertex 8.45 7.35 0
      vertex 0 0 0
      vertex 8.45 9.65 0
    endloop
  endfacet
  facet normal -0 0 -1
    outer loop
      vertex 8.45 9.65 0
      vertex 0 0 0
      vertex 8.45 12.35 0
    endloop
  endfacet
  facet normal 0 0 -1
    outer loop
      vertex 1.65 37.25 0
      vertex 8.25 26.35 0
      vertex 8.25 23.65 0
    endloop
  endfacet
  facet normal 0 0 -1
    outer loop
      vertex 8.25 26.35 0
      vertex 1.65 37.25 0
      vertex 8.25 29.65 0
    endloop
  endfacet
  facet normal 0 0 -1
    outer loop
      vertex 8.25 29.65 0
      vertex 1.65 37.25 0
      vertex 8.25 32.35 0
    endloop
  endfacet
  facet normal -0 0 -1
    outer loop
      vertex 8.45 12.35 0
      vertex 0 0 0
      vertex 8.25 23.65 0
    endloop
  endfacet
  facet normal 0 0 -1
    outer loop
      vertex 8.25 32.35 0
      vertex 1.65 37.25 0
      vertex 4.35 37.25 0
    endloop
  endfacet
  facet normal 0 0 -1
    outer loop
      vertex 0 40 0
      vertex 1.65 37.25 0
      vertex 0 0 0
    endloop
  endfacet
  facet normal -0 0 -1
    outer loop
      vertex 8.25 23.65 0
      vertex 0 0 0
      vertex 1.65 37.25 0
    endloop
  endfacet
  facet normal -0 0 -1
    outer loop
      vertex 14.25 1.65 0
      vertex 0 0 0
      vertex 8.45 4.65 0
    endloop
  endfacet
  facet normal 0 0 -1
    outer loop
      vertex 0 0 0
      vertex 14.25 1.65 0
      vertex 18 0 0
    endloop
  endfacet
  facet normal 0 0 -1
    outer loop
      vertex 15.75 11.65 0
      vertex 18 0 0
      vertex 15.75 4.35 0
    endloop
  endfacet
  facet normal 0 0 -1
    outer loop
      vertex 15.75 14.35 0
      vertex 18 0 0
      vertex 15.75 11.65 0
    endloop
  endfacet
  facet normal 0 0 -1
    outer loop
      vertex 15.75 21.65 0
      vertex 18 0 0
      vertex 15.75 14.35 0
    endloop
  endfacet
  facet normal 0 0 -1
    outer loop
      vertex 18 0 0
      vertex 15.75 21.65 0
      vertex 18 40 0
    endloop
  endfacet
  facet normal 0 0 -1
    outer loop
      vertex 15.75 24.35 0
      vertex 18 40 0
      vertex 15.75 21.65 0
    endloop
  endfacet
  facet normal 0 0 -1
    outer loop
      vertex 15.75 31.65 0
      vertex 18 40 0
      vertex 15.75 24.35 0
    endloop
  endfacet
  facet normal 0 0 -1
    outer loop
      vertex 15.75 34.35 0
      vertex 18 40 0
      vertex 15.75 31.65 0
    endloop
  endfacet
  facet normal 0 0 -1
    outer loop
      vertex 14.25 34.35 0
      vertex 18 40 0
      vertex 15.75 34.35 0
    endloop
  endfacet
  facet normal 0 0 -1
    outer loop
      vertex 13.6712 17.8912 0
      vertex 14 23.65 0
      vertex 13.7701 17.681 0
    endloop
  endfacet
  facet normal 0 0 -1
    outer loop
      vertex 13.5467 18.0874 0
      vertex 14 23.65 0
      vertex 13.6712 17.8912 0
    endloop
  endfacet
  facet normal 0 0 -1
    outer loop
      vertex 13.3986 18.2664 0
      vertex 14 23.65 0
      vertex 13.5467 18.0874 0
    endloop
  endfacet
  facet normal 0 0 -1
    outer loop
      vertex 13.2292 18.4254 0
      vertex 14 23.65 0
      vertex 13.3986 18.2664 0
    endloop
  endfacet
  facet normal 0 0 -1
    outer loop
      vertex 13.0413 18.562 0
      vertex 14 23.65 0
      vertex 13.2292 18.4254 0
    endloop
  endfacet
  facet normal 0 0 -1
    outer loop
      vertex 12.8377 18.6739 0
      vertex 14 23.65 0
      vertex 13.0413 18.562 0
    endloop
  endfacet
  facet normal 0 0 -1
    outer loop
      vertex 12.6217 18.7595 0
      vertex 14 23.65 0
      vertex 12.8377 18.6739 0
    endloop
  endfacet
  facet normal 0 0 -1
    outer loop
      vertex 12.3967 18.8172 0
      vertex 14 23.65 0
      vertex 12.6217 18.7595 0
    endloop
  endfacet
  facet normal 0 0 -1
    outer loop
      vertex 12.1662 18.8463 0
      vertex 14 23.65 0
      vertex 12.3967 18.8172 0
    endloop
  endfacet
  facet normal 0 0 -1
    outer loop
      vertex 11.9338 18.8463 0
      vertex 14 23.65 0
      vertex 12.1662 18.8463 0
    endloop
  endfacet
  facet normal 0 0 -1
    outer loop
      vertex 9.75 23.65 0
      vertex 11.9338 18.8463 0
      vertex 11.7033 18.8172 0
    endloop
  endfacet
  facet normal 0 0 -1
    outer loop
      vertex 9.75 23.65 0
      vertex 11.7033 18.8172 0
      vertex 11.4783 18.7595 0
    endloop
  endfacet
  facet normal 0 0 -1
    outer loop
      vertex 9.75 23.65 0
      vertex 11.4783 18.7595 0
      vertex 11.2623 18.6739 0
    endloop
  endfacet
  facet normal 0 0 -1
    outer loop
      vertex 11.9338 18.8463 0
      vertex 9.75 23.65 0
      vertex 14 23.65 0
    endloop
  endfacet
  facet normal 0 0 -1
    outer loop
      vertex 14 23.65 0
      vertex 9.75 23.65 0
      vertex 14 26.35 0
    endloop
  endfacet
  facet normal 0 0 -1
    outer loop
      vertex 14 28.65 0
      vertex 11.35 37.25 0
      vertex 14 31.35 0
    endloop
  endfacet
  facet normal 0 0 -1
    outer loop
      vertex 14 31.35 0
      vertex 11.35 37.25 0
      vertex 14.25 34.35 0
    endloop
  endfacet
  facet normal 0 0 -1
    outer loop
      vertex 11.35 37.25 0
      vertex 18 40 0
      vertex 14.25 34.35 0
    endloop
  endfacet
  facet normal 0 0 -1
    outer loop
      vertex 11.35 38.75 0
      vertex 18 40 0
      vertex 11.35 37.25 0
    endloop
  endfacet
  facet normal 0 0 -1
    outer loop
      vertex 8.65 38.75 0
      vertex 18 40 0
      vertex 11.35 38.75 0
    endloop
  endfacet
  facet normal 0 0 -1
    outer loop
      vertex 8.65 37.25 0
      vertex 4.35 37.25 0
      vertex 8.65 38.75 0
    endloop
  endfacet
  facet normal 0 0 -1
    outer loop
      vertex 4.35 38.75 0
      vertex 8.65 38.75 0
      vertex 4.35 37.25 0
    endloop
  endfacet
  facet normal 0 0 -1
    outer loop
      vertex 0 40 0
      vertex 8.65 38.75 0
      vertex 4.35 38.75 0
    endloop
  endfacet
  facet normal 0 0 -1
    outer loop
      vertex 0 40 0
      vertex 4.35 38.75 0
      vertex 1.65 38.75 0
    endloop
  endfacet
  facet normal 0 0 -1
    outer loop
      vertex 8.65 38.75 0
      vertex 0 40 0
      vertex 18 40 0
    endloop
  endfacet
  facet normal 0 0 -1
    outer loop
      vertex 1.65 37.25 0
      vertex 0 40 0
      vertex 1.65 38.75 0
    endloop
  endfacet
  facet normal 0 0 -1
    outer loop
      vertex 15.75 4.35 0
      vertex 15.5 7.35 0
      vertex 15.75 11.65 0
    endloop
  endfacet
  facet normal 0 0 -1
    outer loop
      vertex 15.5 8.65 0
      vertex 15.75 11.65 0
      vertex 15.5 7.35 0
    endloop
  endfacet
  facet normal 0 0 -1
    outer loop
      vertex 15.5 11.35 0
      vertex 15.75 11.65 0
      vertex 15.5 8.65 0
    endloop
  endfacet
  facet normal 0 0 -1
    outer loop
      vertex 15.5 11.35 0
      vertex 14.25 11.65 0
      vertex 15.75 11.65 0
    endloop
  endfacet
  facet normal 0 0 -1
    outer loop
      vertex 14 11.35 0
      vertex 14.25 14.35 0
      vertex 14.25 11.65 0
    endloop
  endfacet
  facet normal 0 0 -1
    outer loop
      vertex 14 23.65 0
      vertex 14.25 14.35 0
      vertex 14 11.35 0
    endloop
  endfacet
  facet normal 0 0 -1
    outer loop
      vertex 14 11.35 0
      vertex 14.25 11.65 0
      vertex 15.5 11.35 0
    endloop
  endfacet
  facet normal 0 0 -1
    outer loop
      vertex 14.25 14.35 0
      vertex 14 23.65 0
      vertex 14.25 21.65 0
    endloop
  endfacet
  facet normal 0 0 -1
    outer loop
      vertex 14.25 21.65 0
      vertex 14 23.65 0
      vertex 14.25 23.65 0
    endloop
  endfacet
  facet normal 0 -1 0
    outer loop
      vertex 0 0 0
      vertex 18 0 4
      vertex 0 0 4
    endloop
  endfacet
  facet normal 0 -1 -0
    outer loop
      vertex 18 0 4
      vertex 0 0 0
      vertex 18 0 0
    endloop
  endfacet
  facet normal 0 1 -0
    outer loop
      vertex 18 40 0
      vertex 0 40 4
      vertex 18 40 4
    endloop
  endfacet
  facet normal 0 1 0
    outer loop
      vertex 0 40 4
      vertex 18 40 0
      vertex 0 40 0
    endloop
  endfacet
  facet normal -0.998027 -0.0627933 0
    outer loop
      vertex 13.9 17 0
      vertex 13.8854 17.2319 4
      vertex 13.8854 17.2319 0
    endloop
  endfacet
  facet normal -0.998027 -0.0627933 0
    outer loop
      vertex 13.8854 17.2319 4
      vertex 13.9 17 0
      vertex 13.9 17 4
    endloop
  endfacet
  facet normal 0.125332 -0.992115 0
    outer loop
      vertex 11.7033 18.8172 0
      vertex 11.9338 18.8463 4
      vertex 11.7033 18.8172 4
    endloop
  endfacet
  facet normal 0.125332 -0.992115 0
    outer loop
      vertex 11.9338 18.8463 4
      vertex 11.7033 18.8172 0
      vertex 11.9338 18.8463 0
    endloop
  endfacet
  facet normal -0.68455 -0.728966 0
    outer loop
      vertex 13.2292 18.4254 0
      vertex 13.3986 18.2664 4
      vertex 13.2292 18.4254 4
    endloop
  endfacet
  facet normal -0.68455 -0.728966 -0
    outer loop
      vertex 13.3986 18.2664 4
      vertex 13.2292 18.4254 0
      vertex 13.3986 18.2664 0
    endloop
  endfacet
  facet normal 0.770512 -0.637426 0
    outer loop
      vertex 10.5533 18.0874 4
      vertex 10.7014 18.2664 0
      vertex 10.7014 18.2664 4
    endloop
  endfacet
  facet normal 0.770512 -0.637426 0
    outer loop
      vertex 10.7014 18.2664 0
      vertex 10.5533 18.0874 4
      vertex 10.5533 18.0874 0
    endloop
  endfacet
  facet normal 0.481752 -0.876308 0
    outer loop
      vertex 11.0587 18.562 0
      vertex 11.2623 18.6739 4
      vertex 11.0587 18.562 4
    endloop
  endfacet
  facet normal 0.481752 -0.876308 0
    outer loop
      vertex 11.2623 18.6739 4
      vertex 11.0587 18.562 0
      vertex 11.2623 18.6739 0
    endloop
  endfacet
  facet normal -0.84433 0.535824 0
    outer loop
      vertex 13.5467 15.9126 0
      vertex 13.6712 16.1088 4
      vertex 13.6712 16.1088 0
    endloop
  endfacet
  facet normal -0.84433 0.535824 0
    outer loop
      vertex 13.6712 16.1088 4
      vertex 13.5467 15.9126 0
      vertex 13.5467 15.9126 4
    endloop
  endfacet
  facet normal -0.904825 -0.425784 0
    outer loop
      vertex 13.7701 17.681 0
      vertex 13.6712 17.8912 4
      vertex 13.6712 17.8912 0
    endloop
  endfacet
  facet normal -0.904825 -0.425784 0
    outer loop
      vertex 13.6712 17.8912 4
      vertex 13.7701 17.681 0
      vertex 13.7701 17.681 4
    endloop
  endfacet
  facet normal -0.844331 -0.535822 0
    outer loop
      vertex 13.6712 17.8912 0
      vertex 13.5467 18.0874 4
      vertex 13.5467 18.0874 0
    endloop
  endfacet
  facet normal -0.844331 -0.535822 0
    outer loop
      vertex 13.5467 18.0874 4
      vertex 13.6712 17.8912 0
      vertex 13.6712 17.8912 4
    endloop
  endfacet
  facet normal -0.248692 -0.968583 0
    outer loop
      vertex 12.3967 18.8172 0
      vertex 12.6217 18.7595 4
      vertex 12.3967 18.8172 4
    endloop
  endfacet
  facet normal -0.248692 -0.968583 -0
    outer loop
      vertex 12.6217 18.7595 4
      vertex 12.3967 18.8172 0
      vertex 12.6217 18.7595 0
    endloop
  endfacet
  facet normal -0.125331 -0.992115 0
    outer loop
      vertex 12.1662 18.8463 0
      vertex 12.3967 18.8172 4
      vertex 12.1662 18.8463 4
    endloop
  endfacet
  facet normal -0.125331 -0.992115 -0
    outer loop
      vertex 12.3967 18.8172 4
      vertex 12.1662 18.8463 0
      vertex 12.3967 18.8172 0
    endloop
  endfacet
  facet normal 0.904827 -0.42578 0
    outer loop
      vertex 10.3299 17.681 4
      vertex 10.4288 17.8912 0
      vertex 10.4288 17.8912 4
    endloop
  endfacet
  facet normal 0.904827 -0.42578 0
    outer loop
      vertex 10.4288 17.8912 0
      vertex 10.3299 17.681 4
      vertex 10.3299 17.681 0
    endloop
  endfacet
  facet normal 0.844329 -0.535825 0
    outer loop
      vertex 10.4288 17.8912 4
      vertex 10.5533 18.0874 0
      vertex 10.5533 18.0874 4
    endloop
  endfacet
  facet normal 0.844329 -0.535825 0
    outer loop
      vertex 10.5533 18.0874 0
      vertex 10.4288 17.8912 4
      vertex 10.4288 17.8912 0
    endloop
  endfacet
  facet normal 0.982287 -0.187381 0
    outer loop
      vertex 10.2146 17.2319 4
      vertex 10.2581 17.4601 0
      vertex 10.2581 17.4601 4
    endloop
  endfacet
  facet normal 0.982287 -0.187381 0
    outer loop
      vertex 10.2581 17.4601 0
      vertex 10.2146 17.2319 4
      vertex 10.2146 17.2319 0
    endloop
  endfacet
  facet normal 0.998027 0.0627887 0
    outer loop
      vertex 10.2146 16.7681 4
      vertex 10.2 17 0
      vertex 10.2 17 4
    endloop
  endfacet
  facet normal 0.998027 0.0627887 0
    outer loop
      vertex 10.2 17 0
      vertex 10.2146 16.7681 4
      vertex 10.2146 16.7681 0
    endloop
  endfacet
  facet normal 0.587784 -0.809018 0
    outer loop
      vertex 10.8708 18.4254 0
      vertex 11.0587 18.562 4
      vertex 10.8708 18.4254 4
    endloop
  endfacet
  facet normal 0.587784 -0.809018 0
    outer loop
      vertex 11.0587 18.562 4
      vertex 10.8708 18.4254 0
      vertex 11.0587 18.562 0
    endloop
  endfacet
  facet normal 0.248692 -0.968583 0
    outer loop
      vertex 11.4783 18.7595 0
      vertex 11.7033 18.8172 4
      vertex 11.4783 18.7595 4
    endloop
  endfacet
  facet normal 0.248692 -0.968583 0
    outer loop
      vertex 11.7033 18.8172 4
      vertex 11.4783 18.7595 0
      vertex 11.7033 18.8172 0
    endloop
  endfacet
  facet normal -0.998027 0.0627928 0
    outer loop
      vertex 13.8854 16.7681 0
      vertex 13.9 17 4
      vertex 13.9 17 0
    endloop
  endfacet
  facet normal -0.998027 0.0627928 0
    outer loop
      vertex 13.9 17 4
      vertex 13.8854 16.7681 0
      vertex 13.8854 16.7681 4
    endloop
  endfacet
  facet normal 0.125332 0.992115 -0
    outer loop
      vertex 11.9338 15.1537 0
      vertex 11.7033 15.1828 4
      vertex 11.9338 15.1537 4
    endloop
  endfacet
  facet normal 0.125332 0.992115 0
    outer loop
      vertex 11.7033 15.1828 4
      vertex 11.9338 15.1537 0
      vertex 11.7033 15.1828 0
    endloop
  endfacet
  facet normal -0.248692 0.968583 0
    outer loop
      vertex 12.6217 15.2405 0
      vertex 12.3967 15.1828 4
      vertex 12.6217 15.2405 4
    endloop
  endfacet
  facet normal -0.248692 0.968583 0
    outer loop
      vertex 12.3967 15.1828 4
      vertex 12.6217 15.2405 0
      vertex 12.3967 15.1828 0
    endloop
  endfacet
  facet normal -0.951058 -0.309013 0
    outer loop
      vertex 13.8419 17.4601 0
      vertex 13.7701 17.681 4
      vertex 13.7701 17.681 0
    endloop
  endfacet
  facet normal -0.951058 -0.309013 0
    outer loop
      vertex 13.7701 17.681 4
      vertex 13.8419 17.4601 0
      vertex 13.8419 17.4601 4
    endloop
  endfacet
  facet normal -0.982287 -0.187381 0
    outer loop
      vertex 13.8854 17.2319 0
      vertex 13.8419 17.4601 4
      vertex 13.8419 17.4601 0
    endloop
  endfacet
  facet normal -0.982287 -0.187381 0
    outer loop
      vertex 13.8419 17.4601 4
      vertex 13.8854 17.2319 0
      vertex 13.8854 17.2319 4
    endloop
  endfacet
  facet normal -0.77051 -0.637428 0
    outer loop
      vertex 13.5467 18.0874 0
      vertex 13.3986 18.2664 4
      vertex 13.3986 18.2664 0
    endloop
  endfacet
  facet normal -0.77051 -0.637428 0
    outer loop
      vertex 13.3986 18.2664 4
      vertex 13.5467 18.0874 0
      vertex 13.5467 18.0874 4
    endloop
  endfacet
  facet normal 0 -1 0
    outer loop
      vertex 11.9338 18.8463 0
      vertex 12.1662 18.8463 4
      vertex 11.9338 18.8463 4
    endloop
  endfacet
  facet normal 0 -1 -0
    outer loop
      vertex 12.1662 18.8463 4
      vertex 11.9338 18.8463 0
      vertex 12.1662 18.8463 0
    endloop
  endfacet
  facet normal -0.587784 -0.809018 0
    outer loop
      vertex 13.0413 18.562 0
      vertex 13.2292 18.4254 4
      vertex 13.0413 18.562 4
    endloop
  endfacet
  facet normal -0.587784 -0.809018 -0
    outer loop
      vertex 13.2292 18.4254 4
      vertex 13.0413 18.562 0
      vertex 13.2292 18.4254 0
    endloop
  endfacet
  facet normal -0.481754 -0.876307 0
    outer loop
      vertex 12.8377 18.6739 0
      vertex 13.0413 18.562 4
      vertex 12.8377 18.6739 4
    endloop
  endfacet
  facet normal -0.481754 -0.876307 -0
    outer loop
      vertex 13.0413 18.562 4
      vertex 12.8377 18.6739 0
      vertex 13.0413 18.562 0
    endloop
  endfacet
  facet normal 0.951057 -0.309017 0
    outer loop
      vertex 10.2581 17.4601 4
      vertex 10.3299 17.681 0
      vertex 10.3299 17.681 4
    endloop
  endfacet
  facet normal 0.951057 -0.309017 0
    outer loop
      vertex 10.3299 17.681 0
      vertex 10.2581 17.4601 4
      vertex 10.2581 17.4601 0
    endloop
  endfacet
  facet normal 0.998027 -0.0627892 0
    outer loop
      vertex 10.2 17 4
      vertex 10.2146 17.2319 0
      vertex 10.2146 17.2319 4
    endloop
  endfacet
  facet normal 0.998027 -0.0627892 0
    outer loop
      vertex 10.2146 17.2319 0
      vertex 10.2 17 4
      vertex 10.2 17 0
    endloop
  endfacet
  facet normal 0.68455 -0.728966 0
    outer loop
      vertex 10.7014 18.2664 0
      vertex 10.8708 18.4254 4
      vertex 10.7014 18.2664 4
    endloop
  endfacet
  facet normal 0.68455 -0.728966 0
    outer loop
      vertex 10.8708 18.4254 4
      vertex 10.7014 18.2664 0
      vertex 10.8708 18.4254 0
    endloop
  endfacet
  facet normal 0.368121 -0.929778 0
    outer loop
      vertex 11.2623 18.6739 0
      vertex 11.4783 18.7595 4
      vertex 11.2623 18.6739 4
    endloop
  endfacet
  facet normal 0.368121 -0.929778 0
    outer loop
      vertex 11.4783 18.7595 4
      vertex 11.2623 18.6739 0
      vertex 11.4783 18.7595 0
    endloop
  endfacet
  facet normal -0.587784 0.809018 0
    outer loop
      vertex 13.2292 15.5745 0
      vertex 13.0413 15.438 4
      vertex 13.2292 15.5745 4
    endloop
  endfacet
  facet normal -0.587784 0.809018 0
    outer loop
      vertex 13.0413 15.438 4
      vertex 13.2292 15.5745 0
      vertex 13.0413 15.438 0
    endloop
  endfacet
  facet normal -0.951058 0.309013 0
    outer loop
      vertex 13.7701 16.319 0
      vertex 13.8419 16.5399 4
      vertex 13.8419 16.5399 0
    endloop
  endfacet
  facet normal -0.951058 0.309013 0
    outer loop
      vertex 13.8419 16.5399 4
      vertex 13.7701 16.319 0
      vertex 13.7701 16.319 4
    endloop
  endfacet
  facet normal -0.904826 0.425781 0
    outer loop
      vertex 13.6712 16.1088 0
      vertex 13.7701 16.319 4
      vertex 13.7701 16.319 0
    endloop
  endfacet
  facet normal -0.904826 0.425781 0
    outer loop
      vertex 13.7701 16.319 4
      vertex 13.6712 16.1088 0
      vertex 13.6712 16.1088 4
    endloop
  endfacet
  facet normal 0.844328 0.535827 0
    outer loop
      vertex 10.5533 15.9126 4
      vertex 10.4288 16.1088 0
      vertex 10.4288 16.1088 4
    endloop
  endfacet
  facet normal 0.844328 0.535827 0
    outer loop
      vertex 10.4288 16.1088 0
      vertex 10.5533 15.9126 4
      vertex 10.5533 15.9126 0
    endloop
  endfacet
  facet normal 0.982287 0.187382 0
    outer loop
      vertex 10.2581 16.5399 4
      vertex 10.2146 16.7681 0
      vertex 10.2146 16.7681 4
    endloop
  endfacet
  facet normal 0.982287 0.187382 0
    outer loop
      vertex 10.2146 16.7681 0
      vertex 10.2581 16.5399 4
      vertex 10.2581 16.5399 0
    endloop
  endfacet
  facet normal 0.904828 0.425777 0
    outer loop
      vertex 10.4288 16.1088 4
      vertex 10.3299 16.319 0
      vertex 10.3299 16.319 4
    endloop
  endfacet
  facet normal 0.904828 0.425777 0
    outer loop
      vertex 10.3299 16.319 0
      vertex 10.4288 16.1088 4
      vertex 10.4288 16.1088 0
    endloop
  endfacet
  facet normal -0.481754 0.876307 0
    outer loop
      vertex 13.0413 15.438 0
      vertex 12.8377 15.3261 4
      vertex 13.0413 15.438 4
    endloop
  endfacet
  facet normal -0.481754 0.876307 0
    outer loop
      vertex 12.8377 15.3261 4
      vertex 13.0413 15.438 0
      vertex 12.8377 15.3261 0
    endloop
  endfacet
  facet normal -0.368125 0.929776 0
    outer loop
      vertex 12.8377 15.3261 0
      vertex 12.6217 15.2405 4
      vertex 12.8377 15.3261 4
    endloop
  endfacet
  facet normal -0.368125 0.929776 0
    outer loop
      vertex 12.6217 15.2405 4
      vertex 12.8377 15.3261 0
      vertex 12.6217 15.2405 0
    endloop
  endfacet
  facet normal -0.368121 -0.929778 0
    outer loop
      vertex 12.6217 18.7595 0
      vertex 12.8377 18.6739 4
      vertex 12.6217 18.7595 4
    endloop
  endfacet
  facet normal -0.368121 -0.929778 -0
    outer loop
      vertex 12.8377 18.6739 4
      vertex 12.6217 18.7595 0
      vertex 12.8377 18.6739 0
    endloop
  endfacet
  facet normal -0.982287 0.187382 0
    outer loop
      vertex 13.8419 16.5399 0
      vertex 13.8854 16.7681 4
      vertex 13.8854 16.7681 0
    endloop
  endfacet
  facet normal -0.982287 0.187382 0
    outer loop
      vertex 13.8854 16.7681 4
      vertex 13.8419 16.5399 0
      vertex 13.8419 16.5399 4
    endloop
  endfacet
  facet normal 0 1 -0
    outer loop
      vertex 12.1662 15.1537 0
      vertex 11.9338 15.1537 4
      vertex 12.1662 15.1537 4
    endloop
  endfacet
  facet normal 0 1 0
    outer loop
      vertex 11.9338 15.1537 4
      vertex 12.1662 15.1537 0
      vertex 11.9338 15.1537 0
    endloop
  endfacet
  facet normal 0.248692 0.968583 -0
    outer loop
      vertex 11.7033 15.1828 0
      vertex 11.4783 15.2405 4
      vertex 11.7033 15.1828 4
    endloop
  endfacet
  facet normal 0.248692 0.968583 0
    outer loop
      vertex 11.4783 15.2405 4
      vertex 11.7033 15.1828 0
      vertex 11.4783 15.2405 0
    endloop
  endfacet
  facet normal 0.951057 0.309017 0
    outer loop
      vertex 10.3299 16.319 4
      vertex 10.2581 16.5399 0
      vertex 10.2581 16.5399 4
    endloop
  endfacet
  facet normal 0.951057 0.309017 0
    outer loop
      vertex 10.2581 16.5399 0
      vertex 10.3299 16.319 4
      vertex 10.3299 16.319 0
    endloop
  endfacet
  facet normal -0.684548 0.728968 0
    outer loop
      vertex 13.3986 15.7336 0
      vertex 13.2292 15.5745 4
      vertex 13.3986 15.7336 4
    endloop
  endfacet
  facet normal -0.684548 0.728968 0
    outer loop
      vertex 13.2292 15.5745 4
      vertex 13.3986 15.7336 0
      vertex 13.2292 15.5745 0
    endloop
  endfacet
  facet normal -0.770511 0.637426 0
    outer loop
      vertex 13.3986 15.7336 0
      vertex 13.5467 15.9126 4
      vertex 13.5467 15.9126 0
    endloop
  endfacet
  facet normal -0.770511 0.637426 0
    outer loop
      vertex 13.5467 15.9126 4
      vertex 13.3986 15.7336 0
      vertex 13.3986 15.7336 4
    endloop
  endfacet
  facet normal -0.125331 0.992115 0
    outer loop
      vertex 12.3967 15.1828 0
      vertex 12.1662 15.1537 4
      vertex 12.3967 15.1828 4
    endloop
  endfacet
  facet normal -0.125331 0.992115 0
    outer loop
      vertex 12.1662 15.1537 4
      vertex 12.3967 15.1828 0
      vertex 12.1662 15.1537 0
    endloop
  endfacet
  facet normal 0.587784 0.809018 -0
    outer loop
      vertex 11.0587 15.438 0
      vertex 10.8708 15.5745 4
      vertex 11.0587 15.438 4
    endloop
  endfacet
  facet normal 0.587784 0.809018 0
    outer loop
      vertex 10.8708 15.5745 4
      vertex 11.0587 15.438 0
      vertex 10.8708 15.5745 0
    endloop
  endfacet
  facet normal 0.684548 0.728968 -0
    outer loop
      vertex 10.8708 15.5745 0
      vertex 10.7014 15.7336 4
      vertex 10.8708 15.5745 4
    endloop
  endfacet
  facet normal 0.684548 0.728968 0
    outer loop
      vertex 10.7014 15.7336 4
      vertex 10.8708 15.5745 0
      vertex 10.7014 15.7336 0
    endloop
  endfacet
  facet normal 0.770513 0.637424 0
    outer loop
      vertex 10.7014 15.7336 4
      vertex 10.5533 15.9126 0
      vertex 10.5533 15.9126 4
    endloop
  endfacet
  facet normal 0.770513 0.637424 0
    outer loop
      vertex 10.5533 15.9126 0
      vertex 10.7014 15.7336 4
      vertex 10.7014 15.7336 0
    endloop
  endfacet
  facet normal 0.368125 0.929776 -0
    outer loop
      vertex 11.4783 15.2405 0
      vertex 11.2623 15.3261 4
      vertex 11.4783 15.2405 4
    endloop
  endfacet
  facet normal 0.368125 0.929776 0
    outer loop
      vertex 11.2623 15.3261 4
      vertex 11.4783 15.2405 0
      vertex 11.2623 15.3261 0
    endloop
  endfacet
  facet normal 0.481752 0.876308 -0
    outer loop
      vertex 11.2623 15.3261 0
      vertex 11.0587 15.438 4
      vertex 11.2623 15.3261 4
    endloop
  endfacet
  facet normal 0.481752 0.876308 0
    outer loop
      vertex 11.0587 15.438 4
      vertex 11.2623 15.3261 0
      vertex 11.0587 15.438 0
    endloop
  endfacet
endsolid OpenSCAD_Model
